<?xml version="1.0" encoding="utf-8"?>
<!-- Generator: Adobe Illustrator 26.0.1, SVG Export Plug-In . SVG Version: 6.00 Build 0)  -->
<svg version="1.1" xmlns="http://www.w3.org/2000/svg" xmlns:xlink="http://www.w3.org/1999/xlink" x="0px" y="0px"
	 viewBox="0 0 411.8 547.9" style="enable-background:new 0 0 411.8 547.9;" xml:space="preserve">
<style type="text/css">
	
		.st0{display:none;clip-path:url(#SVGID_00000060711566525815838580000014938932888131159220_);fill:#FFFFFF;stroke:#020203;stroke-width:1.9843;stroke-miterlimit:10;}
	.st1{fill:none;}
	.st2{fill:#FFFFFF;}
	.st3{fill:#87BBE6;}
	.st4{fill:#020203;}
	.st5{fill:#75B1DE;}
</style>
<g id="pied_D">
</g>
<g id="pied_G_00000086685080655123037860000007358497137075015815_">
</g>
<g id="corps_00000073708374871074147000000001455574503868994738_">
	<g>
		<defs>
			<path id="SVGID_1_" d="M-271.8,473.6h-85c-14.4,0-26-11.7-26-26l5-173.1c0.3-11.2,9-20.2,20.1-20.9c14.4-1,35.9-2.1,56.9-2.1
				c19.7,0,37,6.3,45.6,10c3,1.3,5,4.2,5.1,7.5c0.2,1.8,6.1,46.3,6.1,76.8c0,30.9-1.6,101.1-1.7,101.8
				C-245.7,461.9-257.4,473.6-271.8,473.6z M-300.8,253.4c-20.9,0-42.4,1.1-56.7,2.1c-10.1,0.7-18,8.8-18.3,19l-5,173.1
				c0,13.2,10.8,24,24.1,24h85c13.3,0,24.1-10.8,24.1-24.1c0-0.7,1.7-70.9,1.7-101.8c0-30.9-6-76.2-6.1-76.6l0-0.1
				c-0.1-2.5-1.6-4.8-3.9-5.8C-264.5,259.6-281.5,253.4-300.8,253.4z"/>
		</defs>
		<use xlink:href="#SVGID_1_"  style="overflow:visible;fill:#020203;"/>
		<clipPath id="SVGID_00000120536468997482047340000012641044346520248214_">
			<use xlink:href="#SVGID_1_"  style="overflow:visible;"/>
		</clipPath>
		
			<path style="display:none;clip-path:url(#SVGID_00000120536468997482047340000012641044346520248214_);fill:#FFFFFF;stroke:#020203;stroke-width:1.9843;stroke-miterlimit:10;" d="
			M-248.3,261.9c-13-22.6-50-16.7-50-16.7s0,1.4-0.1,4c-31.4-10.2-83.5,2.1-83.5,2.1l-6.7,198.3h6.7c65.6-10.7,80.6-48,81.4-78.5
			c0.4-16.9,1.1-89.8,1.5-118.1c-0.4,39.6-0.3,129.9,2.6,140.3c4.7,17,7,37.3,33.8,52c11.9,6.5,16.9,9.3,18.9,10.4
			C-243.4,451.6-235.4,284.2-248.3,261.9z"/>
	</g>
</g>
<g id="bras">
</g>
<g id="page_00000052091702670612836930000010036011372562857405_">
</g>
<g id="main_AR">
</g>
<g id="col">
</g>
<g id="main_AV">
</g>
<g id="tete">
	<g>
		<path class="st1" d="M197,97.4c-0.3,1.6-0.8,3.1-1.3,4.6l0,0C196.3,100.5,196.7,99,197,97.4z"/>
		<path class="st1" d="M175.7,180.6c0.2-9.6-0.6-19.4-2.4-29.2c0,0,0,0,0,0C175.1,161.1,175.9,170.9,175.7,180.6z"/>
		<path class="st1" d="M65.8,310.1c0,8,1.2,14.7,3.5,20l1.4-48C67.5,290.8,65.8,300.2,65.8,310.1z"/>
		<path class="st2" d="M99.5,463.1L97.6,509c4.1,1.5,7.9,3.6,11.3,6.2c0.6-21.8,1.7-50.4,1.7-50.4S104.1,463.6,99.5,463.1z"/>
		<path class="st3" d="M110.6,464.8c0,0-1.1,28.6-1.7,50.4c0.1,0.1,0.3,0.2,0.4,0.3c1.5,1.1,2.9,2.4,4.2,3.7l2.3-68.2H100l-0.5,12.1
			C104.1,463.6,110.6,464.8,110.6,464.8z"/>
		<path class="st4" d="M115.4,521.3l2.4-70.3h-0.6l-2.3,69.6C115.1,520.9,115.3,521.1,115.4,521.3z"/>
		<path d="M117.8,451l-2.4,70.3c-0.2-0.2-0.4-0.4-0.5-0.6l2.3-69.6h-1.4l-2.3,68.2c0.4,0.4,0.8,0.8,1.2,1.2c0.7,0.8,1.3,1.5,1.9,2.3
			c0.1,0.1,0.1,0.1,0.2,0.2l2.4-72H117.8z"/>
		<path class="st4" d="M96.2,508.5l2.4-57.5H98l-2.4,57.3C95.8,508.4,96,508.5,96.2,508.5z"/>
		<path d="M95.1,508.2c0.7,0.2,1.3,0.4,2,0.6c0.2,0.1,0.3,0.1,0.5,0.2l1.9-45.9L100,451h-1.4l-2.4,57.5c-0.2-0.1-0.4-0.1-0.6-0.2
			L98,451h-1.4l-2.4,56.9C94.5,508,94.8,508.1,95.1,508.2z"/>
		<path class="st2" d="M60.6,544.5c1.9-7.9,6.8-15.3,13.7-19.9c10.3-6.4,20.9-8.8,31.7-7.4c-6.8-4.8-15.2-7.5-23.7-7.5
			c-20.8,0-38.2,15.5-39.1,34.8H60.6z"/>
		<path class="st3" d="M74.3,524.7c-6.9,4.5-11.8,11.9-13.7,19.9h60.8c-0.5-10.3-5.7-20-14.4-26.6c-0.3-0.3-0.7-0.5-1-0.8
			C95.2,515.9,84.6,518.3,74.3,524.7z"/>
		<path class="st4" d="M113.6,521.4c-1.6-1.8-3.3-3.4-5.2-4.8h0c-3.6-2.8-7.5-4.9-11.8-6.4c-0.6-0.2-1.3-0.4-1.9-0.6
			c-4-1.2-8.2-1.8-12.5-1.8c-22.7,0-41.2,17.3-41.2,38.5v0.3h82.3v-0.3c0-8.2-2.7-16-7.9-22.6C114.9,522.9,114.3,522.1,113.6,521.4z
			 M122.8,545.9H41.6l0-0.7c0.6-20.4,18.8-36.9,40.6-36.9c9.3,0,18.4,3,25.6,8.5c9.2,7,14.6,17.4,15,28.4L122.8,545.9z"/>
		<path d="M114.7,520.4c-0.4-0.4-0.8-0.8-1.2-1.2c-1.3-1.3-2.7-2.6-4.2-3.7c-0.1-0.1-0.3-0.2-0.4-0.3c-3.4-2.6-7.2-4.7-11.3-6.2
			c-0.2-0.1-0.3-0.1-0.5-0.2c-0.7-0.2-1.3-0.4-2-0.6c-0.3-0.1-0.6-0.2-0.9-0.2c-3.9-1.1-7.9-1.6-12-1.6c-23.5,0-42.6,17.9-42.6,39.9
			v1.7h85.2v-1.7c0-8.4-2.8-16.4-8-23.3c-0.1-0.1-0.1-0.1-0.2-0.2C116,522,115.4,521.2,114.7,520.4z M123.4,546.5H41.1v-0.3
			c0-21.2,18.5-38.5,41.2-38.5c4.2,0,8.4,0.6,12.5,1.8c0.6,0.2,1.3,0.4,1.9,0.6c4.3,1.5,8.3,3.7,11.8,6.4h0c1.8,1.4,3.6,3,5.2,4.8
			c0.7,0.7,1.3,1.5,1.9,2.2c5.2,6.6,7.9,14.4,7.9,22.6V546.5z"/>
		<path d="M107.9,516.8c-7.2-5.5-16.3-8.5-25.6-8.5c-21.8,0-40,16.6-40.6,36.9l0,0.7h81.2l0-0.7
			C122.5,534.2,117.1,523.8,107.9,516.8z M82.2,509.7c8.6,0,16.9,2.7,23.7,7.5c0.3,0.2,0.7,0.5,1,0.8c8.7,6.6,13.9,16.2,14.4,26.6
			H60.6H43.1C44,525.3,61.4,509.7,82.2,509.7z"/>
		<path class="st2" d="M146.1,462.2l-1,50.2c2.8-2.7,5.8-5.1,9.2-7c0.1-0.1,0.2-0.1,0.4-0.2c0-13.8,0-27.1,0.1-42.5
			C152,462.8,149,462.6,146.1,462.2z"/>
		<path class="st3" d="M154.7,462.8c-0.2,15.4-0.1,28.7-0.1,42.5c2.3-1.3,4.6-2.4,7.1-3.3l1-51h-16.4l-0.2,11.2
			C149,462.6,152,462.8,154.7,462.8z"/>
		<path class="st4" d="M143.6,513.9l1.2-62.9h-0.6l-1.3,63.5C143.2,514.3,143.4,514.1,143.6,513.9z"/>
		<path d="M143.8,513.7c0.4-0.4,0.8-0.8,1.3-1.2l1-50.2l0.2-11.2h-1.4l-1.2,62.9c-0.2,0.2-0.4,0.4-0.6,0.6l1.3-63.5h-1.4l-1.3,65.2
			c0.1-0.1,0.1-0.1,0.2-0.2C142.4,515.3,143.1,514.5,143.8,513.7z"/>
		<path class="st4" d="M163.7,501.4l1-50.4h-0.6l-1,50.5C163.3,501.5,163.5,501.4,163.7,501.4z"/>
		<path d="M164.7,451l-1,50.4c-0.2,0.1-0.4,0.1-0.6,0.2l1-50.5h-1.4l-1,51c0.2-0.1,0.3-0.1,0.5-0.2c0.7-0.2,1.3-0.5,2-0.7
			c0.3-0.1,0.6-0.2,0.9-0.3l1-49.9H164.7z"/>
		<path class="st2" d="M177.1,502.7c-22.9,0-41.9,18.7-42.8,41.8h14.5c5.2-12.2,14.3-22.4,26.6-26.5c14-4.4,31.7,0.1,41.1,11.1
			C209.8,513.3,194.3,502.7,177.1,502.7z"/>
		<path class="st3" d="M175.4,518c-12.2,4.1-21.3,14.3-26.6,26.5h71.1c-0.2-4.5-1-8.9-2.6-13.2c-0.3-0.7-0.6-1.5-0.9-2.2
			C207.1,518.1,189.3,513.6,175.4,518z"/>
		<path class="st4" d="M177.1,500.7c-4.2,0-8.4,0.6-12.5,1.8c-0.7,0.2-1.3,0.4-2,0.6c-2.6,0.9-5.2,2.1-7.7,3.5
			c-3.7,2.2-7.1,4.8-10.1,8c-0.7,0.7-1.4,1.5-2,2.2c-6.8,8.2-10.6,18.6-10.6,29.3v0.3H222v-0.3C222,521.1,201.8,500.7,177.1,500.7z
			 M221.4,545.2l0,0.7h-88.6l0-0.7c0.5-24.2,20.4-43.9,44.3-43.9c18.5,0,35.2,11.9,41.6,29.5C220.4,535.5,221.3,540.3,221.4,545.2z"
			/>
		<path d="M164.2,501.2c-0.7,0.2-1.4,0.4-2,0.7c-0.2,0.1-0.3,0.1-0.5,0.2c-2.4,0.9-4.8,2-7.1,3.3c-0.1,0.1-0.2,0.1-0.4,0.2
			c-3.3,1.9-6.4,4.3-9.2,7c-0.4,0.4-0.9,0.8-1.3,1.2c-0.7,0.8-1.4,1.5-2.1,2.3c-0.1,0.1-0.1,0.1-0.2,0.2c-6.9,8.4-10.7,19.1-10.7,30
			v1.7h92.5v-1.7c0-25.9-20.8-46.9-46.3-46.9c-4,0-8.1,0.6-12,1.6C164.8,501,164.5,501.1,164.2,501.2z M222,546.5h-89.7v-0.3
			c0-10.7,3.8-21.1,10.6-29.3c0.6-0.7,1.3-1.5,2-2.2c3-3.1,6.4-5.8,10.1-8c2.4-1.4,5-2.6,7.7-3.5c0.6-0.2,1.3-0.4,2-0.6
			c4.1-1.2,8.3-1.8,12.5-1.8c24.7,0,44.8,20.4,44.8,45.5V546.5z"/>
		<path d="M177.1,501.3c-23.9,0-43.7,19.7-44.3,43.9l0,0.7h88.6l0-0.7c-0.1-4.9-1-9.7-2.7-14.4C212.3,513.2,195.6,501.3,177.1,501.3
			z M217.4,531.3c1.5,4.3,2.4,8.7,2.6,13.2h-71.1h-14.5c0.9-23.1,19.9-41.8,42.8-41.8c17.1,0,32.7,10.5,39.4,26.4
			C216.8,529.9,217.1,530.6,217.4,531.3z"/>
		<path class="st2" d="M146.4,362.5c-2.8-2-5.3-4.2-7.2-6.8c-1.8-2.3-3.1-5-4.2-7.9c-9.9,7-27.4,13.9-45.3,13.9
			c-6.5,0-12.5-1-17.9-2.9L70,424.3c0,0,0,0,0,0C114,416.7,139.7,395.9,146.4,362.5z"/>
		<path class="st2" d="M72.6,335.7c1.7,2.2,3.6,4,5.8,5.4c16,10.4,42.8,0.2,53.6-4.6c0.3-0.1,0.7-0.2,1-0.3
			c-0.1-3.9,0.2-8.1,1.1-12.5c1.9-10.4,6.9-18.9,14.3-24.5c0.1-0.1,0.2-0.2,0.3-0.2l0.2-15.3c0.1-13.1,0.3-26.5,0.4-37.6
			c-0.1,0-0.2,0-0.4,0l-10.5,2.8c3.9,0.5,7,3.6,7.5,7.6c0,0.4,0.1,0.7,0.1,1c0.9,1.2,1.5,2.7,1.5,4.3c0,3.9-3.2,7.1-7.1,7.1
			c-2.3,0-4.3-1.1-5.6-2.8c-0.3-0.1-0.6-0.2-0.9-0.3c-3.3-1.4-5.4-4.5-5.4-8.1c0-2.8,1.4-5.3,3.4-7l-18.4,4.9l-15.1,9.3l-0.3-2.6
			c-0.4-3.2-1.3-6.6-2.8-10.2c-16.6,16.9-20.4,36.4-21.9,54L72.6,335.7z"/>
		<path class="st2" d="M151.2,431.5c1.3-17.8-3.1-32.5-3.1-32.5c-27.8,20.7-57.5,26.3-72.6,27.8c-1.7,0.3-3.4,0.7-5.2,1
			c1.7,11.4,11.5,19.9,23.1,19.9h49.2C146.2,445.6,150.5,441.2,151.2,431.5z"/>
		<path class="st5" d="M65.4,427.3c0,0,0.5,0,1.4,0l0-0.3C66.3,427.1,65.8,427.2,65.4,427.3z"/>
		<path class="st5" d="M153.7,376.1l0-0.1c-0.5-1.9-1-3.8-1.5-5.6c-0.3-1-0.5-2.6-0.8-4.9c-0.7-0.3-1.3-0.7-2-1.1
			c-3.2,15-10.4,27.7-21.2,37.8c-12.6,11.7-30.3,19.9-52.7,24.5c15.1-1.5,44.9-7.1,72.6-27.8c0,0,4.4,14.7,3.1,32.5
			c-0.7,9.7-4.9,14.1-8.6,16.1h35.8c10.3,0,19.3-6.8,22.3-16.6c-3-1.7-7.4-4.1-13.8-7.6C162.4,410,157.8,392,153.7,376.1z"/>
		<path class="st5" d="M137.3,248.8c0.4,0,0.8,0,1.2,0.1l10.5-2.8c-4.1,0.3-17.9,1.8-33.2,8.2l-2.2,1.3l18.4-4.9
			C133.4,249.5,135.3,248.8,137.3,248.8z"/>
		<path class="st5" d="M155.5,369.5c0.5,1.9,1,3.8,1.5,5.8l-0.7,0.2l0.7-0.2c3.9,15.2,8.3,32.4,31.5,45.1c5.8,3.2,10,5.5,13,7.1
			c0.2-1.1,0.3-2.2,0.3-3.3l0-0.1c0.1-5,0.7-31.3,1.2-57.9l-31.6,7.9l-0.6-3.1c-6-0.9-11.2-2.3-15.7-4
			C155.2,368.2,155.3,369,155.5,369.5z"/>
		<path class="st5" d="M152.9,296.3c7.6-4.1,16.9-5.7,27.5-4.7l1.6,0.2l-0.1,2.8l20.3-0.7c-1.8-24.5-4.9-47.8-4.9-48l0-0.1
			c-4.7,6.4-8.4,17.1-8.6,17.6l-0.6,1.8l-1.7-0.8c-5.2-2.3-25.7-19.5-33.5-26.2C152.7,256.8,152.7,277.8,152.9,296.3z"/>
		<polygon class="st5" points="179.7,352.7 186.5,350.8 179.8,350.6 		"/>
		<path class="st5" d="M182.9,313.5c1.2-1.3,2.5-2.6,3.9-3.9h-5.4l-0.2,5.9C181.7,314.8,182.3,314.1,182.9,313.5z"/>
		<path class="st5" d="M74.3,274l-0.9,32c1.6-17.6,5.3-37.2,21.9-54c0-0.1-0.1-0.2-0.1-0.3c-0.3-0.7-0.6-1.4-0.9-2
			C85.8,256.7,79.1,264.9,74.3,274z"/>
		<path class="st4" d="M203.1,424.3c0,1.3-0.1,2.7-0.3,4l0.5,0.3c0.2-1.4,0.4-2.8,0.4-4.3c0-0.3,0.7-29.7,1.2-58.6l-0.6,0.1
			c-0.4,26.7-1.1,53.2-1.2,58.3L203.1,424.3z"/>
		<path class="st4" d="M68.6,424.3l1.9-65.9c-0.2-0.1-0.4-0.1-0.6-0.2L68,424.3c0,0.1,0,0.3,0,0.4l0.6-0.1
			C68.6,424.5,68.6,424.4,68.6,424.3z"/>
		<path class="st4" d="M93.3,449.6h3.3h3.4h15.8h3.4h23.6h3.4h16.4h3.4h12.2c11.3,0,20.8-7.4,24.1-17.6l-0.5-0.3
			c-3.2,10.2-12.8,17.3-23.6,17.3h-85c-12.3,0-22.7-9-24.5-21l-0.6,0.1C70.2,440.4,80.8,449.6,93.3,449.6z"/>
		<path d="M204.9,365.7c-0.5,28.8-1.2,58.3-1.2,58.6c0,1.5-0.1,2.9-0.4,4.3l-0.5-0.3c0.2-1.3,0.3-2.7,0.3-4l0-0.1
			c0.1-5.1,0.7-31.6,1.2-58.3l-1.4,0.4c-0.4,26.6-1,52.9-1.2,57.9l0,0.1c0,1.1-0.1,2.2-0.3,3.3c0.3,0.2,0.6,0.3,0.9,0.5l1.8,1
			l-1.6,3l-1.3-0.7c-0.2-0.1-0.3-0.2-0.5-0.3c-3,9.8-12.1,16.6-22.3,16.6h-35.8H93.3c-11.6,0-21.3-8.5-23.1-19.9
			c-0.2,0-0.5,0.1-0.7,0.1l-1.7,0.3l-0.5-3.4l0.7-0.1c0-0.1,0-0.3,0-0.4l1.9-66.1c0.2,0.1,0.4,0.1,0.6,0.2l-1.9,65.9
			c0,0.1,0,0.2,0,0.3l0.6-0.1c0.3,0,0.5-0.1,0.8-0.1c0,0,0,0,0,0l1.9-65.4c-0.3-0.1-0.6-0.2-0.9-0.3c-0.7-0.3-1.3-0.5-2-0.8
			c-0.2-0.1-0.3-0.1-0.4-0.2l-1.9,66.7c0,0.9,0,1.8,0.1,2.7l0,0.1l0,0.3l0,0.1c1.6,13.5,13,23.7,26.6,23.7h3.3H98h0.6h1.4h15.8h1.4
			h0.6h1.4h23.7h1.4h0.6h1.4h16.4h1.4h0.6h1.4h12.3c14.7,0,26.7-12,26.7-26.7c0-0.3,0.7-30,1.2-58.9L204.9,365.7z M68.9,428
			c1.8,12,12.2,21,24.5,21h85c10.8,0,20.4-7.1,23.6-17.3l0.5,0.3c-3.3,10.2-12.9,17.6-24.1,17.6h-12.2h-3.4h-16.4h-3.4h-23.6h-3.4
			h-15.8h-3.4h-3.3c-12.6,0-23.2-9.2-25-21.5L68.9,428z"/>
		<path class="st4" d="M198.7,245.8c0,0.2,3.1,23.6,4.9,48.1l0.6,0c-0.2-2.3-0.3-4.6-0.5-6.9c-1.6-20-3.9-37.6-4.3-40.9l0-0.4
			c0-0.7-0.1-1.3-0.3-1.9c-0.2,0.2-0.3,0.3-0.5,0.5C198.6,244.8,198.7,245.3,198.7,245.8L198.7,245.8z"/>
		<path d="M199.2,243.5c-0.1,0.1-0.2,0.2-0.3,0.3c0.2,0.6,0.3,1.2,0.3,1.9l0,0.4c0.4,3.3,2.7,20.9,4.3,40.9c0.2,2.3,0.4,4.6,0.5,6.9
			l-0.6,0c-1.8-24.5-4.9-47.9-4.9-48.1l0-0.1c0-0.5-0.1-0.9-0.2-1.4c-0.1,0.1-0.2,0.2-0.2,0.3c-0.3,0.4-0.7,0.8-1,1.3l0,0.1
			c0,0.2,3.1,23.5,4.9,48l3.4-0.1c-0.2-2.3-0.3-4.7-0.5-7c-1.6-20-3.9-37.6-4.3-41l0-0.3c0-1.1-0.3-2.3-0.8-3.3c0,0.1,0,0.2-0.1,0.3
			C199.7,242.9,199.5,243.2,199.2,243.5z"/>
		<path class="st4" d="M72.2,278.4l-1.6,54.4c0.2,0.3,0.4,0.6,0.5,0.9l1.6-56.7C72.6,277.5,72.4,277.9,72.2,278.4z"/>
		<path d="M74.3,274c0,0-0.1,0.1-0.1,0.1c-0.5,1-1,2-1.4,2.9l-1.6,56.7c0.4,0.6,0.8,1.2,1.2,1.8c0,0.1,0.1,0.1,0.1,0.2l0.9-29.7
			L74.3,274z"/>
		<path d="M72.2,278.5L72,279c-0.5,1-0.9,2.1-1.3,3.2l-1.4,48c0.4,0.9,0.8,1.7,1.2,2.5c0,0.1,0.1,0.1,0.1,0.2l1.6-54.4
			C72.2,278.4,72.2,278.4,72.2,278.5z"/>
		<path class="st4" d="M127.1,400.5c-13.4,12.6-32.8,21.1-57.6,25.3l-0.5,0.1l0.1,0.6l0.3-0.1c45.2-7.6,71.7-28.7,78.8-62.8
			c-0.2-0.1-0.3-0.2-0.5-0.3C144.6,378.1,137.6,390.6,127.1,400.5z"/>
		<path d="M128.2,402.3c10.9-10.1,18-22.8,21.2-37.8c-0.3-0.2-0.6-0.3-0.8-0.5c-0.6-0.4-1.2-0.8-1.8-1.2c-0.1-0.1-0.3-0.2-0.4-0.3
			c-6.7,33.3-32.4,54.1-76.4,61.8c-0.3,0-0.5,0.1-0.8,0.1l-0.6,0.1l-0.6,0.1l-0.7,0.1l0.5,3.4l1.7-0.3c0.2,0,0.5-0.1,0.7-0.1
			c1.8-0.3,3.5-0.6,5.2-1C97.9,422.2,115.6,414,128.2,402.3z M148.2,363.7c-7.1,34-33.6,55.1-78.8,62.8l-0.3,0.1l-0.1-0.6l0.5-0.1
			c24.8-4.2,44.2-12.7,57.6-25.3c10.6-9.9,17.5-22.4,20.6-37.2C147.8,363.5,148,363.6,148.2,363.7z"/>
		<path class="st4" d="M150.7,246.7c-0.1,11-0.3,24.2-0.4,37l-0.2,14.3c0,0,0.1-0.1,0.1-0.1c0.2-0.1,0.4-0.3,0.6-0.4
			c0.2-0.1,0.4-0.3,0.6-0.4c-0.1-19.1-0.1-40.9,0-60c-0.2-0.1-0.3-0.3-0.5-0.4l-0.1,9.9L150.7,246.7z"/>
		<path d="M151.5,297.1c-0.2,0.1-0.4,0.3-0.6,0.4c0.3-0.2,0.6-0.4,1-0.6c0.3-0.2,0.7-0.4,1.1-0.6c-0.1-18.5-0.1-39.5,0-58
			c-0.4-0.4-0.8-0.7-1.2-1c-0.1-0.1-0.2-0.1-0.3-0.2C151.3,256.2,151.3,278,151.5,297.1z"/>
		<path d="M150,246c-0.1,0-0.4,0-0.7,0c0,0,0,0,0,0c-0.1,11.2-0.3,24.5-0.4,37.6l-0.2,15.3c0.1-0.1,0.2-0.1,0.3-0.2
			c0.4-0.3,0.8-0.6,1.3-0.9c0,0-0.1,0.1-0.1,0.1l0.2-14.3c0.1-12.9,0.3-26,0.4-37l0.2,0l0.1-9.9c-0.3-0.3-0.5-0.5-0.7-0.6l-0.1,9.9
			C150.2,246,150.1,246,150,246z"/>
		<path class="st4" d="M155,375.7l0,0.1c4,15.6,8.5,33.3,32.5,46.4c6.8,3.7,11.3,6.2,14.4,7.9l0.1,0l0.3-0.5l-0.6-0.3
			c-3-1.7-7.4-4.1-13.9-7.6c-23.7-13-28.2-30.5-32.2-46l0,0c-0.5-2-1-3.9-1.5-5.8c-0.2-0.7-0.4-1.9-0.6-3.4
			c-0.2-0.1-0.4-0.2-0.6-0.3c0.2,1.8,0.4,3.1,0.6,3.8C154.1,371.9,154.5,373.8,155,375.7z"/>
		<path d="M157,375.3l-0.7,0.2L157,375.3c-0.5-2-1-3.9-1.5-5.8c-0.2-0.5-0.3-1.4-0.4-2.4c-0.4-0.1-0.8-0.3-1.1-0.4
			c-0.7-0.3-1.4-0.6-2.1-1c-0.1-0.1-0.2-0.1-0.4-0.2c0.2,2.3,0.5,3.9,0.8,4.9c0.5,1.8,1,3.7,1.5,5.6l0,0.1
			c4.1,15.9,8.7,33.9,33.2,47.3c6.4,3.5,10.8,5.9,13.8,7.6c0.2,0.1,0.4,0.2,0.5,0.3l1.3,0.7l1.6-3l-1.8-1c-0.3-0.2-0.6-0.3-0.9-0.5
			c-3-1.6-7.2-3.9-13-7.1C165.3,407.7,160.9,390.5,157,375.3z M153.5,366.5c0.2,1.6,0.4,2.7,0.6,3.4c0.5,1.9,1,3.8,1.5,5.8l0,0
			c4,15.5,8.5,33,32.2,46c6.4,3.5,10.9,6,13.9,7.6l0.6,0.3l-0.3,0.5l-0.1,0c-3-1.7-7.6-4.2-14.4-7.9c-23.9-13.1-28.5-30.8-32.5-46.4
			l0-0.1c-0.5-1.9-1-3.8-1.5-5.6c-0.2-0.8-0.4-2.1-0.6-3.8C153.1,366.3,153.3,366.4,153.5,366.5z"/>
		<path class="st5" d="M149.3,246C149.3,246,149.3,246,149.3,246c0.3,0,0.6,0,0.7,0c0.1,0,0.2,0,0.2,0l0.1-9.9
			c-0.1-0.1-0.2-0.2-0.2-0.2l-0.6-0.5v-2l-33.8,20.8c15.4-6.4,29.1-7.8,33.2-8.2C149.1,246,149.2,246,149.3,246z"/>
		<path class="st2" d="M95.9,349c-7,0-13.7-1.4-19.4-5c-9.4-6.1-14.1-17.5-14.1-33.9c0-2.7,0.1-5.4,0.4-8.1c0.1-1.6,0.4-3.3,0.6-4.9
			c0.2-20.1,9.2-40.7,21.6-57.1c0.7-0.9,1.5-1.8,2.3-2.7c0,0-0.1-0.1-0.1-0.1c-0.6-0.8-1.2-1.6-1.8-2.4c-4.2,1.8-10.4,5.4-16.5,12.2
			c-12.6,14-19.5,34.9-20.4,62.2c-0.8,22.2,5.9,37.1,19.7,44.4c20.5,10.7,51.4,1.6,65.8-9.1c0,0,0-0.1,0.1-0.1
			c-0.4-1.5-0.6-3.1-0.8-4.7C125.5,343.1,110.3,349,95.9,349z"/>
		<path class="st5" d="M63.3,297.1c2.9-20,12.8-37.1,29.5-50.7c-1.6-3-3.5-6.1-5.6-9.1c-0.8,0.9-1.6,1.7-2.3,2.7
			C72.6,256.4,63.6,277,63.3,297.1z"/>
		<path class="st4" d="M64.2,302.1c-0.2,2.6-0.4,5.3-0.4,8c0,15.9,4.5,26.9,13.5,32.7c16.8,10.9,44.4,0.5,55.5-4.4
			c0.1,0,0.2-0.1,0.3-0.1c0-0.2,0-0.4,0-0.6c-0.2,0-0.3,0.1-0.5,0.2c-11,4.9-38.4,15.2-55,4.5c-2.4-1.6-4.5-3.6-6.3-6
			c-0.7-1-1.4-2-1.9-3c-3.3-5.9-4.9-13.7-4.9-23.2c0-11.3,2.1-22,6.3-31.7l0.2-0.5c0.6-1.4,1.3-2.9,2.1-4.4
			c4.9-9.4,11.9-17.9,20.7-25.2c-0.1-0.2-0.2-0.4-0.3-0.5C76,262.1,66.1,280.4,64.2,302.1z"/>
		<path d="M63.3,297.1c-0.2,1.6-0.4,3.2-0.6,4.9c-0.2,2.7-0.4,5.4-0.4,8.1c0,16.4,4.7,27.8,14.1,33.9c5.6,3.7,12.4,5,19.4,5
			c14.4,0,29.7-5.9,37.4-9.3c0-0.3-0.1-0.5-0.1-0.8c-0.1-0.7-0.1-1.3-0.1-2c0-0.2,0-0.4,0-0.7c-0.3,0.1-0.7,0.1-1,0.3
			c-10.8,4.8-37.6,14.9-53.6,4.6c-2.2-1.4-4.1-3.3-5.8-5.4c0-0.1-0.1-0.1-0.1-0.2c-0.4-0.6-0.8-1.2-1.2-1.8
			c-0.2-0.3-0.4-0.6-0.5-0.9c0-0.1-0.1-0.1-0.1-0.2c-0.4-0.8-0.9-1.7-1.2-2.5c-2.3-5.3-3.5-12-3.5-20c0-9.9,1.7-19.3,4.9-27.9
			c0.4-1.1,0.8-2.1,1.3-3.2l0.2-0.5c0,0,0-0.1,0.1-0.1c0.2-0.4,0.4-0.9,0.6-1.3c0.4-0.9,0.9-1.9,1.4-2.9c0,0,0.1-0.1,0.1-0.1
			c4.8-9.1,11.5-17.3,20-24.4c-0.1-0.3-0.2-0.6-0.4-0.9c-0.1-0.2-0.2-0.3-0.2-0.5c-8.8,7.3-15.8,15.8-20.7,25.2
			c-0.8,1.5-1.5,3-2.1,4.4l-0.2,0.5c-4.2,9.7-6.3,20.4-6.3,31.7c0,9.5,1.7,17.3,4.9,23.2c0.6,1,1.2,2.1,1.9,3c1.8,2.4,3.9,4.4,6.3,6
			c16.6,10.7,44,0.4,55-4.5c0.2-0.1,0.3-0.1,0.5-0.2c0,0.2,0,0.4,0,0.6c-0.1,0-0.2,0.1-0.3,0.1c-11.1,5-38.7,15.3-55.5,4.4
			c-8.9-5.8-13.5-16.8-13.5-32.7c0-2.7,0.1-5.4,0.4-8c1.9-21.7,11.8-40,29.3-54.4c-0.1-0.3-0.3-0.5-0.4-0.8
			c-0.1-0.2-0.2-0.3-0.3-0.5C76.2,260,66.3,277.1,63.3,297.1z"/>
		<path class="st4" d="M84.3,233.4c-0.1-0.1-0.1-0.2-0.2-0.2c-4.3,1.9-10.5,5.6-16.7,12.5c-12.9,14.3-20,35.7-20.9,63.5
			c-0.8,23,6.2,38.6,20.8,46.2c0.7,0.4,1.5,0.7,2.3,1.1c0.6,0.3,1.3,0.5,1.9,0.8l0,0c5.4,2.1,11.6,3.1,18.3,3.1
			c17.7,0,35.1-6.9,44.8-13.9c-0.1-0.2-0.1-0.4-0.2-0.6c-14.9,10.8-46.1,19.9-66.9,8.9C53.1,347.3,46.2,332,47,309.2
			c0.9-27.6,7.9-48.9,20.8-63.1c6.1-6.8,12.3-10.5,16.7-12.4C84.4,233.6,84.4,233.6,84.3,233.4C84.3,233.5,84.3,233.5,84.3,233.4z"
			/>
		<path d="M71,358.6c0.3,0.1,0.6,0.2,0.9,0.3c5.4,1.9,11.3,2.9,17.9,2.9c17.8,0,35.4-6.9,45.3-13.9c-0.1-0.3-0.2-0.6-0.3-0.9
			c-0.2-0.7-0.4-1.4-0.6-2.2c0-0.1,0-0.2-0.1-0.4c0,0,0,0.1-0.1,0.1c-14.4,10.7-45.3,19.9-65.8,9.1c-13.8-7.2-20.5-22.2-19.7-44.4
			c0.9-27.3,7.8-48.2,20.4-62.2c6.1-6.8,12.3-10.4,16.5-12.2c-0.1-0.1-0.2-0.3-0.3-0.4c-0.2-0.3-0.4-0.5-0.6-0.7
			c-4.4,1.9-10.6,5.6-16.7,12.4c-12.8,14.2-19.8,35.5-20.8,63.1c-0.8,22.8,6.1,38.2,20.5,45.7c20.8,10.9,52,1.9,66.9-8.9
			c0.1,0.2,0.1,0.4,0.2,0.6c-9.6,6.9-27.1,13.9-44.8,13.9c-6.7,0-12.9-1-18.3-3.1l0,0c-0.6-0.2-1.3-0.5-1.9-0.8
			c-0.9-0.4-1.6-0.8-2.3-1.1c-14.6-7.6-21.6-23.2-20.8-46.2c0.9-27.8,8-49.1,20.9-63.5c6.2-6.9,12.5-10.6,16.7-12.5
			c-0.1-0.1-0.2-0.3-0.3-0.4c-0.3-0.4-0.5-0.6-0.6-0.7c-4.4,2-10.6,5.8-16.9,12.7C53.1,259.3,45.9,281,45,309.1
			c-0.8,23.6,6.5,39.6,21.5,47.5c0.6,0.3,1.3,0.6,2,1c0.1,0.1,0.3,0.1,0.4,0.2C69.6,358.1,70.3,358.3,71,358.6z"/>
		<path d="M84.3,233.4C84.3,233.5,84.3,233.5,84.3,233.4C84.3,233.5,84.3,233.5,84.3,233.4z"/>
		<path class="st3" d="M321.1,315.7l-7.3,0l-0.5-0.9c-19.5-35.8-50.3-35.5-56.3-35c-17.8,1.8-34.4,7.6-49.2,17.2l2.5,12.6h-18.7
			c-2.2,2-4.3,4.1-6.2,6.2c-1.5,1.6-3,3.3-4.5,5.1l-0.1,2l27.4-7.9l10.5,21.9l-38.9,9.8l0,0.5l17.5,0.5l12.3-3.5l2,3.9l49.4,1.5
			l-18.3-36.1l16.5-8.3l21.2,41.9l8.7-4L274,306.5l14.9-6.2l13.4,32.2C308.5,326,314.8,320.4,321.1,315.7z"/>
		<path class="st4" d="M183.9,314.5c-1,1-1.9,2.1-2.9,3.2l0,0.9c1.1-1.3,2.3-2.6,3.4-3.8c1.7-1.8,3.4-3.5,5.2-5.2h-0.8
			C187.1,311.2,185.4,312.8,183.9,314.5z"/>
		<path d="M182.9,313.5c-0.6,0.6-1.2,1.3-1.8,1.9l-0.2,5.4c1.5-1.8,3-3.5,4.5-5.1c2-2.1,4.1-4.2,6.2-6.2h-2.1
			c-1.8,1.7-3.5,3.5-5.2,5.2c-1.1,1.2-2.3,2.5-3.4,3.8l0-0.9c1-1.1,1.9-2.2,2.9-3.2c1.5-1.6,3.2-3.3,4.8-4.9h-2
			C185.4,310.9,184.1,312.2,182.9,313.5z"/>
		<path class="st4" d="M255.1,278c-17.2,2-33.3,7.7-47.7,16.9l0.1,0.5l0,0.1c14.5-9.2,30.5-14.9,47.7-16.9L255.1,278z"/>
		<path d="M207.5,295.4l-0.1-0.5c14.5-9.2,30.5-14.9,47.7-16.9l-0.2-1.4l0.4-0.1c-17.6,2-34.1,7.8-48.9,17.2l0.7,0L207.5,295.4z"/>
		<path d="M257,279.8c-0.3,0-0.6,0-0.7,0.1l-0.9,0.1l-0.2-0.7l-0.1-0.7c-17.2,2-33.2,7.7-47.7,16.9l0.3,1.5
			C222.7,287.4,239.2,281.6,257,279.8C257,279.8,257,279.8,257,279.8z"/>
		<polygon class="st4" points="212.7,350.1 212.7,350.2 262.2,351.7 261.9,351.1 212.5,349.6 		"/>
		<polygon points="212.7,350.1 212.5,349.6 261.9,351.1 261.1,349.6 211.7,348.1 		"/>
		<polygon points="262.2,351.7 212.7,350.2 213.5,351.6 262.9,353.1 		"/>
		<path class="st4" d="M324.5,315.7h-1c-6.9,4.9-13.9,11-20.6,18.2l0.2,0.5l0.1,0.1C310.2,327,317.3,320.7,324.5,315.7z"/>
		<path d="M321.1,315.7c-6.3,4.6-12.6,10.3-18.7,16.8l0.8,1.9l-0.2-0.5c6.7-7.2,13.6-13.3,20.6-18.2h1c-7.2,5-14.4,11.3-21.3,18.8
			l0.6,1.4c7.6-8.2,15.4-15,23.2-20.2L321.1,315.7z"/>
		<polygon class="st4" points="179.9,348.8 179.8,349.2 191.1,349.5 192.9,349 179.9,348.6 		"/>
		<polygon points="179.9,348.8 179.9,348.6 192.9,349 197.4,347.7 179.9,347.2 		"/>
		<polygon points="179.8,350.6 186.5,350.8 191.1,349.5 179.8,349.2 		"/>
		<path class="st2" d="M315.9,312.3h21.6l29.4,0.7c3.8-2.4,7.6-5,11.3-7.8c5.3-4.2,7.6-9.2,7.5-14c-0.1-0.1-0.2-0.1-0.4-0.2
			c-16.5-8.8-49.2-18.1-111.6-12.8C286.9,281.4,303.5,290.2,315.9,312.3z"/>
		<path class="st3" d="M378.2,305.2c-3.7,2.9-7.4,5.4-11.3,7.8l40.7,0.9c-1.3-3.9-5.9-13.7-20.8-22.1c-0.4-0.2-0.8-0.5-1.2-0.7
			C385.8,296,383.4,301,378.2,305.2z"/>
		<path class="st4" d="M256.6,278.4c0.1,0,0.2,0,0.3,0c6.1-0.4,37.8-0.8,57.7,35.8l0.1,0.1h8.4h6.1h8.3l72.7,1.7l0-0.3
			c-0.1-0.6-2-13.9-22-25.4c-18.3-10.5-56.1-21.2-131.6-12.4L256.6,278.4z M268.8,277.1c65.8-6.1,100,3.5,117.1,12.6
			c0.6,0.3,1.1,0.6,1.6,0.9c16.7,9.5,20.8,20.7,21.7,23.9l0.3,0.9l-72.1-1.7l-22.4,0l-0.2-0.4c-13.7-24.7-32.6-32.6-46.1-34.9
			l-5.3-0.9L268.8,277.1z"/>
		<path d="M255.1,278l0.1,0.6l0.1,0.7l0.2,0.7l0.9-0.1c0.2,0,0.4,0,0.7-0.1c0,0,0,0,0,0c6-0.4,36.8-0.7,56.3,35l0.5,0.9l7.3,0l5.9,0
			l10.4,0l74.4,1.7l-0.3-2c-0.1-0.6-2.1-14.7-22.7-26.5c-18.6-10.6-56.7-21.4-133-12.5l-0.6,0.1l-0.4,0.1L255.1,278z M388.1,290.3
			c20,11.5,22,24.9,22,25.4l0,0.3l-72.7-1.7h-8.3h-6.1h-8.4l-0.1-0.1c-19.9-36.5-51.6-36.2-57.7-35.8c-0.1,0-0.2,0-0.3,0l-0.1-0.6
			C332.1,269.1,369.8,279.8,388.1,290.3z"/>
		<path d="M314.8,313.4l0.2,0.4l22.4,0l72.1,1.7l-0.3-0.9c-0.9-3.2-5.1-14.4-21.7-23.9c-0.5-0.3-1.1-0.6-1.6-0.9
			c-17.1-9.1-51.3-18.7-117.1-12.6l-5.4,0.5l5.3,0.9C282.3,280.8,301.2,288.7,314.8,313.4z M385.3,291c0.1,0.1,0.2,0.1,0.4,0.2
			c0.4,0.2,0.8,0.5,1.2,0.7c14.8,8.4,19.4,18.2,20.8,22.1l-40.7-0.9l-29.4-0.7h-21.6c-12.4-22.2-29-30.9-42.2-34.2
			C336.1,272.9,368.8,282.1,385.3,291z"/>
		<path class="st2" d="M271.6,357.4l-2.3,1.2c4.6,7.4,12.1,12.3,20.7,13.9C282.3,369.8,276,364.3,271.6,357.4z"/>
		<path class="st3" d="M282.9,351.7l-11.3,5.7c4.3,6.9,10.6,12.3,18.3,15.1c1.4,0.3,2.9,0.4,4.3,0.5c4.4,0.2,8.7-0.5,12.9-2.1
			c9.7-3.6,15.6-8.2,17.9-14c2.9-7,0.5-15.1-3.9-25l-16,7.5l3.8,9.1l-14.9,6.2l-3.5-8.5l-8.5,3.9L282.9,351.7z"/>
		<path class="st4" d="M295.7,375c4.2,0,8.3-0.8,12.3-2.2c10.2-3.8,16.5-8.7,19.1-15.1c3.6-8.9-0.5-19.2-4.7-28.2l-0.1-0.3
			l-17.7,8.3l0.2,0.5l17.3-8l0.3,0.6c4.8,10.5,7.4,19.1,4.3,26.8c-2.5,6.2-8.7,11-18.8,14.8c-4.4,1.6-8.9,2.4-13.5,2.2
			c-10.8-0.5-20.6-6.1-26.2-15.1l-0.2,0.1l-0.3,0.2C273.5,369.1,284,375,295.7,375z"/>
		<path d="M305.2,339.3l16-7.5c4.5,9.9,6.8,18,3.9,25c-2.4,5.8-8.3,10.4-17.9,14c-4.2,1.6-8.5,2.3-12.9,2.1
			c-1.5-0.1-2.9-0.2-4.3-0.5c-8.5-1.5-16-6.5-20.7-13.9l-1.5,0.8l0.2-0.1c5.7,9,15.4,14.7,26.2,15.1c4.6,0.2,9.1-0.5,13.5-2.2
			c10.1-3.7,16.2-8.6,18.8-14.8c3.1-7.7,0.6-16.3-4.3-26.8l-0.3-0.6l-17.3,8l-0.2-0.5l17.7-8.3l0.1,0.3c4.2,9,8.3,19.3,4.7,28.2
			c-2.6,6.3-8.8,11.3-19.1,15.1c-4,1.5-8.1,2.2-12.3,2.2c-11.7,0-22.2-5.8-28.2-15.5l-1.1,0.6l-2.6-5.2l-0.2,0.1l0.7,1.5
			c5.7,12.3,17.7,19.9,31.4,19.9c4.3,0,8.6-0.8,12.7-2.3c10.6-4,17.1-9.1,19.9-15.9c3.9-9.4-0.4-20.1-4.7-29.3l-0.7-1.5l-19,8.8
			L305.2,339.3z"/>
		<polygon class="st4" points="281.2,348.3 281.3,348.6 281.4,348.9 290,344.9 290,344.8 289.8,344.3 		"/>
		<polygon points="281.3,348.6 281.2,348.3 289.8,344.3 290,344.8 289.2,343 280.5,347.1 		"/>
		<polygon points="282.1,350.1 290.5,346.2 290,344.9 281.4,348.9 		"/>
		
			<rect x="257.1" y="310" transform="matrix(0.8922 -0.4516 0.4516 0.8922 -121.8869 154.5692)" class="st3" width="11.7" height="45.3"/>
		<path class="st4" d="M267,358.2l13.9-7.1l-22.2-44l-13.9,7.1L267,358.2z M258.5,307.9l21.7,42.9l-12.9,6.5l-21.7-42.9L258.5,307.9
			z"/>
		<path d="M267.5,359.5l0.3-0.2l1.5-0.8l2.3-1.2l11.3-5.7l-0.8-1.6l-0.6-1.3l-0.2-0.3l-0.7-1.5l-21.2-41.9l-16.5,8.3l18.3,36.1
			l0.7,1.4l0.3,0.6l0.7,1.4l0.9,1.8l2.6,5.2L267.5,359.5z M258.7,307.1l22.2,44l-13.9,7.1l-22.2-44L258.7,307.1z"/>
		<path d="M280.2,350.8l-21.7-42.9l-12.9,6.5l21.7,42.9L280.2,350.8z M257.9,309.8l20.5,40.4l-10.4,5.3l-20.5-40.4L257.9,309.8z"/>
		
			<rect x="286.8" y="304.8" transform="matrix(0.9228 -0.3853 0.3853 0.9228 -103.6639 137.5949)" class="st3" width="9.4" height="45.3"/>
		<path class="st4" d="M288.2,302.2l-12.3,5.1l19,45.5l12.3-5.1L288.2,302.2z M295.1,352l-18.5-44.4l11.3-4.7l18.5,44.4L295.1,352z"
			/>
		<path d="M303.2,334.5l-0.1-0.1l-0.8-1.9l-13.4-32.2l-14.9,6.2l15.2,36.5l0.8,1.8l0,0l0.5,1.3l3.5,8.5l14.9-6.2l-3.8-9.1l-1.3-3.1
			l-0.1-0.3L303.2,334.5z M294.8,352.8l-19-45.5l12.3-5.1l19,45.5L294.8,352.8z"/>
		<path d="M276.6,307.6l18.5,44.4l11.3-4.7l-18.5-44.4L276.6,307.6z M295.9,350.2l-17.5-41.8l8.7-3.6l17.5,41.8L295.9,350.2z"/>
		<path class="st3" d="M186.2,260.5c1.5-4,5.5-13.8,10.2-18.9c-3.1-2.9-27.5-10.4-42.5-10.9l-1,0.6v2.5
			C156.5,236.9,178.5,255.6,186.2,260.5z"/>
		<path class="st4" d="M150.9,234.8L150.9,234.8c0.3,0.2,0.8,0.7,1.7,1.5c13.9,11.8,30.2,25.1,34.3,26.9l0.3,0.1l0.1-0.3
			c0.2-0.5,4.6-13.1,9.8-19.3c0.4-0.4,0.7-0.8,1.1-1.2c0.1-0.1,0.2-0.2,0.3-0.4c0.1-0.3,0.1-0.6,0-0.8c-1.7-4-26.6-11-41.7-12.3
			l-0.8,0.5c15.3,1.1,40.4,8.5,42,11.9l0.2,0.4l-0.3,0.3c-5.1,5.1-9.4,16.3-10.6,19.6l-0.3,0.8l-0.7-0.4c-7.2-4.2-31.7-25-34.5-27.4
			l-0.2-0.2v-2.3l-0.5,0.3l0,0V234.8z"/>
		<path d="M153.3,227.5l5,0.5l-4.4,2.7c15,0.5,39.4,8,42.5,10.9c-4.7,5.1-8.7,14.9-10.2,18.9c-7.7-4.8-29.7-23.5-33.3-26.6v-2.5
			l-1.9,1.2l0.5-0.3v2.3l0.2,0.2c2.8,2.4,27.3,23.2,34.5,27.4l0.7,0.4l0.3-0.8c1.2-3.3,5.5-14.5,10.6-19.6l0.3-0.3l-0.2-0.4
			c-1.6-3.4-26.6-10.9-42-11.9l0.8-0.5c15.1,1.3,40,8.3,41.7,12.3c0.1,0.3,0.1,0.6,0,0.8c-0.1,0.2-0.2,0.3-0.3,0.4
			c-0.3,0.3-0.7,0.7-1.1,1.2c-5.3,6.3-9.6,18.8-9.8,19.3l-0.1,0.3l-0.3-0.1c-4.2-1.8-20.5-15.1-34.3-26.9c-0.9-0.8-1.5-1.3-1.6-1.4
			l-0.1-0.1v-2.2l-1.4,0.9v2l0.6,0.5c0,0,0.1,0.1,0.2,0.2c0.2,0.1,0.4,0.3,0.7,0.6c0.1,0.1,0.3,0.2,0.5,0.4c0.1,0.1,0.2,0.1,0.3,0.2
			c0.3,0.3,0.7,0.6,1.2,1c7.9,6.7,28.4,23.9,33.5,26.2l1.7,0.8l0.6-1.8c0.2-0.5,3.9-11.3,8.6-17.6c0.3-0.4,0.7-0.9,1-1.3
			c0.1-0.1,0.2-0.2,0.2-0.3c0.2-0.2,0.3-0.3,0.5-0.5c0.1-0.1,0.2-0.2,0.3-0.3c0.2-0.2,0.4-0.5,0.6-0.9c0-0.1,0.1-0.2,0.1-0.3
			c0.1-0.5,0.1-1.1-0.1-1.6c-2.5-5.8-36.2-13.7-48.5-13.4c0,0,0,0,0,0C152.4,227.4,153,227.5,153.3,227.5z"/>
		<path class="st5" d="M137.3,266.3c-0.8,0-1.6-0.1-2.4-0.3c1.3,1.7,3.3,2.8,5.6,2.8c3.9,0,7.1-3.2,7.1-7.1c0-1.6-0.6-3.1-1.5-4.3
			c0,0.1,0,0.1,0,0.2C146.1,262.4,142.1,266.3,137.3,266.3z"/>
		<circle class="st2" cx="137.3" cy="257.6" r="5.4"/>
		<path class="st4" d="M137.3,250.2c-4.1,0-7.4,3.3-7.4,7.4c0,3,1.8,5.7,4.6,6.8c0.9,0.4,1.8,0.6,2.8,0.6c4.1,0,7.4-3.3,7.4-7.4
			c0-0.3,0-0.6-0.1-0.9C144.1,253,141,250.2,137.3,250.2z M137.3,264.3c-3.7,0-6.8-3-6.8-6.8c0-3.7,3-6.8,6.8-6.8s6.8,3,6.8,6.8
			C144.1,261.3,141,264.3,137.3,264.3z"/>
		<path d="M131.9,250.6c-2.1,1.6-3.4,4.1-3.4,7c0,3.6,2.1,6.8,5.4,8.1c0.3,0.1,0.6,0.2,0.9,0.3c0.8,0.2,1.6,0.3,2.4,0.3
			c4.8,0,8.8-3.9,8.8-8.8c0-0.1,0-0.1,0-0.2c0-0.3,0-0.6-0.1-1c-0.5-4-3.7-7-7.5-7.6c-0.4-0.1-0.8-0.1-1.2-0.1
			C135.3,248.8,133.4,249.5,131.9,250.6z M144.6,257.6c0,4.1-3.3,7.4-7.4,7.4c-1,0-1.9-0.2-2.8-0.6c-2.8-1.1-4.6-3.8-4.6-6.8
			c0-4.1,3.3-7.4,7.4-7.4c3.7,0,6.8,2.8,7.3,6.4C144.6,257,144.6,257.3,144.6,257.6z"/>
		<path d="M137.3,250.8c-3.7,0-6.8,3-6.8,6.8c0,3.7,3,6.8,6.8,6.8s6.8-3,6.8-6.8C144.1,253.8,141,250.8,137.3,250.8z M137.3,262.9
			c-3,0-5.4-2.4-5.4-5.4c0-3,2.4-5.4,5.4-5.4s5.4,2.4,5.4,5.4C142.7,260.5,140.2,262.9,137.3,262.9z"/>
		<path class="st2" d="M147.8,230.4c-13.3-1.1-47.4-3.5-60.7,1.1c3.4,4.2,11.6,15.4,14,27.6L147.8,230.4z"/>
		<path class="st4" d="M83.9,230.8l0.2,0.3c0,0,0.3,0.3,0.7,0.8c0.3,0.4,0.8,1,1.3,1.6c0.7,0.9,1.4,1.9,2.1,2.9
			c2.3,3.3,4.4,6.6,6.1,9.9c0.3,0.6,0.6,1.2,0.9,1.9c0.5,1,0.9,2,1.3,3c1.6,3.8,2.6,7.5,3,10.9l0.1,0.4l54.3-33.4l-0.8-0.1
			c-0.2,0-0.9-0.1-1.9-0.2c-8.9-0.8-53.7-4.7-67,1.9L83.9,230.8z M85.7,230.6c13.7-5.5,52.8-2.4,64.4-1.4l2.1,0.2l-52.1,32.1l-0.2-1
			c-2.2-13.1-11.7-25.3-14.5-28.8l-0.6-0.7L85.7,230.6z"/>
		<path d="M83.7,232.8c0.1,0.1,0.2,0.3,0.3,0.4c0.1,0.1,0.1,0.1,0.2,0.2c0,0,0,0.1,0.1,0.1c0,0,0.1,0.1,0.1,0.1
			c0.2,0.2,0.4,0.5,0.6,0.7c0.1,0.1,0.2,0.3,0.3,0.4c0.6,0.8,1.2,1.6,1.8,2.4c0,0,0.1,0.1,0.1,0.1c2.1,3,4,6.1,5.6,9.1
			c0.1,0.2,0.2,0.3,0.3,0.5c0.1,0.3,0.3,0.5,0.4,0.8c0.1,0.2,0.2,0.4,0.3,0.5c0.1,0.2,0.2,0.3,0.2,0.5c0.1,0.3,0.2,0.6,0.4,0.9
			c0.3,0.7,0.6,1.3,0.9,2c0,0.1,0.1,0.2,0.1,0.3c1.5,3.6,2.4,7,2.8,10.2l0.3,2.6l15.1-9.3l2.2-1.3l33.8-20.8l1.4-0.9l0,0l1.9-1.2
			l1-0.6l4.4-2.7l-5-0.5c-0.2,0-0.9-0.1-1.9-0.2c0,0,0,0,0,0c-12.6-1.2-54.4-4.6-67.7,2l-2,1l1.5,1.7c0,0,0,0,0.1,0.1
			C83.2,232.2,83.4,232.4,83.7,232.8z M151.2,228.7c1,0.1,1.7,0.2,1.9,0.2l0.8,0.1l-54.3,33.4l-0.1-0.4c-0.4-3.4-1.4-7.1-3-10.9
			c-0.4-1-0.8-2-1.3-3c-0.3-0.6-0.6-1.2-0.9-1.9c-1.7-3.3-3.7-6.6-6.1-9.9c-0.7-1-1.4-2-2.1-2.9c-0.5-0.7-1-1.2-1.3-1.6
			c-0.4-0.5-0.7-0.8-0.7-0.8l-0.2-0.3l0.3-0.2C97.5,224,142.3,227.9,151.2,228.7z"/>
		<path d="M99.9,260.5l0.2,1l52.1-32.1l-2.1-0.2c-11.7-1.1-50.8-4.1-64.4,1.4l-0.9,0.4l0.6,0.7C88.2,235.1,97.7,247.3,99.9,260.5z
			 M147.8,230.4l-46.7,28.8c-2.4-12.2-10.6-23.4-14-27.6C100.5,226.9,134.5,229.3,147.8,230.4z"/>
		<path class="st2" d="M165.1,350.4l-4.3-21.8l4.3-1.2c-1.3-10.5,1.1-21,2.3-31.5c0-0.2,0.1-0.5,0.1-0.7c-0.5,0.1-0.9,0.1-1.3,0.2
			c-0.5,0.1-1,0.1-1.4,0.2c-0.6,0.1-1.1,0.3-1.7,0.4c-1,0.2-2,0.5-3,0.8c-0.3,0.1-0.7,0.2-1,0.3c-0.4,0.1-0.7,0.3-1.1,0.4
			c-0.5,0.2-1.1,0.4-1.6,0.6c-0.8,0.4-1.6,0.8-2.4,1.2c-0.3,0.2-0.6,0.3-0.8,0.5c-0.1,0.1-0.3,0.2-0.4,0.2c-0.4,0.2-0.7,0.5-1.1,0.7
			c-0.7,0.5-1.3,1-2,1.5c-0.7,0.6-1.4,1.2-2.1,1.8c0,0,0,0-0.1,0.1c-0.1,0.1-0.1,0.1-0.2,0.2c-0.4,0.4-0.8,0.8-1.1,1.2
			c-0.2,0.2-0.3,0.3-0.5,0.5l-0.2,0.2l0,0c0,0,0,0,0,0c-0.3,0.3-0.6,0.7-0.8,1c-0.2,0.3-0.5,0.6-0.7,0.9l0,0l-0.2,0.2
			c-0.2,0.3-0.4,0.5-0.5,0.7c-0.3,0.5-0.6,0.9-0.9,1.4c0,0,0,0,0,0l-0.7-0.3l0.6,0.4c-0.5,0.7-0.9,1.5-1.3,2.3l-0.7-0.2l0.6,0.3
			c-0.2,0.4-0.4,0.7-0.5,1.1c-0.1,0.2-0.2,0.5-0.3,0.7c-0.1,0.2-0.2,0.3-0.2,0.5l-0.1,0.4c0,0,0,0,0,0l0,0c-0.1,0.1-0.1,0.3-0.2,0.5
			c-0.1,0.2-0.2,0.5-0.3,0.7c0,0.1-0.1,0.2-0.1,0.3c-0.1,0.3-0.2,0.6-0.3,0.9l-0.1,0.4c0,0,0,0,0,0c0,0,0,0,0,0c0,0,0,0,0,0
			c-0.1,0.2-0.1,0.4-0.2,0.6c-0.2,0.7-0.4,1.3-0.6,2l0,0l-0.1,0.4c-0.3,1-0.5,2-0.6,2.9c-2.3,12.4-0.8,22.3,4.5,29.4
			c5.3,7.1,14.5,11.6,28.1,13.8l-2.2-11.4l8.5-2.4l0.2-6.1L165.1,350.4z"/>
		<path d="M138.1,321.1L138.1,321.1c0.2-0.6,0.4-1.3,0.6-2C138.5,319.8,138.3,320.5,138.1,321.1L138.1,321.1z"/>
		<path d="M138.9,318.5C138.9,318.5,138.9,318.5,138.9,318.5C138.9,318.5,138.9,318.5,138.9,318.5
			C138.9,318.5,138.8,318.5,138.9,318.5C138.8,318.5,138.8,318.5,138.9,318.5z"/>
		<path d="M146.3,305.5c0.4-0.4,0.8-0.8,1.1-1.2C147,304.7,146.7,305.1,146.3,305.5z"/>
		<polygon points="140.5,312.6 141.1,312.9 140.5,312.6 140.5,312.6 		"/>
		<path d="M140.6,314c-0.1,0.2-0.2,0.5-0.3,0.7C140.4,314.5,140.5,314.3,140.6,314z"/>
		<path d="M142.5,310.4c0.3-0.5,0.6-0.9,0.9-1.4C143.1,309.5,142.8,310,142.5,310.4C142.5,310.4,142.5,310.4,142.5,310.4z"/>
		<path d="M139.4,316.8c0,0.1-0.1,0.2-0.1,0.3C139.4,317.1,139.4,316.9,139.4,316.8z"/>
		<path d="M139.9,315.6L139.9,315.6c-0.1,0.1-0.1,0.3-0.2,0.5C139.8,316,139.8,315.8,139.9,315.6z"/>
		<polygon points="145.7,306.2 145.7,306.2 145.7,306.2 145.7,306.2 		"/>
		<path d="M144.1,308.1L144.1,308.1c0.2-0.3,0.5-0.6,0.7-0.9C144.6,307.5,144.4,307.8,144.1,308.1L144.1,308.1z"/>
		<path d="M149.8,302.3c-0.7,0.6-1.4,1.2-2.1,1.8C148.4,303.4,149.1,302.8,149.8,302.3z"/>
		<path d="M163.1,296c-1,0.2-2,0.5-3,0.8C161.1,296.5,162.1,296.2,163.1,296z"/>
		<path d="M159.1,297.1c-0.4,0.1-0.7,0.3-1.1,0.4C158.4,297.4,158.8,297.3,159.1,297.1z"/>
		<path d="M166.2,295.4c-0.5,0.1-1,0.1-1.4,0.2C165.2,295.5,165.7,295.5,166.2,295.4z"/>
		<path d="M153.3,299.9c-0.1,0.1-0.3,0.2-0.4,0.2C153,300,153.1,300,153.3,299.9z"/>
		<path class="st5" d="M167.7,295.1c-0.1,0-0.1,0-0.2,0c0,0.2-0.1,0.5-0.1,0.7c-1.2,10.5-3.6,21-2.3,31.5l12.3-3.5l0.5-14.3h-2.3
			l0.7-14.8l0.2,0C173.5,294.7,170.6,294.8,167.7,295.1z"/>
		<path class="st4" d="M140.8,354.6c-5.6-7.4-7.2-17.6-4.8-30.5c0.2-0.9,0.4-1.9,0.6-2.9l0.1-0.4c0.2-0.9,0.5-1.7,0.8-2.7l0.1-0.4
			c0.3-0.9,0.6-1.7,0.9-2.5l0.2-0.4c0.4-0.9,0.8-1.7,1.1-2.5l0.1-0.1c0.4-0.8,0.9-1.6,1.3-2.4l0.1-0.1c0.4-0.7,0.9-1.4,1.5-2.2
			l0.2-0.2c0.5-0.7,1.1-1.4,1.6-2l0.2-0.2c0.6-0.7,1.2-1.3,1.8-1.9l0.1-0.1c1.3-1.2,2.8-2.4,4.3-3.4c0.7-0.5,1.5-1,2.4-1.4l0.1-0.1
			c0.8-0.4,1.6-0.9,2.5-1.2c3.5-1.6,7.4-2.6,11.6-3.2c3.8-0.5,7.7-0.5,11.7-0.2l0.7,0.1l0,1.1l0.6,0l0.1-1.6l-0.3,0
			c-2-0.2-4-0.3-5.9-0.3c-8.3,0-15.6,1.8-21.8,5.4c-0.9,0.6-1.9,1.2-2.7,1.8c-0.2,0.1-0.4,0.3-0.6,0.4c-7.1,5.4-11.9,13.5-13.8,23.6
			c-0.9,4.6-1.2,8.9-1,12.9c0,0.7,0.1,1.3,0.1,2c0.2,2,0.5,3.8,0.9,5.6c0.2,0.7,0.4,1.4,0.6,2.1c1,3.1,2.4,5.9,4.3,8.4
			c1.9,2.5,4.3,4.8,7.2,6.7c0.6,0.4,1.2,0.8,1.8,1.1c1,0.6,2.1,1.2,3.1,1.7c0.7,0.3,1.3,0.6,2,0.9c4.5,1.9,9.8,3.3,16,4.3l-0.1-0.6
			C156.1,366.8,146.4,362,140.8,354.6z"/>
		<polygon class="st4" points="140.5,312.6 140.5,312.6 140.5,312.6 		"/>
		<path d="M141.9,353.7c-5.3-7-6.8-16.9-4.5-29.4c0.2-0.9,0.4-1.8,0.6-2.9l0.1-0.4l0,0c0.2-0.6,0.4-1.3,0.6-2
			c0.1-0.2,0.1-0.4,0.2-0.6c0,0,0,0,0-0.1l0.1-0.4c0.1-0.3,0.2-0.6,0.3-0.9c0-0.1,0.1-0.2,0.1-0.3c0.1-0.2,0.2-0.5,0.3-0.7
			c0.1-0.2,0.1-0.3,0.2-0.5c0,0,0,0,0,0l0.1-0.4c0.1-0.2,0.2-0.3,0.2-0.5c0.1-0.2,0.2-0.5,0.3-0.7c0.2-0.4,0.4-0.8,0.5-1.1l-0.6-0.3
			l0,0l0,0l0,0l0.7,0.2c0.4-0.8,0.8-1.6,1.3-2.3l-0.6-0.4l0.7,0.3c0.3-0.5,0.6-0.9,0.9-1.4c0.2-0.2,0.3-0.5,0.5-0.7l0.2-0.2l0,0
			c0.2-0.3,0.5-0.6,0.7-0.9c0.3-0.4,0.5-0.7,0.8-1c0,0,0,0,0,0l0,0l0.2-0.2c0.2-0.2,0.3-0.3,0.5-0.5c0.4-0.4,0.7-0.8,1.1-1.2
			c0.1-0.1,0.1-0.1,0.2-0.2c0,0,0,0,0.1-0.1c0.7-0.6,1.3-1.2,2.1-1.8c0.6-0.5,1.3-1,2-1.5c0.3-0.2,0.7-0.5,1.1-0.7
			c0.1-0.1,0.3-0.2,0.4-0.2c0.3-0.2,0.5-0.3,0.8-0.5c0.8-0.4,1.6-0.8,2.4-1.2c0.5-0.2,1-0.4,1.6-0.6c0.4-0.1,0.7-0.3,1.1-0.4
			c0.3-0.1,0.7-0.2,1-0.3c1-0.3,2-0.6,3-0.8c0.6-0.1,1.1-0.3,1.7-0.4c0.5-0.1,1-0.2,1.4-0.2c0.4-0.1,0.9-0.2,1.3-0.2
			c0.1,0,0.1,0,0.2,0c2.8-0.4,5.8-0.5,8.8-0.3l5.3-0.2l0.1-2.8l-1.6-0.2c-10.6-1-19.9,0.6-27.5,4.7c-0.4,0.2-0.7,0.4-1.1,0.6
			c-0.3,0.2-0.6,0.4-1,0.6c-0.2,0.1-0.4,0.3-0.6,0.4c-0.4,0.3-0.9,0.6-1.3,0.9c-0.1,0.1-0.2,0.1-0.3,0.2c-0.1,0.1-0.2,0.2-0.3,0.2
			c-7.4,5.6-12.4,14.1-14.3,24.5c-0.8,4.4-1.2,8.6-1.1,12.5c0,0.2,0,0.4,0,0.7c0,0.7,0.1,1.4,0.1,2c0,0.3,0.1,0.5,0.1,0.8
			c0.2,1.6,0.4,3.2,0.8,4.7c0,0.1,0,0.2,0.1,0.4c0.2,0.8,0.4,1.5,0.6,2.2c0.1,0.3,0.2,0.6,0.3,0.9c1,2.9,2.4,5.6,4.2,7.9
			c1.9,2.5,4.3,4.8,7.2,6.8c0.1,0.1,0.3,0.2,0.4,0.3c0.6,0.4,1.2,0.8,1.8,1.2c0.3,0.2,0.6,0.3,0.8,0.5c0.7,0.4,1.3,0.7,2,1.1
			c0.1,0.1,0.2,0.1,0.4,0.2c0.7,0.3,1.4,0.6,2.1,1c0.4,0.2,0.7,0.3,1.1,0.4c4.5,1.8,9.7,3.1,15.7,4l-0.3-1.5c-6.1-1-11.5-2.4-16-4.3
			c-0.7-0.3-1.4-0.6-2-0.9c-1-0.5-2-1-3.1-1.7c-0.6-0.4-1.2-0.7-1.8-1.1c-2.9-1.9-5.3-4.2-7.2-6.7c-1.8-2.4-3.3-5.3-4.3-8.4
			c-0.2-0.7-0.4-1.4-0.6-2.1c-0.4-1.8-0.7-3.7-0.9-5.6c-0.1-0.6-0.1-1.3-0.1-2c-0.2-4,0.2-8.3,1-12.9c1.9-10.1,6.6-18.3,13.8-23.6
			c0.2-0.1,0.4-0.3,0.6-0.4c0.9-0.6,1.8-1.2,2.7-1.8c6.1-3.6,13.5-5.4,21.8-5.4c1.9,0,3.9,0.1,5.9,0.3l0.3,0l-0.1,1.6l-0.6,0l0-1.1
			l-0.7-0.1c-4-0.3-7.9-0.3-11.7,0.2c-4.2,0.5-8.1,1.6-11.6,3.2c-0.8,0.4-1.7,0.8-2.5,1.2l-0.1,0.1c-0.8,0.5-1.6,0.9-2.4,1.4
			c-1.5,1-3,2.2-4.3,3.4l-0.1,0.1c-0.6,0.6-1.2,1.2-1.8,1.9l-0.2,0.2c-0.6,0.6-1.1,1.3-1.6,2l-0.2,0.2c-0.6,0.8-1,1.5-1.5,2.2
			l-0.1,0.1c-0.5,0.8-0.9,1.6-1.3,2.4l-0.1,0.1c-0.4,0.8-0.8,1.6-1.1,2.5l-0.2,0.4c-0.3,0.8-0.6,1.6-0.9,2.5l-0.1,0.4
			c-0.3,0.9-0.6,1.8-0.8,2.7l-0.1,0.4c-0.3,1.1-0.5,2-0.6,2.9c-2.4,12.9-0.8,23.1,4.8,30.5c5.6,7.5,15.3,12.2,29.5,14.5l-0.3-1.5
			C156.4,365.3,147.2,360.8,141.9,353.7z"/>
		<polygon class="st4" points="178.5,347 177.9,347.2 177.7,353.3 178.3,353.1 		"/>
		<path d="M179.8,349.2l0-0.4l0.1-1.6l0-0.5l-3.4,0.9l-0.2,6.1l3.4-1l0.1-2.1L179.8,349.2z M177.7,353.3l0.2-6.1l0.6-0.1l-0.2,6.1
			L177.7,353.3z"/>
		<polygon class="st4" points="179.4,323.3 179.9,309.6 179.3,309.6 178.8,323.5 		"/>
		<polygon points="180.8,322.9 180.9,320.9 181.1,315.5 181.3,309.6 179.9,309.6 179.4,323.3 178.8,323.5 179.3,309.6 177.9,309.6 
			177.4,323.9 		"/>
		<polygon class="st2" points="213.9,334.6 206.4,319.1 164.7,331 167.8,346.2 		"/>
		<path class="st4" d="M216.8,336l-9.3-19.2l-45.1,12.9l3.8,19.1L216.8,336z M163.1,330l44.1-12.6l8.7,18.2L166.7,348L163.1,330z"/>
		<path d="M177.4,323.9l-12.3,3.5l-4.3,1.2l4.3,21.8l11.4-2.9l3.4-0.9l38.9-9.8L208.3,315l-27.4,7.9L177.4,323.9z M166.2,348.7
			l-3.8-19.1l45.1-12.9l9.3,19.2L166.2,348.7z"/>
		<path d="M207.2,317.4L163.1,330l3.6,18l49.3-12.4L207.2,317.4z M206.4,319.1l7.5,15.5l-46.2,11.6l-3-15.2L206.4,319.1z"/>
		<polygon class="st3" points="179.6,298.1 179.2,306.2 206.2,306.2 204.4,297.3 		"/>
		<path class="st4" d="M177.7,296.2l-0.6,12h0.9h3.4h6.8h5h15.5l-2.6-12.9L177.7,296.2z M207.9,307.6h-30.3l0.5-10.9l27.3-0.9
			L207.9,307.6z"/>
		<path d="M202.2,293.9l-20.3,0.7l-5.3,0.2l-0.2,0l-0.7,14.8h2.3h1.4h0.6h1.4h5.4h2h0.8h2.1h18.7l-2.5-12.6l-0.3-1.5l0-0.1l-0.3-1.6
			l-0.7,0l-0.9,0L202.2,293.9z M206,295.2l2.6,12.9h-15.5h-5h-6.8H178h-0.9l0.6-12L206,295.2z"/>
		<path d="M178.2,296.7l-0.5,10.9h30.3l-2.4-11.8L178.2,296.7z M179.2,306.2l0.4-8.1l24.8-0.8l1.8,8.9H179.2z"/>
		<polygon class="st2" points="171.7,358.5 174,370 213.9,359.9 208,348.3 		"/>
		<path class="st4" d="M209,345.9l-39.6,11.2l3,15.3l44.4-11.2L209,345.9z M172.8,371.7l-2.7-14.2l38.6-10.9l7.2,14.3L172.8,371.7z"
			/>
		<path d="M212.7,350.2L212.7,350.2l-1-2l-2-3.9l-12.3,3.5l-4.5,1.3l-1.8,0.5l-4.5,1.3l-6.8,1.9l-3.4,1l-8.5,2.4l2.2,11.4l0.3,1.5
			l0.1,0.6l0.3,1.5l0.6,3.1l31.6-7.9l1.4-0.4l0.6-0.1l1.4-0.4l12.5-3.1l-5.4-10.6L212.7,350.2z M172.4,372.4l-3-15.3l39.6-11.2
			l7.8,15.4L172.4,372.4z"/>
		<path d="M170.1,357.5l2.7,14.2l43.1-10.8l-7.2-14.3L170.1,357.5z M174,370l-2.2-11.5l36.2-10.3l5.9,11.7L174,370z"/>
		<path class="st5" d="M229.4,240.2c-4.4-6-10.4-15.9-10.5-25.3c0-0.7,0.4-1.3,1-1.6c0.6-0.3,1.3-0.2,1.8,0.3
			c0.7,0.6,17.6,14.8,44.6-0.8c-8.9-0.6-26-3.4-36.8-15.5c-1.4,0.8-2.9,1.6-4.4,2.1c-3.7,1.4-7.6,2.1-11.6,1.9
			c-5.2,0-10.4-1.4-15-3.8c0.1,4.3,0.2,15.6-3.2,18.3c-0.2,0.1-0.4,0.3-0.6,0.4C200.2,223.6,210.5,233.5,229.4,240.2z"/>
		<path class="st4" d="M234.1,243.8c0.2,0,0.3,0,0.3-0.1c0.1-0.1,0.1-0.2,0-0.3c-0.1-0.1-12.2-13.7-13.5-26.4l-0.2-1.5l1.2,0.8
			c5.1,3.4,23.9,12.9,50-4.9c0.1-0.1,0.1-0.2,0.1-0.3c0-0.1-0.2-0.2-0.3-0.2c-0.3,0-26.5,0.8-40.8-14.7c-0.1,0.1-0.2,0.1-0.2,0.2
			c0,0-0.1,0.1-0.1,0.1c0,0-0.1,0.1-0.1,0.1c11.6,12.7,30.4,14.7,38,15l2.3,0.1l-2,1.2c-29,18.1-47.5,2.6-48.2,1.9
			c-0.1-0.1-0.2-0.1-0.3,0c-0.1,0-0.2,0.1-0.2,0.3c0.1,10.5,8.1,21.9,11.6,26.3l1.4,1.8l-2.2-0.7c-20.9-6.9-32.1-17.7-37.9-25.7
			c0,0,0,0,0,0c-0.2,0-0.4,0.1-0.6,0.1c0,0,0,0-0.1,0C198.8,225.5,210.9,236.9,234.1,243.8z"/>
		<path d="M231.7,195.8c-0.2,0.2-0.5,0.4-0.8,0.5c0.1-0.1,0.2-0.1,0.2-0.2c14.3,15.6,40.5,14.7,40.8,14.7c0.1,0,0.2,0.1,0.3,0.2
			c0,0.1,0,0.3-0.1,0.3c-26.1,17.8-44.9,8.2-50,4.9l-1.2-0.8l0.2,1.5c1.3,12.7,13.3,26.3,13.5,26.4c0.1,0.1,0.1,0.2,0,0.3
			c-0.1,0.1-0.1,0.1-0.3,0.1c-23.2-6.9-35.4-18.4-41.6-27.1c0,0,0,0,0.1,0c-0.3,0.1-0.7,0.2-1.1,0.2c-0.1,0-0.3,0.1-0.5,0.1
			c6.2,9,18.6,21,42.7,28.2c0.2,0,0.3,0.1,0.5,0.1c0.6,0,1.1-0.3,1.4-0.8c0.4-0.6,0.3-1.5-0.2-2c-0.1-0.1-10.9-12.3-12.9-24.2
			c6.7,3.9,25.3,11.3,50.3-5.7c0.6-0.4,0.9-1.2,0.7-1.9c-0.2-0.7-0.9-1.2-1.7-1.2c-0.3,0-25.7,0.8-39.6-14.2
			C232.1,195.4,231.9,195.6,231.7,195.8z"/>
		<path d="M231.1,242.3l2.2,0.7l-1.4-1.8c-3.5-4.4-11.5-15.9-11.6-26.3c0-0.1,0.1-0.2,0.2-0.3c0.1,0,0.2,0,0.3,0
			c0.8,0.7,19.2,16.2,48.2-1.9l2-1.2l-2.3-0.1c-7.6-0.3-26.4-2.2-38-15c0,0,0.1-0.1,0.1-0.1c-0.3,0.2-0.5,0.4-0.8,0.5
			c-0.2,0.1-0.3,0.2-0.5,0.3c10.9,12.1,27.9,14.9,36.8,15.5c-27,15.7-43.9,1.5-44.6,0.8c-0.5-0.4-1.2-0.5-1.8-0.3
			c-0.6,0.3-1,0.9-1,1.6c0,9.4,6.1,19.3,10.5,25.3c-18.8-6.7-29.2-16.6-34.7-24.1c-0.3,0.1-0.6,0.2-0.9,0.3c-0.2,0-0.3,0.1-0.5,0.1
			c0,0,0,0,0,0C199,224.6,210.2,235.4,231.1,242.3z"/>
		<path class="st5" d="M62.3,164.3c-1.8-0.6-10.4-3.7-19.6-11.6c-16.9,14.4-28.5,17-35,16.9c4.6,3.5,9.9,6.1,15.4,7.6
			c7.6,2.2,15.8,2.3,23.5,0.5c0.7-0.2,1.4,0.1,1.8,0.7c0.4,0.6,0.4,1.4,0,1.9c-6.7,9.7-20.1,20.8-26.7,26
			c19.8,2.9,36.6-1.3,47.5-5.5C63.4,192.6,62.2,181.5,62.3,164.3z"/>
		<path class="st4" d="M70,202.2c-11.4,4.5-29.2,8.9-50.2,5.5l-1.6-0.3l1.3-1c4.7-3.6,20.5-16.3,27.7-26.8c0.1-0.1,0.1-0.2,0-0.3
			c-0.1-0.1-0.2-0.1-0.3-0.1c-8,1.9-16.3,1.7-24.2-0.5c-6.4-1.8-12.6-5-17.7-9.3l-1.9-1.6l2.4,0.3c5.5,0.7,17.4-0.5,36.1-16.3
			c-0.1-0.1-0.3-0.3-0.4-0.4C15,173.6,2,166.6,1.9,166.5c-0.1-0.1-0.3,0-0.4,0.1c-0.1,0.1-0.1,0.3,0,0.4
			c5.9,5.8,13.2,10.1,21.1,12.3c7.1,2,14.7,2.4,21.9,1.1l1.8-0.3l-1.1,1.5c-9.3,11.9-27.7,25.8-27.9,25.9c-0.1,0.1-0.1,0.2-0.1,0.3
			c0,0.1,0.1,0.2,0.2,0.2c5.6,1.1,11.4,1.6,17.2,1.6c15,0,27.6-3.6,35.8-6.7c0,0,0,0,0,0c0,0-0.1-0.1-0.1-0.1
			C70.3,202.4,70.2,202.3,70,202.2z"/>
		<path d="M71.2,203.5c-0.3-0.3-0.5-0.5-0.8-0.8c0,0,0,0,0,0c-8.2,3.2-20.8,6.7-35.8,6.7c-5.8,0-11.6-0.5-17.2-1.6
			c-0.1,0-0.2-0.1-0.2-0.2c0-0.1,0-0.2,0.1-0.3c0.2-0.1,18.6-14,27.9-25.9l1.1-1.5l-1.8,0.3c-7.3,1.3-14.8,0.9-21.9-1.1
			c-8-2.2-15.3-6.5-21.1-12.3c-0.1-0.1-0.1-0.3,0-0.4c0.1-0.1,0.2-0.1,0.4-0.1c0.1,0.1,13.2,7.1,39.4-15.1c0.1,0.1,0.3,0.3,0.4,0.4
			c-18.6,15.8-30.6,17-36.1,16.3l-2.4-0.3l1.9,1.6c5.2,4.3,11.3,7.5,17.7,9.3c7.9,2.2,16.2,2.4,24.2,0.5c0.1,0,0.2,0,0.3,0.1
			c0.1,0.1,0.1,0.2,0,0.3c-7.3,10.5-23.1,23.1-27.7,26.8l-1.3,1l1.6,0.3c21,3.4,38.8-1.1,50.2-5.5c0.1,0.1,0.2,0.3,0.3,0.4
			c-0.2-0.3-0.5-0.5-0.7-0.8c-0.1-0.1-0.1-0.2-0.2-0.2c-0.1-0.2-0.2-0.4-0.4-0.6c-10.9,4.2-27.7,8.4-47.5,5.5
			c6.6-5.2,20-16.4,26.7-26c0.4-0.6,0.4-1.3,0-1.9c-0.4-0.6-1.1-0.9-1.8-0.7c-7.7,1.8-15.8,1.6-23.5-0.5c-5.5-1.6-10.8-4.2-15.4-7.6
			c6.5,0.1,18.1-2.6,35-16.9c-0.2-0.1-0.3-0.3-0.5-0.4c-0.5-0.4-1-0.9-1.5-1.4l-0.1-0.1c-0.1-0.1-0.3-0.3-0.4-0.4
			c-25.1,21.2-37.5,14.9-37.6,14.8c-0.7-0.4-1.7-0.3-2.2,0.4c-0.5,0.7-0.5,1.6,0.1,2.2c6,6,13.5,10.4,21.7,12.7
			c6.7,1.9,13.8,2.4,20.7,1.4c-9.5,11.4-26.3,24.1-26.4,24.2c-0.5,0.4-0.8,1.1-0.6,1.7c0.2,0.7,0.7,1.2,1.3,1.3
			c5.7,1.1,11.6,1.6,17.4,1.6c15.6,0,28.6-3.8,36.9-7.1C71.5,203.7,71.3,203.6,71.2,203.5z"/>
		<path class="st2" d="M168.3,131.1C168.3,131.1,168.3,131.1,168.3,131.1c-6.3,2.6-13.2,4.4-20.3,5.1c0,0,0,0,0,0
			C155.2,135.5,162,133.8,168.3,131.1z"/>
		<path class="st2" d="M145.2,138.4l-1.5,5c0,0-29.7-7.5-30.4-8l2-6.4c0,0,0,0,0,0c-0.2-0.1-0.2-0.1-0.3-0.2
			c-0.6-0.4-0.9-1.2-0.6-1.9l4.6-14.4c0.2-0.8,1-1.2,1.8-1.2l4.8,0.6c-16.4-32.4-14-49.6-11.7-56.3c-0.4,0-0.8,0-1.2,0
			c-7.9,0.6-27.2,3.3-35.4,15.7c0,0.1-5.1,8.7-8.3,28.1c-0.6,4-1.1,8.4-1.6,13.2l35.9-4.1c0.6-0.1,1.1,0.2,1.5,0.6
			c0.4,0.4,0.5,1,0.3,1.6l-5.2,17.2c-0.1,0.2-0.2,0.4-0.4,0.6c-0.2,0.3-0.5,0.4-0.8,0.5l-1.2,3.8c0,0-29.2,3.6-29.9,3.3l0.1-4.7
			l-1.3,0.1c-0.1,3.7-0.2,7.3-0.3,10.7c-0.8,31.4-1.3,47.1,6.2,57.3c6.1,8.3,27.8,13.9,61,15.6c7.6,0.4,18.3,0.5,29.5,0.3
			c0.2,0,0.4,0,0.5,0c6.4-9,10.6-19.3,12.2-30.2c0.1-1.5,0.1-3.1,0.2-4.6c0.2-9.6-0.6-19.4-2.4-29.2c-0.1,0-0.2,0-0.2,0l-0.1,0
			c-10.2-1.8-19.3-6-27.2-12.5l0,0L145.2,138.4z M90.7,162.5c0,0.9-0.8,1.7-1.7,1.7c-0.5,0-0.9-0.2-1.2-0.5
			c-0.3-0.3-0.5-0.8-0.5-1.2l0.7-23.3c0-0.5,0.2-0.9,0.6-1.2c0.3-0.3,0.8-0.4,1.2-0.4c0.4,0,0.9,0.2,1.2,0.5
			c0.3,0.3,0.5,0.8,0.5,1.2L90.7,162.5z M124.1,142.1c0-0.9,0.8-1.6,1.7-1.6c0,0,0,0,0,0c1,0,1.7,0.8,1.7,1.8l-1,23.7
			c0,0.9-0.8,1.6-1.7,1.6l-0.1,0c-0.9,0-1.7-0.8-1.6-1.8L124.1,142.1z M123,197.8c-2.2,0.8-4.3,1.2-6.5,1.2
			c-11.7,0-18.2-12.1-18.3-12.2c-0.2-0.5-0.3-1,0-1.5c0.2-0.5,0.7-0.8,1.2-0.9l35.7-7.9c0.5-0.1,1,0,1.4,0.3l0,0
			c0.4,0.3,0.6,0.7,0.7,1.2C137.3,178,138.7,192.1,123,197.8z"/>
		<path class="st5" d="M175.7,180.6c0,1.5-0.1,3.1-0.2,4.6c-1.5,10.9-5.7,21.3-12.2,30.2c18.1-0.4,28.7-1.5,29.8-2.3
			c1.3-1.1,2.2-8.6,1.9-16.2c0-0.1,0-0.2,0-0.2l0.2-2.2c0.1-0.6,0.4-1.1,1-1.4c0.5-0.3,1.2-0.2,1.7,0.1c4.6,3,10,4.7,15.6,4.7
			c3.6,0.1,7-0.4,10.3-1.7c3.3-1.3,6.3-3.1,8.8-5.6c2.5-2.4,4.5-5.3,5.9-8.6c1.4-3.2,2-6.7,2-10.2c0.1-3.6-0.5-7.1-1.8-10.4
			c-1.3-3.3-3.2-6.3-5.6-8.8c-2.5-2.6-5.4-4.6-8.6-6c-2.2-1-4.6-1.6-7-1.9c-5.1-0.2-10.2,1.7-15.3,5.4c-0.2,0.1-0.3,0.2-0.5,0.3
			c-0.5,0.1-12.1,3.5-26.9,1.2c-0.4-0.1-0.9-0.1-1.4-0.2C175.1,161.1,175.9,170.9,175.7,180.6z"/>
		<path class="st5" d="M194.1,106.5L194.1,106.5c-5.1,11.6-14.5,19.7-25.8,24.5c0,0,0,0,0,0.1C179.7,126.3,189,118.2,194.1,106.5z"
			/>
		<path class="st4" d="M70.7,200.7l0.2,0.2c0.4,0.5,0.9,1.1,1.4,1.6c10.1,10,38.7,13.5,61,14.7c4.2,0.2,10.5,0.3,17.5,0.3
			c13.8,0,32.6-0.5,40.5-1.9c0.8-0.2,1.5-0.3,2.1-0.5c0.7-0.2,1-0.4,1.1-0.5c2.4-1.9,2.9-10.8,2.6-17.8l0-0.1l0.2-1.7l0.9,0.6
			c4.6,2.7,9.9,4.2,15.3,4.2c3.8,0.1,7.5-0.5,11.1-1.8c1.6-0.6,3.2-1.4,4.7-2.3c0.6-0.4,1.1-0.7,1.6-1.1c1.1-0.8,2.2-1.7,3.1-2.6
			c2.7-2.6,4.9-5.7,6.3-9.2c1.5-3.5,2.2-7.2,2.2-10.9c0.1-3.8-0.5-7.6-1.9-11.1c-1.4-3.6-3.4-6.8-6.1-9.5c-0.8-0.8-1.6-1.6-2.5-2.3
			c-0.1,0.1-0.1,0.1-0.2,0.2c-0.1,0.1-0.1,0.1-0.2,0.2c0.9,0.7,1.7,1.5,2.5,2.3c2.6,2.7,4.6,5.8,5.9,9.3c1.3,3.5,2,7.2,1.9,10.9
			c0,3.7-0.7,7.3-2.1,10.7c-1.4,3.4-3.5,6.5-6.2,9c-2.7,2.6-5.8,4.6-9.3,5.9c-3.5,1.3-7.1,1.9-10.9,1.8c-5.8,0-11.5-1.8-16.3-4.9
			c-0.1-0.1-0.2-0.1-0.3,0c-0.1,0-0.2,0.1-0.2,0.2l-0.2,2.2c0.2,4.2,0.1,15.4-2.4,17.4c-2.4,1.9-24.5,2.5-31.2,2.7
			c-11.2,0.2-22,0.1-29.6-0.3c-33.7-1.8-55.8-7.5-62.1-16.2c-5.7-7.8-7-18.5-6.9-36.3c0,0-0.1,0.1-0.1,0.1c-0.1,0.1-0.3,0.2-0.4,0.2
			C63.6,181.7,64.8,192.6,70.7,200.7z"/>
		<path d="M71.1,200.4c6.3,8.7,28.4,14.4,62.1,16.2c7.6,0.4,18.4,0.5,29.6,0.3c6.7-0.1,28.8-0.8,31.2-2.7c2.5-2,2.6-13.2,2.4-17.4
			l0.2-2.2c0-0.1,0.1-0.2,0.2-0.2c0.1,0,0.2,0,0.3,0c4.9,3.2,10.5,4.9,16.3,4.9c3.7,0.1,7.4-0.5,10.9-1.8c3.5-1.3,6.6-3.3,9.3-5.9
			c2.7-2.6,4.8-5.6,6.2-9c1.4-3.4,2.1-7,2.1-10.7c0.1-3.8-0.5-7.4-1.9-10.9c-1.3-3.5-3.3-6.6-5.9-9.3c-0.8-0.8-1.6-1.6-2.5-2.3
			c0.1-0.1,0.2-0.1,0.2-0.2c-0.6,0.6-1.7,0.7-2.3,0.1c-0.2-0.2-4.8-4.3-12-4.5c0,0,0,0,0,0c2.4,0.3,4.8,1,7,1.9
			c3.3,1.4,6.2,3.4,8.6,6c2.5,2.6,4.4,5.5,5.6,8.8c1.3,3.3,1.9,6.8,1.8,10.4c0,3.5-0.6,6.9-2,10.2c-1.4,3.2-3.3,6.1-5.9,8.6
			c-2.5,2.4-5.5,4.3-8.8,5.6c-3.3,1.3-6.8,1.8-10.3,1.7c-5.6,0-11-1.7-15.6-4.7c-0.5-0.3-1.1-0.4-1.7-0.1c-0.5,0.3-0.9,0.8-1,1.4
			l-0.2,2.2c0,0.1,0,0.2,0,0.2c0.3,7.6-0.6,15.1-1.9,16.2c-1.1,0.9-11.6,1.9-29.8,2.3c-0.2,0-0.3,0-0.5,0
			c-11.1,0.2-21.9,0.1-29.5-0.3c-33.3-1.7-55-7.3-61-15.6c-7.4-10.2-7-25.9-6.2-57.3c0.1-3.4,0.2-7,0.3-10.7l-0.5,0
			c-1,17.2-1.1,31.1-1.1,31.2c0,0.5-0.3,1-0.7,1.4c0,0,0.1-0.1,0.1-0.1C64.2,181.9,65.4,192.6,71.1,200.4z"/>
		<path d="M232.4,148.5l-0.2,0.2c-0.1,0.2-0.3,0.3-0.4,0.5c0.1-0.1,0.1-0.1,0.2-0.2c0.9,0.7,1.7,1.5,2.5,2.3
			c2.6,2.7,4.7,5.9,6.1,9.5c1.4,3.6,2,7.3,1.9,11.1c0,3.8-0.7,7.4-2.2,10.9c-1.5,3.5-3.6,6.6-6.3,9.2c-1,0.9-2,1.8-3.1,2.6
			c-0.5,0.4-1,0.7-1.6,1.1c-1.5,0.9-3.1,1.7-4.7,2.3c-3.5,1.4-7.3,2-11.1,1.8c-5.4,0-10.7-1.5-15.3-4.2l-0.9-0.6l-0.2,1.7l0,0.1
			c0.3,7-0.2,15.8-2.6,17.8c-0.1,0.1-0.4,0.3-1.1,0.5c-0.5,0.2-1.2,0.3-2.1,0.5c-7.9,1.4-26.7,1.9-40.5,1.9c-7,0-13.4-0.1-17.5-0.3
			c-22.3-1.2-50.9-4.7-61-14.7c-0.5-0.5-1-1-1.4-1.6l-0.2-0.2c-5.9-8.1-7.1-19-7-36.3c0.2-0.1,0.3-0.1,0.4-0.2
			c-0.3,0.2-0.6,0.3-1,0.3l-0.2,0c-0.1,0-0.2,0-0.3,0l0,0c0,0-0.2-0.1-0.3-0.1c-0.1,17.2,1.1,28.3,6.9,36.7c0.1,0.2,0.2,0.4,0.4,0.6
			c0,0,0.1,0.1,0.2,0.2c0.2,0.3,0.4,0.5,0.7,0.8c0,0,0.1,0.1,0.1,0.1c0.2,0.3,0.5,0.6,0.8,0.8c0.1,0.1,0.2,0.2,0.3,0.3
			c10.7,10.1,39.3,13.6,61.6,14.8c4.2,0.2,10.6,0.3,17.6,0.3c13.6,0,32.1-0.5,40.3-1.9c0.2,0,0.3-0.1,0.5-0.1
			c0.4-0.1,0.8-0.2,1.1-0.2c0.2,0,0.4-0.1,0.6-0.1c0.2,0,0.3-0.1,0.5-0.1c0.4-0.1,0.7-0.2,0.9-0.3c0.3-0.1,0.5-0.2,0.6-0.4
			c3.3-2.7,3.3-14,3.2-18.3c4.6,2.5,9.8,3.8,15,3.8c4,0.2,7.9-0.5,11.6-1.9c1.5-0.6,3-1.3,4.4-2.1c0.2-0.1,0.3-0.2,0.5-0.3
			c0.3-0.2,0.6-0.4,0.8-0.5c0,0,0.1-0.1,0.1-0.1c0.3-0.2,0.5-0.3,0.8-0.5c0.2-0.2,0.4-0.3,0.6-0.5c0.9-0.7,1.8-1.5,2.7-2.3
			c2.9-2.8,5.1-6,6.6-9.7c1.5-3.7,2.3-7.5,2.3-11.5c0.1-4-0.6-7.9-2-11.6c-1.4-3.7-3.6-7.1-6.4-10c-0.8-0.8-1.6-1.6-2.5-2.3
			C232.8,148.1,232.6,148.3,232.4,148.5z"/>
		<path d="M194.5,105.6c0.4-0.9,0.7-1.8,1-2.8c0.1-0.3,0.2-0.6,0.3-0.9l0,0c-0.1,0.3-0.2,0.6-0.3,0.9
			C195.2,103.8,194.9,104.7,194.5,105.6c-0.1,0.3-0.3,0.6-0.4,0.9l0,0C194.2,106.2,194.4,105.9,194.5,105.6z"/>
		<path d="M75.5,74.1L75.5,74.1c-2.6,5-4.8,13.5-6.5,25.4c0,0,0,0,0,0c3.2-19.4,8.3-28,8.3-28.1c8.2-12.4,27.5-15.1,35.4-15.7
			c0.4,0,0.8,0,1.2,0c0,0,0-0.1,0-0.1C105.9,55.7,83.9,57.7,75.5,74.1z"/>
		<path class="st4" d="M89.9,138.9c0,0-0.1-0.1-0.2-0.1l0,0c0,0,0,0,0,0c0,0-0.1,0-0.1,0.1c-0.1,0.1-0.1,0.1-0.1,0.2l-0.7,23.3
			c0,0.1,0,0.2,0.1,0.2c0,0,0.1,0.1,0.2,0.1c0.2,0,0.3-0.1,0.3-0.3l0.7-23.3C90,139,89.9,139,89.9,138.9z"/>
		<path d="M89.7,137.4c-0.4,0-0.9,0.1-1.2,0.4c-0.4,0.3-0.6,0.8-0.6,1.2l-0.7,23.3c0,0.5,0.2,0.9,0.5,1.2c0.3,0.3,0.7,0.5,1.2,0.5
			c0.9,0,1.7-0.7,1.7-1.7l0.7-23.3c0-0.5-0.2-0.9-0.5-1.2C90.6,137.6,90.2,137.4,89.7,137.4z M89,162.7c-0.1,0-0.2-0.1-0.2-0.1
			c0,0-0.1-0.1-0.1-0.2l0.7-23.3c0-0.1,0-0.2,0.1-0.2c0,0,0.1-0.1,0.1-0.1c0,0,0,0,0,0l0,0c0.1,0,0.2,0.1,0.2,0.1
			c0,0,0.1,0.1,0.1,0.2l-0.7,23.3C89.3,162.6,89.2,162.7,89,162.7z"/>
		<path class="st4" d="M124.8,166.1l0,0.6l0,0.1L124.8,166.1c0.2,0,0.3-0.1,0.3-0.3l1-23.7c0-0.2-0.1-0.3-0.3-0.3h0
			c-0.1,0-0.3,0.1-0.3,0.3l-1,23.7C124.5,165.9,124.6,166.1,124.8,166.1z"/>
		<path d="M124.7,167.5L124.7,167.5c1,0,1.7-0.7,1.8-1.6l1-23.7c0-0.9-0.7-1.7-1.7-1.8c0,0,0,0,0,0c-0.9,0-1.7,0.7-1.7,1.6l-1,23.7
			C123,166.7,123.8,167.5,124.7,167.5z M125.8,141.9L125.8,141.9c0.2,0,0.3,0.1,0.3,0.3l-1,23.7c0,0.2-0.1,0.3-0.3,0.3l0,0.7l0-0.1
			l0-0.6c-0.2,0-0.3-0.1-0.3-0.3l1-23.7C125.5,142,125.7,141.9,125.8,141.9z"/>
		<path class="st4" d="M116.6,197.5c1.4,0,2.8-0.2,4.2-0.6l-0.1-0.4c-0.5-3,0-6,1.3-8.8c1.3-2.7,3.4-5,6-6.5c2.4-1.1,5-1.5,7.6-1.1
			l0.2,0c0.1-1.3,0-2.1,0-2.1c0-0.1-0.1-0.2-0.1-0.2c0,0-0.1-0.1-0.2-0.1c0,0,0,0-0.1,0l-35.7,7.9c-0.1,0-0.2,0.1-0.2,0.2
			c0,0.1,0,0.2,0,0.3C99.6,186.2,105.8,197.5,116.6,197.5z"/>
		<path d="M136.5,176.6L136.5,176.6c-0.4-0.3-0.9-0.4-1.4-0.3l-35.7,7.9c-0.5,0.1-1,0.5-1.2,0.9c-0.2,0.5-0.2,1,0,1.5
			c0.1,0.1,6.6,12.2,18.3,12.2c2.1,0,4.3-0.4,6.5-1.2c15.7-5.7,14.2-19.8,14.2-19.9C137.2,177.4,136.9,176.9,136.5,176.6z
			 M122.5,196.1c-0.4,0.1-0.7,0.3-1,0.3c-0.5-2.9,0-5.8,1.2-8.4c1.2-2.6,3.2-4.8,5.8-6.2c2.2-1,4.7-1.4,7.1-1
			c-0.4,3.6-1.9,6.9-4.2,9.6C129,193.2,125.9,195.1,122.5,196.1z M99.6,185.8c0-0.1,0.1-0.1,0.2-0.2l35.7-7.9c0,0,0,0,0.1,0
			c0.1,0,0.1,0,0.2,0.1c0.1,0,0.1,0.1,0.1,0.2c0,0,0.1,0.8,0,2.1l-0.2,0c-2.6-0.4-5.2,0-7.6,1.1c-2.6,1.5-4.7,3.8-6,6.5
			c-1.3,2.7-1.7,5.8-1.3,8.8l0.1,0.4c-1.4,0.4-2.8,0.6-4.2,0.6c-10.8,0-16.9-11.4-17-11.5C99.5,186,99.5,185.9,99.6,185.8z"/>
		<path class="st5" d="M128.4,181.8c-2.5,1.5-4.5,3.6-5.8,6.2c-1.2,2.6-1.7,5.5-1.2,8.4c0.4,0,0.7-0.2,1-0.3c3.4-1,6.5-3,8.8-5.7
			c2.3-2.7,3.8-6.1,4.2-9.6C133.1,180.4,130.6,180.8,128.4,181.8z"/>
		<path class="st5" d="M195.5,102.9c-0.3,0.9-0.7,1.9-1,2.8c-0.1,0.3-0.3,0.6-0.4,0.9c-5.1,11.6-14.4,19.7-25.8,24.6
			c-6.3,2.7-13.2,4.4-20.3,5.2c22.4,18,48.7,11.8,52.3,10.9c14.4-10.5,26.1-4.3,30.1-1.5c31-33-0.8-92.4-1.1-93
			c-0.2-0.3-0.2-0.6-0.2-1c0.7-7.5,14.4-18.3,21.4-23.5c-12.6-3.3-32.2,9.3-32.4,9.4c-0.4,0.3-0.9,0.3-1.4,0.2
			c-0.5-0.1-0.9-0.5-1.1-1C211.8,28,200.9,15,193.2,8.7c3.5,7,6.8,18.5,7.3,19.6c0.3,0.7,0,1.6-0.7,2c-0.7,0.4-1.6,0.3-2.1-0.2
			c-5.4-5.5-11-9.8-17.1-13.3C195.1,41,200.9,69.4,197,97.4c-0.3,1.6-0.8,3.1-1.2,4.6C195.7,102.3,195.6,102.6,195.5,102.9z"/>
		<path class="st2" d="M116.6,52.1c0.6,0,1.1,0.4,1.4,0.9c0.3,0.5,0.2,1.2-0.1,1.7c-0.1,0.2-9.6,16.8,11.6,57.7l22.6,2.7
			c0.5,0.1,0.9,0.3,1.2,0.8c0.3,0.4,0.4,0.9,0.2,1.4l-5.6,18.6c0,0.1-0.1,0.2-0.1,0.3c0.1,0,0.1,0.1,0.2,0.1
			c7.1-0.8,14-2.5,20.2-5.2c11.3-4.9,20.7-13,25.8-24.6c0.1-0.3,0.3-0.6,0.4-0.9c0.4-0.9,0.7-1.8,1-2.8c0.1-0.3,0.2-0.6,0.3-0.9
			c0.5-1.5,0.9-3,1.3-4.6c3.9-28-1.9-56.4-16.5-80.5c-0.4-0.2-0.7-0.4-1.1-0.6c-21.3-11.6-48.8-12.3-89.1-2
			C61.6,21.5,44.9,42.7,36,59.1c-9.5,17.5-12.6,33.7-12.7,34.4c-1.4,28.2,9.6,45.1,19.1,54.3c7.5,7.3,15.3,11,19,12.5
			c0.1-5,0.3-15.8,1-28.6c-1.2,0.1-2,0.1-2.5,0.1c-0.6,0-0.8,0-0.9-0.1c-0.7-0.3-1.1-1-1.1-1.7l1.2-15.1c0.1-0.8,0.7-1.5,1.5-1.6
			l3.3-0.4c1.9-19.7,4.8-33.3,8.5-40.5C83.8,50.6,115.3,52,116.6,52.1z"/>
		<path class="st4" d="M63.9,131.7c-0.8,13.8-1,25.3-1,29.7l0,1l-0.9-0.4c-3.4-1.3-12.1-5.1-20.5-13.2c-9.7-9.4-21-26.6-19.5-55.5
			c0.1-0.8,3.2-17.2,12.9-34.9c9.1-16.7,26.1-38.1,55.3-45.6c40.7-10.4,68.5-9.7,90.1,2.1c6.7,3.6,12.7,8.3,18.5,14.2
			c0.1,0.1,0.2,0.1,0.4,0c0.1-0.1,0.2-0.2,0.1-0.3c-0.5-1.2-4.7-15.2-8.8-22.5l-1.7-3.1l2.8,2.2c7.6,6,21.1,20.6,25.5,30.9
			c0,0.1,0.1,0.1,0.2,0.2c0.1,0,0.2,0,0.2,0c0.2-0.1,21.9-14,35-9.1l1.2,0.5l-1.1,0.8c-10.2,7.3-21.4,17.3-22,23.3
			c0,0.1,0,0.1,0,0.2c0.3,0.6,32.9,61.5,0.5,95.1l-0.4,0.4l-0.5-0.4c-3.2-2.4-14.7-9.3-29,1.2l-0.2,0.1c-3.1,0.8-30.9,7.6-54.1-11.5
			c-0.1,0-0.1,0-0.2,0c0,0-0.1,0-0.1,0c0,0,0,0,0,0c0,0,0,0,0,0l-0.1,0.3c7.8,6.5,16.9,10.7,27.1,12.5l0.1,0c0.5,0.1,1,0.2,1.5,0.3
			c14.6,2.2,25.8-1,26.3-1.2c5.4-4,10.9-5.9,16.3-5.8c7.6,0.2,12.4,4.4,12.9,4.9c0.1,0.1,0.3,0.1,0.4,0c0.1-0.1,0.3-0.3,0.4-0.4
			l0.2-0.2c13.5-14,17.8-34.9,12.3-60.4c-3.8-17.9-11.1-32.3-12.5-35.1l-0.1-0.2l0-0.2c1.3-8.5,22.9-23.4,23.1-23.5
			c0.1-0.1,0.1-0.2,0.1-0.2c0-0.1-0.1-0.2-0.2-0.2C242.3,21.3,222,33,218,35.4l-0.7,0.4l-0.3-0.7c-6.8-14.2-29-33-29.9-33.6
			c-0.1-0.1-0.3-0.1-0.4,0c-0.1,0.1-0.1,0.3,0,0.4c3.2,3.5,7.7,16.9,10.2,22.8l1.2,3l-2.4-2.2c-24.3-22.3-55-26.2-105.8-13.2
			c-29.5,7.5-46.6,29.1-55.7,45.9c-9.9,18.2-12.9,34.9-12.9,35c-1.5,29.2,9.9,46.6,19.8,56.1l0.7,0.6c0.5,0.5,1,0.9,1.5,1.3
			c9.8,8.6,19.2,11.6,19.8,11.8l0.2,0c0,0,0.1,0,0.1-0.1c0.1-0.1,0.1-0.1,0.1-0.2c0-0.1,0.1-14,1.1-31.1c-0.1,0-0.2,0-0.2,0
			c0,0-0.1,0-0.1,0C64,131.7,64,131.7,63.9,131.7z"/>
		<path d="M40.8,151c0.5,0.5,1,0.9,1.5,1.4c0.2,0.1,0.3,0.3,0.5,0.4c9.1,7.9,17.8,11,19.6,11.6c0.2,0.1,0.3,0.1,0.3,0.1l0,0
			c0.1,0,0.2,0,0.3,0l0.2,0c0.4,0,0.7-0.1,1-0.3c0.4-0.3,0.7-0.8,0.7-1.4c0-0.1,0.1-14.1,1.1-31.2l-0.6,0c-0.4,0-0.7,0-1,0.1
			c0.1,0,0.2,0,0.2,0c-1,17.1-1.1,31-1.1,31.1c0,0.1,0,0.2-0.1,0.2c0,0-0.1,0.1-0.1,0.1l-0.2,0c-0.7-0.2-10-3.2-19.8-11.8
			c-0.5-0.4-1-0.9-1.5-1.3l-0.7-0.6c-9.8-9.5-21.3-26.9-19.8-56.1c0-0.2,3-16.9,12.9-35c9.1-16.8,26.2-38.4,55.7-45.9
			c50.9-12.9,81.5-9.1,105.8,13.2l2.4,2.2l-1.2-3c-2.4-5.9-7-19.3-10.2-22.8c-0.1-0.1-0.1-0.3,0-0.4c0.1-0.1,0.3-0.1,0.4,0
			c0.9,0.7,23.1,19.5,29.9,33.6l0.3,0.7l0.7-0.4c4-2.4,24.3-14.1,36.2-7.8c0.1,0,0.1,0.1,0.2,0.2c0,0.1,0,0.2-0.1,0.2
			c-0.2,0.1-21.8,15-23.1,23.5l0,0.2l0.1,0.2c1.4,2.7,8.7,17.1,12.5,35.1c5.4,25.5,1.2,46.4-12.3,60.4l-0.2,0.2
			c-0.1,0.1-0.3,0.3-0.4,0.4c-0.1,0.1-0.3,0.1-0.4,0c-0.5-0.5-5.3-4.7-12.9-4.9c-5.4-0.2-10.9,1.8-16.3,5.8
			c-0.5,0.1-11.8,3.4-26.3,1.2c-0.5-0.1-1-0.2-1.5-0.3l-0.1,0c-10.1-1.8-19.2-6.1-27.1-12.5l0.1-0.3c0,0,0,0,0,0c0,0,0,0,0,0
			l-0.5,1.8c7.9,6.4,17.1,10.6,27.2,12.5l0.1,0c0.1,0,0.2,0,0.2,0c0,0,0,0,0,0c0.5,0.1,0.9,0.2,1.4,0.2c14.9,2.3,26.5-1.1,26.9-1.2
			c0.2-0.1,0.4-0.1,0.5-0.3c5.1-3.8,10.2-5.6,15.3-5.4c0,0,0,0,0,0c7.2,0.2,11.8,4.3,12,4.5c0.7,0.6,1.7,0.6,2.3-0.1
			c0.2-0.1,0.3-0.3,0.4-0.5l0.2-0.2c0.2-0.2,0.3-0.4,0.5-0.6c13.4-14.3,17.6-35.4,12.2-61.1c-3.8-17.7-10.9-32-12.6-35.2
			c1.2-5.9,14.4-16.8,22.5-22.4c0.5-0.3,0.8-0.9,0.7-1.5c0-0.6-0.4-1.1-0.9-1.4c-11.8-6.2-30.5,3.6-37,7.5
			c-7.3-14.3-29.1-32.8-30-33.5c-0.7-0.5-1.7-0.4-2.3,0.3c-0.6,0.7-0.6,1.6,0,2.3c2.6,2.8,6.2,13.7,8.7,19.6
			C170,1.5,139.4-1.7,89.6,10.9c-30,7.6-47.3,29.6-56.6,46.6C23,75.9,19.9,92.8,19.9,93c0,0.1,0,0.1,0,0.2
			c-1.5,29.7,10.1,47.5,20.2,57.2c0,0,0.1,0.1,0.1,0.1c0.1,0.1,0.3,0.3,0.4,0.4L40.8,151z"/>
		<path d="M42.4,147.9c-9.5-9.2-20.5-26.1-19.1-54.3c0.1-0.7,3.2-16.9,12.7-34.4c9-16.4,25.7-37.6,54.4-44.9
			c40.3-10.3,67.8-9.6,89.1,2c0.4,0.2,0.7,0.4,1.1,0.6c6.1,3.5,11.7,7.8,17.1,13.3c0.6,0.6,1.5,0.7,2.1,0.2c0.7-0.4,1-1.3,0.7-2
			c-0.4-1.1-3.7-12.6-7.3-19.6c7.7,6.3,18.6,19.3,22.4,28.2c0.2,0.5,0.6,0.8,1.1,1c0.5,0.1,1,0.1,1.4-0.2
			c0.2-0.1,19.9-12.7,32.4-9.4c-7,5.1-20.7,16-21.4,23.5c0,0.3,0,0.7,0.2,1c0.3,0.6,32.1,60,1.1,93c-4-2.8-15.7-9-30.1,1.5
			c-3.6,0.9-29.9,7.1-52.3-10.9c0,0,0,0,0,0c-0.1,0-0.1-0.1-0.2-0.1c-0.1,0.3-0.4,0.5-0.7,0.7c-0.2,0.1-0.5,0.2-0.7,0.2
			c0.1,0,0.1,0,0.2,0c23.3,19.1,51,12.3,54.1,11.5l0.2-0.1c14.3-10.5,25.8-3.6,29-1.2l0.5,0.4l0.4-0.4c32.4-33.6-0.1-94.5-0.5-95.1
			c0-0.1,0-0.1,0-0.2c0.6-6,11.7-15.9,22-23.3l1.1-0.8l-1.2-0.5c-13.1-4.9-34.8,9-35,9.1c-0.1,0-0.2,0.1-0.2,0
			c-0.1,0-0.1-0.1-0.2-0.2c-4.4-10.3-17.9-24.9-25.5-30.9l-2.8-2.2l1.7,3.1c4,7.2,8.3,21.2,8.8,22.5c0,0.1,0,0.3-0.1,0.3
			c-0.1,0.1-0.3,0.1-0.4,0c-5.8-5.9-11.9-10.5-18.5-14.2c-21.6-11.8-49.4-12.5-90.1-2.1c-29.3,7.4-46.2,28.9-55.3,45.6
			C25.1,76.2,22,92.6,21.9,93.4c-1.5,28.9,9.8,46.1,19.5,55.5c8.4,8.1,17.1,11.9,20.5,13.2l0.9,0.4l0-1c0-4.4,0.2-15.9,1-29.7
			c0.1,0,0.2,0,0.3,0c-0.3,0-0.6,0-0.9,0.1c-0.3,0-0.5,0-0.8,0c-0.7,12.8-1,23.6-1,28.6C57.7,158.9,49.9,155.1,42.4,147.9z"/>
		<path class="st4" d="M74.2,73.4c7.2-14,23.6-17.9,33.9-19c2.9-0.3,5.3-0.4,6.9-0.4l1.1,0l-0.4,1l-0.7-0.1v0l0.6,0.2
			c-1.8,4.5-6.3,21.7,11.7,56.9l0.7,0.1c-21.2-41.3-11.2-58-11.1-58.2c0.1-0.1,0.1-0.2,0-0.3c0-0.1-0.1-0.1-0.2-0.2
			c-0.2,0-0.9,0-2,0c-7.1,0-31.4,1.4-40.9,19.7c-3.6,7-6.4,20.3-8.4,39.7l0.6-0.1c0.5-4.9,1-9.4,1.6-13.5
			C69.3,87.2,71.6,78.5,74.2,73.4z"/>
		<path d="M69,99.5c1.7-11.9,3.9-20.4,6.5-25.4l0,0c8.5-16.4,30.4-18.4,38.5-18.6c0,0,0,0.1,0,0.1c-2.3,6.7-4.7,23.8,11.7,56.3
			l1.7,0.2c-18-35.2-13.5-52.5-11.7-56.9l-0.6-0.2v0l0.7,0.1l0.4-1l-1.1,0c-1.6,0-4,0.1-6.9,0.4c-10.3,1.1-26.7,5-33.9,19
			c-2.6,5.1-4.9,13.8-6.6,25.8c-0.6,4.1-1.1,8.7-1.6,13.5l1.4-0.2C67.9,107.9,68.4,103.5,69,99.5C69,99.5,69,99.5,69,99.5z"/>
		<path d="M114.6,53.5c1.1,0,1.8,0,2,0c0.1,0,0.2,0.1,0.2,0.2c0,0.1,0,0.2,0,0.3c-0.1,0.2-10,17,11.1,58.2l1.7,0.2
			c-21.2-40.8-11.7-57.5-11.6-57.7c0.3-0.5,0.4-1.2,0.1-1.7c-0.3-0.5-0.8-0.9-1.4-0.9c-1.3-0.1-32.9-1.5-44.2,20.4
			c-3.7,7.2-6.6,20.8-8.5,40.5l1.4-0.2c1.9-19.4,4.7-32.7,8.4-39.7C83.2,54.9,107.5,53.5,114.6,53.5z"/>
		<path class="st2" d="M97.5,132.9l1.2-3.8c-0.1,0-0.2,0-0.3,0.1c-13.8,1.1-24.1,1.9-30.6,2.4h0l-0.1,0l-0.1,4.7
			C68.3,136.4,97.5,132.9,97.5,132.9z"/>
		<path class="st5" d="M97.5,132.9l1.2-3.8c-0.1,0-0.2,0-0.3,0.1c-13.8,1.1-24.1,1.9-30.6,2.4h0l-0.1,0l-0.1,4.7
			C68.3,136.4,97.5,132.9,97.5,132.9z"/>
		<path class="st2" d="M62.4,116.6l-1,11.8c5.3-0.3,21.7-1.5,35.6-2.7l4.1-13.6L62.4,116.6z"/>
		<path class="st4" d="M98.3,127.7c0.1,0,0.1-0.1,0.2-0.1c0-0.1,0.1-0.1,0.1-0.1l5.2-17.2c0-0.1,0-0.2-0.1-0.3
			c-0.1-0.1-0.1-0.1-0.2-0.1c0,0,0,0,0,0l-42.6,4.9c-0.1,0-0.2,0.1-0.2,0.3l-1.2,15.1c0,0.1,0.1,0.2,0.2,0.3c0.1,0,1.4,0,3.7-0.1
			c0.6,0,1.3-0.1,2-0.1l2.5-0.2C74.3,129.6,84.6,128.8,98.3,127.7z M60.7,129.9l-0.8,0l1.2-14.6l42-4.8l-5,16.6l-0.5,0
			C82.8,128.4,65,129.7,60.7,129.9z"/>
		<path d="M67.8,131.5L67.8,131.5L67.8,131.5c6.6-0.5,16.9-1.3,30.7-2.4c0.1,0,0.2,0,0.3-0.1c0.3-0.1,0.6-0.3,0.8-0.5
			c0.2-0.2,0.3-0.4,0.4-0.6l5.2-17.2c0.2-0.5,0-1.1-0.3-1.6c-0.4-0.4-0.9-0.7-1.5-0.6l-35.9,4.1l-1.4,0.2l-0.6,0.1l-1.4,0.2
			l-3.3,0.4c-0.8,0.1-1.4,0.7-1.5,1.6L57.9,130c-0.1,0.8,0.4,1.4,1.1,1.7c0.2,0.1,0.4,0.1,0.9,0.1c0.5,0,1.4,0,2.5-0.1
			c0.3,0,0.5,0,0.8,0c0.3,0,0.6,0,0.9-0.1c0,0,0.1,0,0.1,0c0.3,0,0.7,0,1-0.1l0.6,0l0.5,0L67.8,131.5z M63.2,130.3
			c-2.2,0.1-3.6,0.1-3.7,0.1c-0.1,0-0.2-0.2-0.2-0.3l1.2-15.1c0-0.1,0.1-0.2,0.2-0.3l42.6-4.9c0,0,0,0,0,0c0.1,0,0.2,0,0.2,0.1
			c0.1,0.1,0.1,0.2,0.1,0.3l-5.2,17.2c0,0,0,0-0.1,0.1c0,0-0.1,0.1-0.2,0.1c-13.8,1.1-24.1,1.9-30.6,2.4l-2.5,0.2
			C64.4,130.3,63.8,130.3,63.2,130.3z"/>
		<path d="M98.1,127.1l5-16.6l-42,4.8l-1.2,14.6l0.8,0c4.2-0.2,22.1-1.5,36.9-2.8L98.1,127.1z M61.5,128.5l1-11.8l38.7-4.4L97,125.8
			C83.1,126.9,66.7,128.2,61.5,128.5z"/>
		<path class="st2" d="M143.7,143.3l1.5-5l-0.2-0.2c-0.8-0.6-1.5-1.3-2.2-1.9c-16.9-4.3-25.8-6.6-27.4-7.2l-2,6.4
			C114,135.8,143.7,143.3,143.7,143.3z"/>
		<path class="st5" d="M143.7,143.3l1.5-5l-0.2-0.2c-0.8-0.6-1.5-1.3-2.2-1.9c-16.9-4.3-25.8-6.6-27.4-7.2l-2,6.4
			C114,135.8,143.7,143.3,143.7,143.3z"/>
		<path d="M145.6,137l-0.2,0.7c-0.4-0.3-0.8-0.7-1.2-1l-1.3-0.3c-0.1,0-0.1,0-0.2,0c0.7,0.7,1.4,1.3,2.2,1.9l0.2,0.2l0.6,0.5l0,0
			l0.5-1.8c-0.1,0-0.2,0-0.4,0L145.6,137z"/>
		<path d="M145.4,137.6l0.2-0.7l-1.4-0.3C144.6,137,145,137.3,145.4,137.6z"/>
		<path class="st5" d="M145.4,137.6l0.2-0.7l-1.4-0.3C144.6,137,145,137.3,145.4,137.6z"/>
		<path class="st2" d="M145.2,133.3l4.6-15.1l-28-3.3l-3.7,11.4C122.8,127.6,136.8,131.2,145.2,133.3z"/>
		<path class="st4" d="M146.3,135.7c0.1,0,0.2,0,0.2,0c0.1,0,0.1-0.1,0.1-0.2l5.6-18.6c0-0.1,0-0.2,0-0.2c0-0.1-0.1-0.1-0.2-0.1
			l-31.4-3.7c0,0,0,0,0,0c-0.1,0-0.2,0.1-0.3,0.2l-4.6,14.4c0,0.1,0,0.2,0.1,0.3c1.4,0.6,10.7,3,27.5,7.3L146.3,135.7z M116.3,127.3
			l4.5-13.9l30.8,3.7l-5.4,18.1l-0.7-0.2c-8.8-2.2-24.6-6.3-28.5-7.4L116.3,127.3z"/>
		<path d="M146.5,137.1c0.2,0,0.5-0.1,0.7-0.2c0.3-0.2,0.5-0.4,0.7-0.7c0-0.1,0.1-0.2,0.1-0.3l5.6-18.6c0.1-0.5,0.1-1-0.2-1.4
			c-0.3-0.4-0.7-0.7-1.2-0.8l-22.6-2.7l-1.7-0.2l-0.7-0.1l-1.7-0.2l-4.8-0.6c-0.8-0.1-1.6,0.4-1.8,1.2l-4.6,14.4
			c-0.2,0.7,0,1.5,0.6,1.9c0.1,0.1,0.2,0.1,0.3,0.2c0,0,0,0,0,0c1.6,0.6,10.6,3,27.4,7.2c0.1,0,0.1,0,0.2,0l1.3,0.3l1.4,0.3l0.3,0.1
			c0.1,0,0.2,0,0.4,0c0,0,0,0,0,0s0,0,0,0C146.4,137.1,146.5,137.1,146.5,137.1z M115.8,127.6c-0.1-0.1-0.1-0.2-0.1-0.3l4.6-14.4
			c0-0.1,0.2-0.2,0.3-0.2c0,0,0,0,0,0l31.4,3.7c0.1,0,0.2,0.1,0.2,0.1c0,0.1,0.1,0.2,0,0.2l-5.6,18.6c0,0.1-0.1,0.1-0.1,0.2
			c-0.1,0-0.1,0.1-0.2,0l-3-0.8C126.5,130.7,117.2,128.2,115.8,127.6z"/>
		<path d="M146.2,135l5.4-18.1l-30.8-3.7l-4.5,13.9l0.7,0.2c3.9,1.2,19.8,5.2,28.5,7.4L146.2,135z M149.8,118.2l-4.6,15.1
			c-8.4-2.1-22.4-5.7-27.1-7l3.7-11.4L149.8,118.2z"/>
	</g>
</g>
</svg>
