<svg width="181" height="163" viewBox="0 0 181 163" fill="none" xmlns="http://www.w3.org/2000/svg">
<path d="M116.757 132.742C116.726 133.106 119.258 150.411 144.677 160.042C144.677 160.042 136.949 149.982 137.529 141.595C137.529 141.595 149.23 153.441 169.574 141.664C169.574 141.664 151.361 141.078 143.576 128.867C135.79 116.655 118.598 115.312 116.757 132.742Z" fill="#74B1DE" stroke="black" stroke-width="1.98425" stroke-linecap="round" stroke-linejoin="round"/>
<path d="M55.1985 122.477C55.1692 122.823 35.9528 134.108 11.8605 127.725C11.8605 127.725 25.4854 118.993 31.4436 111.666C26.3787 112.466 21.192 111.966 16.3731 110.214C11.5542 108.462 7.26229 105.516 3.90255 101.654C3.90255 101.654 11.8617 107.241 30.3843 93.2752C41.9314 84.514 60.3013 105.67 55.1985 122.477Z" fill="#74B1DE" stroke="black" stroke-width="1.98425" stroke-linecap="round" stroke-linejoin="round"/>
<path d="M81.3409 37.1049C80.2304 36.9112 79.1049 36.816 77.9776 36.8206C70.6121 36.8397 59.6973 38.5575 54.4464 45.3571C54.4464 45.3571 47.3786 55.1388 44.925 80.4578C42.4714 105.777 40.4165 117.889 45.3756 125.864C50.3347 133.838 72.1398 137.442 83.3048 138.863C87.821 139.447 94.5675 139.999 101.127 140.37C105.995 134.91 109.369 128.292 110.925 121.155C114.738 91.9532 103.164 58.5715 81.3409 37.1049Z" fill="white"/>
<path d="M136.865 96.5379C134.283 96.3163 131.683 96.6206 129.223 97.4322L131.065 86.9702C131.065 86.9702 124.555 55.0987 111.849 49.0366C100.876 43.8178 89.124 38.4598 81.3408 37.1049C103.164 58.5715 114.738 91.9531 110.93 121.1C109.374 128.238 105.999 134.855 101.131 140.315C110.769 140.855 120.02 140.959 121.246 140.182C123.301 138.742 123.613 129.379 123.613 129.379L123.858 128.006C126.759 130.222 130.237 131.56 133.879 131.861C136.191 132.121 138.532 131.912 140.76 131.245C142.988 130.579 145.057 129.469 146.841 127.982C148.626 126.496 150.089 124.665 151.142 122.599C152.196 120.533 152.817 118.275 152.97 115.962C153.221 113.629 153.001 111.269 152.323 109.021C151.645 106.774 150.523 104.683 149.023 102.873C147.522 101.063 145.673 99.5705 143.586 98.4825C141.498 97.3945 139.213 96.7333 136.865 96.5379Z" fill="#74B1DE"/>
<path d="M136.865 96.538C134.283 96.3164 131.683 96.6206 129.223 97.4323L131.065 86.9703C131.065 86.9703 124.555 55.0988 111.849 49.0366C99.1436 42.9745 85.4008 36.7697 77.9074 36.778C70.414 36.7863 59.6272 38.515 54.3763 45.3145C54.3763 45.3145 47.3084 55.0962 44.8549 80.4151C42.4013 105.734 40.3463 117.847 45.3054 125.821C50.2645 133.796 72.0697 137.4 83.2347 138.82C94.3996 140.241 119.126 141.525 121.179 140.103C123.232 138.681 123.546 129.3 123.546 129.3L123.791 127.927C126.692 130.143 130.17 131.481 133.812 131.782C136.124 132.042 138.465 131.833 140.693 131.166C142.921 130.5 144.99 129.39 146.774 127.904C148.559 126.417 150.022 124.586 151.075 122.52C152.129 120.454 152.75 118.196 152.903 115.883C153.143 113.562 152.917 111.215 152.238 108.981C151.559 106.746 150.441 104.668 148.948 102.868C147.456 101.067 145.619 99.5804 143.544 98.4937C141.47 97.407 139.199 96.7422 136.865 96.538Z" stroke="black" stroke-width="1.98425" stroke-linecap="round" stroke-linejoin="round"/>
<path d="M59.7764 88.5717L58.2815 102.987" stroke="black" stroke-width="1.98425" stroke-linecap="round" stroke-linejoin="round"/>
<path d="M82.0485 92.1052L80.3325 106.74" stroke="black" stroke-width="1.98425" stroke-linecap="round" stroke-linejoin="round"/>
<path d="M63.9273 118.08L86.4591 114.832C86.4591 114.832 86.7536 122.889 77.4954 125.48C68.2372 128.072 63.9273 118.08 63.9273 118.08Z" fill="black" stroke="black" stroke-width="1.98425" stroke-linecap="round" stroke-linejoin="round"/>
<path d="M81.8321 116.861C80.2107 117.646 78.8661 118.902 77.9751 120.463C77.0841 122.025 76.6884 123.818 76.84 125.608C77.0594 125.627 77.2697 125.535 77.4967 125.462C79.6832 125.005 81.6849 123.915 83.2504 122.328C84.8159 120.74 85.8755 118.728 86.2959 116.542C84.8089 116.204 83.2548 116.315 81.8321 116.861Z" fill="#74B1DE"/>
<path d="M128.338 67.6133C132.193 49.743 129.542 31.0853 120.859 14.9747C108.606 7.48376 92.2089 5.45563 65.8035 10.0999C29.8269 16.4656 19.6395 57.048 19.6395 57.048C15.246 91.812 42.1928 102.104 42.1928 102.104C42.1928 102.104 45.5652 59.1665 53.0509 47.0546C60.8159 34.4711 80.5015 37.0156 80.5015 37.0156C80.5015 37.0156 72.6868 47.3577 86.0085 76.8344C88.0818 81.5484 90.9846 85.8554 94.5798 89.552C109.536 89.4595 123.929 82.7544 128.338 67.6133Z" fill="white"/>
<path d="M167.048 27.1685C159.242 22.1625 143.756 30.7006 143.756 30.7006C140.565 21.4086 126.42 9.72343 126.42 9.72343C129.045 13.0811 132.724 25.3118 132.724 25.3118C129.344 21.2704 125.337 17.793 120.856 15.011C129.531 31.111 132.182 49.7542 128.338 67.6133C123.923 82.809 109.604 89.5203 94.5791 89.552C108.997 104.103 128.693 99.7713 128.693 99.7713C139.646 92.8121 147.031 100.625 147.031 100.625C169.723 81.1064 151.591 41.0271 151.591 41.0271C152.41 35.6867 167.048 27.1685 167.048 27.1685Z" fill="#74B1DE"/>
<path d="M19.6254 56.9918C19.6254 56.9918 29.831 16.4109 65.8076 10.0452C101.784 3.67953 119.531 9.78269 132.641 25.213C132.641 25.213 128.962 12.9824 126.337 9.62465C126.337 9.62465 140.482 21.3098 143.673 30.6018C143.673 30.6018 159.115 22.1516 166.965 27.0697C166.965 27.0697 152.327 35.5879 151.396 40.9373C151.396 40.9373 169.531 80.9801 146.836 100.535C146.836 100.535 139.488 92.7253 128.499 99.6815C128.499 99.6815 99.2034 106.062 85.8923 76.6778C72.5812 47.2937 80.3854 36.8591 80.3854 36.8591C80.3854 36.8591 60.8033 34.3967 53.0551 46.9999C45.5693 59.1119 42.1969 102.049 42.1969 102.049C42.1969 102.049 15.2502 91.7573 19.6254 56.9918Z" stroke="black" stroke-width="1.98425" stroke-linecap="round" stroke-linejoin="round"/>
<path d="M46.229 85.721C46.6355 85.9204 64.9348 85.0469 64.9348 85.0469L68.8325 75.3089L47.0112 77.9935L46.229 85.721Z" fill="#74B1DE"/>
<path d="M74.6092 87.3318C75.0066 87.6405 93.1078 93.682 93.1078 93.682L97.4533 82.3498L78.1283 78.5887L74.6092 87.3318Z" fill="#74B1DE"/>
<path d="M41.5295 81.6377C41.9894 81.86 65.6792 81.6806 65.6792 81.6806L69.6704 71.2721L42.9788 72.3346L41.5295 81.6377Z" fill="white" stroke="black" stroke-width="1.98425" stroke-linecap="round" stroke-linejoin="round"/>
<path d="M76.6174 82.5137C77.0132 82.8406 95.1343 88.8654 95.1343 88.8654L99.4782 77.5514L80.1532 73.7904L76.6174 82.5137Z" fill="white" stroke="black" stroke-width="1.98425" stroke-linecap="round" stroke-linejoin="round"/>
</svg>
