<svg width="85" height="85" viewBox="0 0 85 85" fill="none" xmlns="http://www.w3.org/2000/svg">
<path d="M66.8003 20.2878L61.6046 18.9635C61.4007 18.9103 61.1878 18.8962 60.9781 18.9219C60.7685 18.9475 60.5661 19.0125 60.3827 19.1131C60.1993 19.2136 60.0383 19.3478 59.9091 19.508C59.7798 19.6681 59.6848 19.8511 59.6294 20.0465V20.0559L57.3284 28.2852C59.5825 30.7151 60.8295 33.8515 60.834 37.1018V40.7179L62.631 41.1805L63.9745 36.3602L62.9321 36.093C62.727 36.0408 62.5346 35.9503 62.3659 35.8269C62.1972 35.7034 62.0556 35.5493 61.9491 35.3735C61.8426 35.1976 61.7734 35.0034 61.7453 34.8019C61.7172 34.6003 61.7308 34.3955 61.7853 34.199C61.8399 34.0025 61.9343 33.8183 62.0632 33.6568C62.1922 33.4952 62.353 33.3596 62.5367 33.2576C62.7203 33.1557 62.9232 33.0893 63.1336 33.0624C63.344 33.0355 63.5579 33.0485 63.7631 33.1008L64.8066 33.3692L66.1513 28.5488L63.8712 27.9603C63.4637 27.8509 63.1174 27.5926 62.9069 27.241C62.6963 26.8894 62.6384 26.4727 62.7456 26.0806C62.8528 25.6885 63.1165 25.3525 63.4799 25.1448C63.8434 24.9371 64.2774 24.8745 64.6886 24.9704H64.6985L66.9896 25.5589L67.9361 22.1806C68.0447 21.7854 67.9864 21.3653 67.7738 21.011C67.5612 20.6567 67.2115 20.3969 66.8003 20.2878V20.2878Z" fill="black"/>
<path d="M57.605 47.3991V37.0969C57.6028 34.6333 56.6782 32.2521 54.9991 30.3855C53.32 28.519 50.9978 27.2909 48.4539 26.9242C48.4539 26.883 48.4674 26.843 48.4674 26.7994V23.713C48.4686 22.8334 48.2889 21.9623 47.9385 21.1492C47.5882 20.3361 47.074 19.5971 46.4254 18.9743C45.7768 18.3516 45.0065 17.8572 44.1584 17.5196C43.3103 17.1819 42.4011 17.0075 41.4826 17.0064C40.5642 17.0052 39.6545 17.1773 38.8055 17.5128C37.9565 17.8483 37.1848 18.3407 36.5345 18.9619C35.8842 19.583 35.368 20.3207 35.0154 21.1329C34.6628 21.9451 34.4807 22.8158 34.4795 23.6954V26.7994C34.4795 26.8418 34.4881 26.883 34.4918 26.9242C31.9479 27.2911 29.6256 28.5192 27.9463 30.3857C26.2671 32.2521 25.3422 34.6332 25.3394 37.0969V47.3991C23.343 47.3997 21.4286 48.1596 20.017 49.5116C18.6055 50.8636 17.8123 52.6971 17.812 54.609V57.7025C17.812 58.7952 18.2653 59.8431 19.0721 60.6157C19.8789 61.3883 20.9731 61.8224 22.1141 61.8224H25.3431C24.9744 65.0371 27.2176 67.9917 30.7207 68H52.2311C55.7305 67.9929 57.986 65.036 57.6087 61.8224H60.8389C61.9799 61.8224 63.0741 61.3883 63.8809 60.6157C64.6877 59.8431 65.141 58.7952 65.141 57.7025V54.609C65.141 52.6968 64.3478 50.863 62.9359 49.5108C61.524 48.1587 59.6091 47.3991 57.6124 47.3991H57.605ZM37.7048 23.713C37.8351 18.9539 45.1093 18.9563 45.2396 23.713V26.7971H37.7048V23.713ZM33.4027 37.6125H49.538C51.6546 37.6431 51.6632 40.673 49.538 40.7024H33.4027C31.2886 40.6707 31.28 37.6455 33.4027 37.6125ZM52.7621 57.7072C52.7575 59.207 52.1323 60.644 51.0233 61.7031C49.9144 62.7622 48.4123 63.3571 46.8461 63.3574H36.0909C34.525 63.3568 33.0232 62.7617 31.9145 61.7026C30.8058 60.6436 30.1807 59.2068 30.1762 57.7072V50.4867C30.1788 48.9852 30.8028 47.5459 31.9114 46.4842C33.0201 45.4224 34.523 44.8249 36.0909 44.8224H46.8461C48.4141 44.8249 49.9172 45.4224 51.026 46.4841C52.1349 47.5458 52.7591 48.9851 52.7621 50.4867V57.7072Z" fill="black"/>
<path d="M49.5381 54.0924H33.4028V57.7074C33.4051 58.3886 33.6894 59.0412 34.1933 59.522C34.6972 60.0028 35.3797 60.2726 36.091 60.2723H46.8462C47.4606 60.2708 48.0556 60.0658 48.5302 59.692V59.7049C48.582 59.6651 48.6316 59.6226 48.6789 59.5778C48.7096 59.5507 48.7428 59.526 48.7723 59.4978C48.8867 59.3914 48.9882 59.2729 49.0747 59.1446C49.0787 59.1377 49.0833 59.131 49.0882 59.1246C49.1467 59.0371 49.1988 58.9459 49.2443 58.8515C49.4371 58.497 49.539 58.1036 49.5418 57.7038V57.5355C49.5713 57.0446 49.5418 56.5467 49.5418 56.097L49.5381 54.0924Z" fill="black"/>
<path d="M46.8484 47.9125H36.0932C34.3638 47.8983 33.2035 49.418 33.405 51.0024H49.5378C49.7394 49.418 48.5791 47.8983 46.8484 47.9125Z" fill="black"/>
<path d="M22.1115 44.7813C22.1287 44.1633 22.0685 36.4484 22.1545 36.0706L17.1543 37.3442L19.5524 45.9372C20.3484 45.4454 21.2089 45.0567 22.1115 44.7813V44.7813Z" fill="black"/>
<path d="M19.5635 28.7337C19.4437 28.5933 19.2842 28.489 19.104 28.4333C18.9239 28.3776 18.7308 28.373 18.5479 28.4198C18.365 28.4667 18.2002 28.5631 18.0731 28.6975C17.946 28.8319 17.8622 28.9985 17.8316 29.1775L17.0032 34.1826L22.9032 32.6782L19.5635 28.7337Z" fill="black"/>
</svg>
