<svg width="61" height="36" viewBox="0 0 61 36" fill="none" xmlns="http://www.w3.org/2000/svg">
<g clip-path="url(#clip0_401:253)">
<path d="M9.19867 31.9155C9.33479 31.8809 9.47908 31.9009 9.60057 31.9712C9.72206 32.0415 9.81106 32.1565 9.84847 32.2916C10.0578 33.0191 10.3146 33.7323 10.6172 34.4264C10.7681 34.788 11.1394 34.9529 11.7573 34.9326C12.3752 34.9124 30.3636 32.7544 31.376 32.6184L31.5152 32.5982C32.8932 32.4072 36.5541 31.9126 36.2872 24.4985C36.0605 18.6915 34.8968 12.9589 32.841 7.52113C32.7458 7.27061 32.5974 7.04362 32.4058 6.85579C32.2347 7.29259 32.0606 7.69179 31.9707 7.87403C31.9132 8.01751 31.8203 8.14419 31.7006 8.2423C31.581 8.34041 31.4384 8.40677 31.2861 8.43522C31.1404 8.45642 30.9916 8.43637 30.8567 8.37736L26.2675 6.39296C26.1373 6.33508 26.0238 6.24535 25.9376 6.13208C25.8514 6.0188 25.7952 5.88566 25.7744 5.74499C25.4843 5.77392 25.2232 5.80862 24.9795 5.84623C24.643 5.8954 16.857 7.89428 15.2905 8.28769L14.7916 8.42076C11.5368 9.28858 8.9666 9.96258 8.40963 10.0609C7.24927 10.2605 6.379 10.9288 6.15564 11.7966C5.96615 12.686 5.89108 13.5958 5.93226 14.5042C7.52989 14.2887 9.15233 14.3395 10.7332 14.6546C10.8661 14.6906 10.9801 14.7761 11.0515 14.8936C11.1229 15.011 11.1463 15.1513 11.1169 15.2854C11.0874 15.4196 11.0074 15.5373 10.8933 15.6143C10.7793 15.6912 10.6399 15.7215 10.5041 15.6989C9.01362 15.4093 7.48523 15.3692 5.98158 15.5803C6.00189 15.8551 6.02799 16.1443 6.06281 16.4481C7.74193 16.2399 9.44614 16.3827 11.0668 16.8675C11.2018 16.9119 11.3137 17.0076 11.3784 17.1338C11.443 17.26 11.4551 17.4065 11.4121 17.5415C11.3801 17.6363 11.3226 17.7204 11.2459 17.7848C11.1691 17.8491 11.076 17.891 10.9769 17.906C10.8959 17.9153 10.8139 17.9074 10.7361 17.8829C9.26539 17.4552 7.72298 17.3293 6.20205 17.5126C6.24846 17.8366 6.30648 18.1779 6.3703 18.5337C8.00959 18.2508 9.69042 18.3179 11.3018 18.7304C11.4283 18.7772 11.5326 18.8697 11.5938 18.9895C11.655 19.1094 11.6686 19.2479 11.632 19.3774C11.5955 19.5069 11.5113 19.6179 11.3964 19.6883C11.2814 19.7587 11.1441 19.7834 11.0117 19.7574C9.55879 19.3972 8.04721 19.3381 6.57046 19.5838C6.59077 19.6908 6.61107 19.7921 6.63428 19.8991C6.66421 20.034 6.64038 20.1752 6.56785 20.2928C6.49531 20.4105 6.37975 20.4954 6.24556 20.5297H6.22816C6.15956 20.5455 6.0885 20.5475 6.01912 20.5356C5.94974 20.5237 5.88342 20.4981 5.82404 20.4605C5.76464 20.4228 5.71337 20.3737 5.67318 20.316C5.633 20.2584 5.6047 20.1934 5.58996 20.1247C5.56965 20.0322 5.55224 19.9454 5.53194 19.8557C4.93269 20.06 4.37115 20.361 3.86973 20.7467C3.81449 20.7898 3.75128 20.8216 3.6837 20.8404C3.61612 20.8591 3.54549 20.8644 3.47586 20.856C3.40623 20.8475 3.33895 20.8255 3.27787 20.7911C3.21678 20.7567 3.16309 20.7106 3.11985 20.6556C3.07661 20.6005 3.04468 20.5374 3.02587 20.47C3.00706 20.4027 3.00174 20.3322 3.01023 20.2628C3.01871 20.1934 3.04084 20.1263 3.07532 20.0654C3.10981 20.0044 3.15598 19.9509 3.21122 19.9078C3.84332 19.4169 4.55722 19.0408 5.32018 18.797C5.25056 18.4296 5.19254 18.0796 5.14032 17.744C4.51062 17.9301 3.92062 18.2302 3.39979 18.6292C3.28733 18.7098 3.14799 18.7439 3.01089 18.7244C2.87379 18.705 2.74955 18.6334 2.66414 18.5247C2.57874 18.416 2.53877 18.2786 2.55261 18.1412C2.56644 18.0038 2.63301 17.877 2.73838 17.7874C3.40759 17.2736 4.16997 16.8935 4.98367 16.6679C4.94886 16.3787 4.92275 16.0894 4.90245 15.8204C4.17151 16.0336 3.50153 16.4162 2.94725 16.937C2.86666 17.0127 2.766 17.0639 2.65716 17.0845C2.54527 17.1005 2.43118 17.0808 2.33115 17.0284C2.23111 16.9759 2.15025 16.8933 2.10009 16.7922C2.04992 16.6912 2.03302 16.577 2.05179 16.4659C2.07056 16.3547 2.12405 16.2523 2.20462 16.1733C2.94891 15.4764 3.85808 14.9788 4.84733 14.7269C4.78803 13.6598 4.87291 12.5895 5.0997 11.5449C5.42171 10.2663 6.61397 9.29726 8.20947 9.01956C8.72872 8.92699 11.5368 8.18644 14.5102 7.39962L15.0585 7.25209C16.0535 7.0091 24.4545 4.85403 24.8113 4.80196C24.9766 4.77592 25.3915 4.71806 25.9716 4.66889L26.2414 3.67379C26.2722 3.56114 26.3263 3.45617 26.4002 3.36564C26.4742 3.2751 26.5663 3.20101 26.6707 3.14814C26.7751 3.09527 26.8894 3.0648 27.0063 3.05868C27.1233 3.05255 27.2402 3.07092 27.3496 3.1126L32.2811 4.5416L32.3507 4.56765C32.5066 4.63767 32.6372 4.75371 32.7249 4.90011C32.8126 5.0465 32.8531 5.21621 32.841 5.38629C32.8278 5.52252 32.8016 5.65715 32.7626 5.78837C33.2482 6.1322 33.6199 6.61262 33.8302 7.16821C35.9302 12.7099 37.1204 18.553 37.3547 24.4725C37.6448 32.5288 33.4733 33.4023 31.843 33.6395L31.6632 33.6627L31.5298 33.6829C30.3694 33.8478 12.1315 35.9971 11.8037 36.0145C10.3532 36.0608 9.83106 35.3058 9.64251 34.8574C9.32269 34.1218 9.05137 33.3661 8.83026 32.5953C8.80767 32.5266 8.79935 32.454 8.80582 32.382C8.81228 32.31 8.8334 32.24 8.86788 32.1764C8.90235 32.1128 8.94946 32.0569 9.00633 32.012C9.06321 31.9671 9.12865 31.9343 9.19867 31.9155ZM27.2393 4.16845L26.8825 5.48753L31.0627 7.29838C31.3305 6.70711 31.5602 6.09937 31.7502 5.47886L27.2393 4.16845Z" fill="white"/>
<path d="M21.9627 4.29568L18.4816 5.60897C15.9637 6.55779 15.9172 6.53466 15.7345 6.45366C15.6097 6.39484 15.5114 6.29168 15.4589 6.16439C15.4444 6.13257 15.3603 5.94454 15.2442 5.69288C15.1282 5.44121 14.9541 5.03333 14.8004 4.71803C14.7308 4.56182 14.6641 4.42874 14.6147 4.31014C14.5292 4.12165 14.5181 3.90794 14.5837 3.71166C14.6494 3.51539 14.7868 3.35103 14.9687 3.25141L20.5355 0.211152C20.6439 0.151505 20.7646 0.11736 20.8883 0.111344C21.0119 0.105327 21.1354 0.1276 21.2491 0.176441C21.3639 0.224592 21.4663 0.297984 21.5487 0.391153C21.6311 0.484322 21.6913 0.594855 21.7248 0.714484L21.838 1.12814L22.1281 2.1782L22.4414 3.30058C22.4997 3.49611 22.483 3.70628 22.3946 3.89022C22.3061 4.07415 22.1521 4.21868 21.9627 4.29568ZM20.8024 1.30749L15.7142 4.08452C15.984 4.66306 16.158 5.05357 16.2683 5.30235C17.0602 5.01307 18.8791 4.32461 21.3767 3.3758L20.8024 1.30749Z" fill="white"/>
<path d="M0.142116 25.2969C0.305262 24.5376 0.624956 23.8205 1.0809 23.191C1.53685 22.5616 2.11909 22.0336 2.79063 21.6405C3.86045 21.0078 5.10849 20.7417 6.34423 20.8826C6.44286 20.8826 6.54149 20.9029 6.63432 20.9173C6.73441 20.9319 6.82825 20.9746 6.90479 21.0406C6.98132 21.1066 7.03737 21.193 7.06632 21.2896C7.09528 21.3863 7.09594 21.4891 7.06823 21.5862C7.04051 21.6832 6.98558 21.7703 6.90989 21.8372C6.85164 21.8919 6.78164 21.9325 6.70522 21.9561C6.6288 21.9796 6.54799 21.9855 6.46896 21.9732C5.38703 21.7919 4.27567 21.9968 3.33019 22.5517C2.78575 22.8708 2.31361 23.2991 1.94362 23.8095C1.57363 24.3198 1.31382 24.9012 1.18063 25.5167C0.908449 26.8195 1.14169 28.1768 1.83333 29.3149C2.1722 29.8708 2.62717 30.3474 3.16728 30.7123C3.7074 31.0772 4.32 31.3218 4.9634 31.4295C6.23109 31.6725 7.37694 31.4295 7.95422 31.1026C9.8572 29.9773 10.7942 28.2099 10.4577 26.3701C10.4418 26.2811 10.4489 26.1895 10.4783 26.1039C10.5078 26.0184 10.5586 25.9418 10.6259 25.8812C10.6992 25.8124 10.7909 25.7662 10.8899 25.7482C10.9593 25.7353 11.0305 25.7362 11.0996 25.7509C11.1686 25.7656 11.234 25.7938 11.292 25.8339C11.35 25.874 11.3994 25.9251 11.4375 25.9844C11.4755 26.0437 11.5014 26.1099 11.5136 26.1792C11.8907 28.2562 11.0031 30.229 9.12328 31.606C8.92311 31.7551 8.7149 31.8932 8.49959 32.0196C8.01069 32.291 7.4739 32.4658 6.91861 32.5345C6.20096 32.6349 5.47155 32.6153 4.76034 32.4767C3.96925 32.3426 3.21622 32.0409 2.55213 31.5917C1.88803 31.1426 1.32833 30.5566 0.910851 29.8732C0.0806751 28.5006 -0.194194 26.8643 0.142116 25.2969Z" fill="white"/>
<path d="M23.6568 21.8748L22.6676 21.9674C22.5327 21.9803 22.398 21.9418 22.2903 21.8597C22.1827 21.7776 22.1102 21.658 22.0874 21.5248L20.431 11.9614C20.408 11.8281 20.4365 11.691 20.5108 11.5777C20.585 11.4645 20.6996 11.3835 20.8313 11.3511L21.8408 11.1052C21.9127 11.088 21.9872 11.0856 22.0601 11.098C22.1329 11.1104 22.2024 11.1375 22.2644 11.1775C22.3262 11.2177 22.3787 11.2704 22.4187 11.3322C22.4587 11.394 22.4852 11.4635 22.4964 11.5362L24.1325 21.2558C24.1451 21.328 24.1425 21.402 24.1251 21.4732C24.1076 21.5443 24.0756 21.6112 24.031 21.6694C23.945 21.7785 23.8205 21.8509 23.6829 21.8719L23.6568 21.8748Z" fill="white"/>
<path d="M30.1112 20.3012L29.2206 20.3764C29.0858 20.3886 28.9514 20.3499 28.844 20.2679C28.7365 20.1859 28.6638 20.0667 28.6404 19.9338L27.1464 11.2874C27.1226 11.1552 27.1501 11.0188 27.2233 10.906C27.2966 10.7932 27.4102 10.7124 27.541 10.68L28.446 10.4486C28.5175 10.4288 28.5923 10.4247 28.6655 10.4367C28.7386 10.4487 28.8083 10.4765 28.8696 10.518C28.9321 10.558 28.9855 10.6106 29.0265 10.6723C29.0674 10.7341 29.095 10.8037 29.1074 10.8767L30.5869 19.6793C30.5998 19.7521 30.5972 19.8269 30.5792 19.8986C30.5612 19.9704 30.5282 20.0376 30.4825 20.0958C30.4406 20.1505 30.3883 20.1962 30.3285 20.2305C30.2688 20.2648 30.2028 20.2868 30.1344 20.2954L30.1112 20.3012Z" fill="white"/>
<path d="M33.6794 22.9741C33.7379 23.0315 33.7826 23.1015 33.8103 23.1786C33.8379 23.2558 33.8477 23.3381 33.8389 23.4195C33.2849 28.0479 31.0802 29.9658 29.3309 30.7729C28.6865 31.069 28.0026 31.2707 27.3003 31.3717C25.2117 31.6609 23.2884 31.065 22.3688 30.4575C19.0676 28.2793 19.1082 25.4705 19.114 25.3519C19.1167 25.2263 19.164 25.1057 19.2473 25.0114C19.3307 24.9172 19.4448 24.8554 19.5694 24.837L33.2355 22.8121C33.317 22.8033 33.3995 22.8133 33.4764 22.8414C33.5534 22.8695 33.6228 22.9149 33.6794 22.9741ZM23.0215 26.1271C22.0294 25.8899 21.191 26.4858 20.6369 27.0644C21.1711 28.0912 21.9728 28.9555 22.9577 29.5666C23.7206 30.0699 25.1827 30.4894 26.7607 30.3534C26.169 28.4963 24.5125 26.4829 23.0215 26.1271Z" fill="white"/>
<path d="M3.95667 28.6438C4.00717 28.6783 4.05946 28.7102 4.11332 28.7393C4.21285 28.793 4.29281 28.8767 4.34176 28.9784C4.39071 29.0802 4.40616 29.1948 4.38588 29.3058C4.36561 29.4168 4.31066 29.5186 4.22889 29.5966C4.14711 29.6746 4.04269 29.7248 3.93056 29.7401C3.81665 29.7559 3.70066 29.7346 3.59987 29.6794C2.94449 29.325 2.41784 28.7736 2.0948 28.1036C1.77176 27.4336 1.66878 26.6791 1.8005 25.9473C1.93223 25.2156 2.29194 24.5439 2.82851 24.0278C3.36508 23.5117 4.05117 23.1773 4.78923 23.0724C4.85875 23.0625 4.92955 23.0664 4.99757 23.0838C5.06559 23.1012 5.12951 23.1318 5.18567 23.1739C5.24184 23.2159 5.28915 23.2685 5.3249 23.3288C5.36066 23.3891 5.38416 23.4558 5.39407 23.5251C5.40397 23.5944 5.40009 23.665 5.38263 23.7329C5.36518 23.8007 5.3345 23.8644 5.29234 23.9205C5.25018 23.9765 5.19737 24.0236 5.13693 24.0593C5.07649 24.0949 5.0096 24.1184 4.94008 24.1283L4.76312 24.163C4.1531 24.2968 3.6163 24.6555 3.2602 25.1672C2.9041 25.679 2.75499 26.3059 2.84273 26.9226C2.89229 27.2728 3.01758 27.6081 3.20992 27.9053C3.40225 28.2025 3.65705 28.4545 3.95667 28.6438Z" fill="white"/>
<path d="M40.1366 11.2498L44.0325 9.91048C46.4054 9.09859 48.7774 8.2867 51.1484 7.47481C52.3987 7.04958 52.7613 6.39293 52.3987 5.16062C52.0361 3.92832 51.6793 2.69601 51.3137 1.46661C50.8699 -0.0202567 49.8633 -0.410767 48.6159 0.462837C45.3514 2.71531 42.0966 4.98128 38.8515 7.26075C38.1089 7.78144 37.7753 8.41784 38.1611 9.36087C38.5237 10.246 38.75 11.218 40.1366 11.2498Z" fill="white"/>
<path d="M40.36 16.3497C40.4152 18.2097 40.7139 18.4845 42.3065 18.4585C45.2945 18.4151 55.8131 17.7671 58.8039 17.8539C60.4719 17.9002 60.7185 17.5849 60.82 15.9302C60.8839 14.9207 60.9477 13.9053 60.997 12.8987C61.0463 11.892 60.2892 11.2556 59.2855 11.5073C55.8363 12.3751 44.8506 13.6045 41.4073 14.4897C40.2556 14.7818 40.2817 15.693 40.36 16.3497Z" fill="white"/>
<path d="M52.4453 31.6146C52.7609 31.6096 53.0644 31.4928 53.3015 31.285C53.5386 31.0772 53.6937 30.7921 53.7391 30.4806C53.9886 29.4306 54.212 28.3718 54.386 27.2986C54.5021 26.5899 54.096 26.1155 53.4345 25.9419C51.1138 25.3374 44.1517 22.6008 41.8078 22.0194C41.68 21.9763 41.544 21.9635 41.4103 21.9818C39.9454 22.3405 40.25 23.7174 39.87 24.701C39.8026 24.8408 39.7653 24.9932 39.7604 25.1483C39.7555 25.3034 39.7832 25.4578 39.8416 25.6016C39.9001 25.7454 39.988 25.8754 40.0998 25.9833C40.2116 26.0912 40.3447 26.1747 40.4908 26.2283C42.8115 27.2726 49.7591 30.4777 52.0943 31.5162C52.2085 31.5582 52.3259 31.5911 52.4453 31.6146Z" fill="white"/>
</g>
<defs>
<clipPath id="clip0_401:253">
<rect width="61" height="36" fill="white" transform="matrix(-1 0 0 1 61 0)"/>
</clipPath>
</defs>
</svg>
