<svg width="85" height="85" viewBox="0 0 85 85" fill="none" xmlns="http://www.w3.org/2000/svg">
<path fill-rule="evenodd" clip-rule="evenodd" d="M58.3632 23.6368H56.0448V19H51.408V23.6368H32.8609V19H28.2241V23.6368C24.9784 23.1731 21.2689 24.5641 21.2689 28.2736C21.9645 73.4822 13.1546 64.6723 58.3632 65.3678C60.9134 65.3678 63 63.2813 63 60.7311V28.2736C63 25.7233 60.9134 23.6368 58.3632 23.6368ZM58.3632 60.7311H25.9057V35.2287H58.3632V60.7311Z" fill="black"/>
<path fill-rule="evenodd" clip-rule="evenodd" d="M33.0925 43.575H29.8468C29.3831 43.575 28.9194 43.1113 28.9194 42.6476V39.4018C28.9194 38.9382 29.3831 38.4745 29.8468 38.4745H33.0925C33.5562 38.4745 34.0199 38.9382 34.0199 39.4018V42.6476C34.0199 43.1113 33.5562 43.575 33.0925 43.575Z" fill="#86BAE5"/>
<path fill-rule="evenodd" clip-rule="evenodd" d="M40.2795 43.575H36.8019C36.3382 43.575 35.8745 43.1113 35.8745 42.6476V39.4018C35.8745 38.9382 36.3382 38.4745 36.8019 38.4745H40.0476C40.5113 38.4745 40.975 38.9382 40.975 39.4018V42.6476C41.2068 43.1113 40.7431 43.575 40.2795 43.575Z" fill="black"/>
<path fill-rule="evenodd" clip-rule="evenodd" d="M47.4674 43.575H43.9899C43.5262 43.575 43.0625 43.1113 43.0625 42.6476V39.4018C43.0625 38.9382 43.5262 38.4745 43.9899 38.4745H47.2356C47.6993 38.4745 48.163 38.9382 48.163 39.4018V42.6476C48.163 43.1113 47.9311 43.575 47.4674 43.575Z" fill="black"/>
<path fill-rule="evenodd" clip-rule="evenodd" d="M54.4226 43.575H51.1769C50.7132 43.575 50.2495 43.1113 50.2495 42.6476V39.4018C50.2495 38.9382 50.7132 38.4745 51.1769 38.4745H54.4226C54.8863 38.4745 55.35 38.9382 55.35 39.4018V42.6476C55.35 43.1113 54.8863 43.575 54.4226 43.575Z" fill="black"/>
<path fill-rule="evenodd" clip-rule="evenodd" d="M33.0925 50.762H29.8468C29.3831 50.762 28.9194 50.2983 28.9194 49.8346V46.5889C28.9194 46.1252 29.3831 45.6615 29.8468 45.6615H33.0925C33.5562 45.6615 34.0199 46.1252 34.0199 46.5889V49.8346C34.0199 50.5301 33.5562 50.762 33.0925 50.762Z" fill="black"/>
<path fill-rule="evenodd" clip-rule="evenodd" d="M40.2795 50.762H36.8019C36.3382 50.762 35.8745 50.2983 35.8745 49.8346V46.5889C35.8745 46.1252 36.3382 45.6615 36.8019 45.6615H40.0476C40.5113 45.6615 40.975 46.1252 40.975 46.5889V49.8346C41.2068 50.5301 40.7431 50.762 40.2795 50.762Z" fill="black"/>
<path fill-rule="evenodd" clip-rule="evenodd" d="M47.4674 50.762H43.9899C43.5262 50.762 43.0625 50.2983 43.0625 49.8346V46.5889C43.0625 46.1252 43.5262 45.6615 43.9899 45.6615H47.2356C47.6993 45.6615 48.163 46.1252 48.163 46.5889V49.8346C48.163 50.5301 47.9311 50.762 47.4674 50.762Z" fill="black"/>
<path fill-rule="evenodd" clip-rule="evenodd" d="M54.4226 50.762H51.1769C50.7132 50.762 50.2495 50.2983 50.2495 49.8346V46.5889C50.2495 46.1252 50.7132 45.6615 51.1769 45.6615H54.4226C54.8863 45.6615 55.35 46.1252 55.35 46.5889V49.8346C55.35 50.5301 54.8863 50.762 54.4226 50.762Z" fill="black"/>
<path fill-rule="evenodd" clip-rule="evenodd" d="M33.0925 58.1807H29.8468C29.3831 58.1807 28.9194 57.717 28.9194 57.2533V53.7757C28.9194 53.3121 29.3831 52.8484 29.8468 52.8484H33.0925C33.5562 52.8484 34.0199 53.3121 34.0199 53.7757V57.0215C34.0199 57.717 33.5562 58.1807 33.0925 58.1807Z" fill="black"/>
<path fill-rule="evenodd" clip-rule="evenodd" d="M40.2795 58.1807H36.8019C36.3382 58.1807 35.8745 57.717 35.8745 57.2533V53.7757C35.8745 53.3121 36.3382 52.8484 36.8019 52.8484H40.0476C40.5113 52.8484 40.975 53.3121 40.975 53.7757V57.0215C41.2068 57.717 40.7431 58.1807 40.2795 58.1807Z" fill="black"/>
<path fill-rule="evenodd" clip-rule="evenodd" d="M47.4674 58.1807H43.9899C43.5262 58.1807 43.0625 57.717 43.0625 57.2533V53.7757C43.0625 53.3121 43.5262 52.8484 43.9899 52.8484H47.2356C47.6993 52.8484 48.163 53.3121 48.163 53.7757V57.0215C48.163 57.717 47.9311 58.1807 47.4674 58.1807Z" fill="black"/>
<path fill-rule="evenodd" clip-rule="evenodd" d="M54.4226 58.1807H51.1769C50.7132 58.1807 50.2495 57.717 50.2495 57.2533V53.7757C50.2495 53.3121 50.7132 52.8484 51.1769 52.8484H54.4226C54.8863 52.8484 55.35 53.3121 55.35 53.7757V57.0215C55.35 57.717 54.8863 58.1807 54.4226 58.1807Z" fill="black"/>
</svg>
