<svg width="85" height="85" viewBox="0 0 85 85" fill="none" xmlns="http://www.w3.org/2000/svg">
<path d="M42.0917 52.0683C39.2438 52.0683 36.401 52.0127 33.5582 52.0936C32.2779 52.129 31.8192 51.7853 31.8343 50.4257C31.9049 44.7395 31.8898 39.0533 31.8343 33.3672C31.8343 32.1895 32.167 31.77 33.3969 31.7801C39.1699 31.8374 44.9429 31.8374 50.716 31.7801C51.9156 31.7801 52.2886 32.1288 52.2735 33.3368C52.218 39.023 52.208 44.7092 52.2735 50.3953C52.2735 51.7196 51.9206 52.129 50.6051 52.0886C47.7824 52.0077 44.9345 52.0683 42.0917 52.0683ZM42.0211 46.9432C43.3658 46.946 44.6573 46.4167 45.6152 45.4704C46.573 44.5241 47.12 43.2371 47.1372 41.8888C47.0852 40.5412 46.515 39.266 45.5463 38.3304C44.5776 37.3948 43.2855 36.8714 41.9405 36.8698C40.6404 36.9036 39.4036 37.44 38.4886 38.3668C37.5737 39.2937 37.0514 40.5393 37.0311 41.8433C37.0077 42.5112 37.1201 43.1769 37.3614 43.7999C37.6027 44.4229 37.9678 44.9901 38.4346 45.4672C38.9014 45.9442 39.46 46.3211 40.0766 46.5748C40.6932 46.8286 41.3548 46.9539 42.0211 46.9432Z" fill="#11120E"/>
<path d="M18.9255 52.0684C16.249 52.0684 13.5674 52.0128 10.8909 52.0936C9.58041 52.1341 8.97555 51.9167 9.00076 50.365C9.10156 44.7597 9.09148 39.1544 9.00076 33.5542C9.00076 32.0682 9.5048 31.7599 10.8607 31.7751C16.4657 31.8458 22.0758 31.8357 27.6808 31.7751C28.9006 31.7751 29.4853 31.9722 29.4651 33.3925C29.3945 39.0803 29.3945 44.7682 29.4651 50.456C29.4651 51.8662 28.9308 52.1088 27.7009 52.0785C24.7825 52.0178 21.854 52.0684 18.9255 52.0684ZM24.2079 41.9596C24.2208 41.2907 24.0994 40.6259 23.8511 40.0049C23.6028 39.3839 23.2326 38.8192 22.7625 38.3445C22.2923 37.8697 21.7318 37.4945 21.1142 37.2412C20.4966 36.9879 19.8346 36.8616 19.1674 36.8699C16.4607 36.8699 14.0312 39.3617 14.1269 42.0304C14.1865 43.3332 14.7369 44.5648 15.6668 45.4767C16.5967 46.3885 17.8369 46.9126 19.1372 46.9432C19.8019 46.971 20.4653 46.8619 21.0864 46.6226C21.7074 46.3833 22.273 46.0189 22.7481 45.5519C23.2233 45.0849 23.598 44.5252 23.849 43.9074C24.1001 43.2895 24.2222 42.6266 24.2079 41.9596Z" fill="#11120E"/>
<path d="M31.8642 64.952C31.8642 62.1063 31.9247 59.2557 31.839 56.405C31.7987 55.0353 32.1464 54.4894 33.6435 54.5096C39.2619 54.5905 44.8804 54.5905 50.4988 54.5096C52.011 54.5096 52.3134 55.0151 52.2932 56.4C52.2277 61.9294 52.2176 67.464 52.2932 72.9935C52.2932 74.4744 52.0009 75.0506 50.3778 75.0152C44.8434 74.9141 39.309 74.9141 33.7745 75.0152C32.1616 75.0455 31.7583 74.5098 31.8289 72.9935C31.9448 70.3197 31.8642 67.6358 31.8642 64.952ZM47.1318 64.6386C47.0728 63.2804 46.4817 62.0004 45.4869 61.0767C44.4922 60.1531 43.1741 59.6603 41.8191 59.7055C41.1474 59.7151 40.4845 59.8598 39.8697 60.1312C39.2549 60.4025 38.7007 60.795 38.24 61.2852C37.7793 61.7755 37.4216 62.3535 37.1879 62.9851C36.9543 63.6166 36.8496 64.2888 36.88 64.9617C36.9104 65.6346 37.0753 66.2945 37.3649 66.9023C37.6545 67.5101 38.0629 68.0533 38.5659 68.4998C39.0689 68.9463 39.6562 69.2869 40.2929 69.5014C40.9297 69.7159 41.603 69.8 42.2728 69.7486C43.5811 69.6826 44.8144 69.1158 45.7184 68.1651C46.6224 67.2144 47.1283 65.9522 47.1318 64.6386Z" fill="#11120E"/>
<path d="M42.2072 29.3136C39.2787 29.3136 36.3501 29.258 33.4216 29.3136C32.2018 29.3439 31.8339 28.9294 31.844 27.7366C31.891 21.9645 31.891 16.1941 31.844 10.4254C31.844 9.31848 32.2321 8.995 33.3006 9.00006C39.1577 9.03712 45.0147 9.03712 50.8718 9.00006C51.9454 9.00006 52.2982 9.31848 52.2881 10.4254C52.2377 16.1975 52.2377 21.9679 52.2881 27.7366C52.2881 28.9244 51.9605 29.3439 50.7407 29.3085C47.8979 29.258 45.05 29.3136 42.2072 29.3136ZM42.0106 14.1757C41.3467 14.1572 40.686 14.2757 40.0697 14.524C39.4534 14.7723 38.8946 15.145 38.428 15.619C37.9614 16.0931 37.597 16.6582 37.3575 17.2795C37.118 17.9007 37.0084 18.5646 37.0356 19.2301C37.06 20.534 37.5861 21.778 38.5038 22.7021C39.4216 23.6261 40.66 24.1587 41.9602 24.1884C43.3063 24.1787 44.5964 23.6471 45.5604 22.705C46.5244 21.7628 47.0875 20.4832 47.1317 19.1341C47.1239 18.4702 46.9848 17.8145 46.7225 17.2049C46.4602 16.5953 46.0798 16.0439 45.6035 15.5828C45.1272 15.1216 44.5644 14.7598 43.9477 14.5183C43.3309 14.2767 42.6725 14.1603 42.0106 14.1757Z" fill="#11120E"/>
<path d="M65.0256 31.8054C67.8785 31.8054 70.7264 31.8509 73.5944 31.8054C74.6932 31.7751 75.0309 32.1137 75.0208 33.2206C74.9704 39.0837 74.9805 44.9468 75.0208 50.8098C75.0208 51.7853 74.7235 52.1088 73.7406 52.1037C67.8735 52.07 62.0063 52.07 56.1392 52.1037C55.0555 52.1037 54.6976 51.8005 54.7077 50.6885C54.7581 44.9063 54.7581 39.1258 54.7077 33.347C54.7077 32.1491 55.0404 31.7599 56.2552 31.7953C59.1585 31.861 62.092 31.8054 65.0256 31.8054ZM69.9098 41.9141C69.9009 41.2504 69.7616 40.5949 69.5001 39.9851C69.2385 39.3753 68.8597 38.8231 68.3854 38.3601C67.911 37.8971 67.3503 37.5323 66.7354 37.2866C66.1204 37.0409 65.4632 36.919 64.8013 36.928C64.1393 36.937 63.4857 37.0766 62.8775 37.3388C62.2694 37.6011 61.7188 37.981 61.2571 38.4566C60.7953 38.9323 60.4315 39.4945 60.1865 40.1112C59.9414 40.7278 59.8199 41.3868 59.8289 42.0506C59.8469 43.3911 60.3952 44.6695 61.3533 45.6046C62.3113 46.5397 63.6006 47.0548 64.9374 47.0367C66.2742 47.0186 67.5491 46.4688 68.4816 45.5081C69.4141 44.5474 69.9278 43.2546 69.9098 41.9141Z" fill="#11120E"/>
<path d="M42.0209 46.9432C41.3545 46.9539 40.6929 46.8286 40.0764 46.5749C39.4598 46.3211 38.9011 45.9443 38.4344 45.4672C37.9676 44.9902 37.6025 44.4229 37.3612 43.7999C37.1199 43.177 37.0075 42.5113 37.0308 41.8434C37.0512 40.5394 37.5735 39.2938 38.4884 38.3669C39.4033 37.44 40.6401 36.9036 41.9403 36.8699C43.2852 36.8715 44.5774 37.3949 45.5461 38.3305C46.5148 39.266 47.0849 40.5412 47.137 41.8889C47.1197 43.2371 46.5728 44.5241 45.6149 45.4705C44.6571 46.4168 43.3656 46.946 42.0209 46.9432Z" fill="#F4D90F"/>
<path d="M24.2078 41.9596C24.2222 42.6275 24.0998 43.2913 23.8481 43.9098C23.5964 44.5284 23.2208 45.0885 22.7446 45.5557C22.2683 46.0228 21.7015 46.387 21.0793 46.6257C20.457 46.8643 19.7926 46.9724 19.127 46.9432C17.8267 46.9126 16.5865 46.3885 15.6566 45.4766C14.7267 44.5648 14.1764 43.3332 14.1167 42.0304C14.0462 39.3616 16.4757 36.8901 19.1572 36.8698C19.8252 36.8602 20.4884 36.9855 21.1071 37.2382C21.7259 37.4909 22.2876 37.8659 22.7588 38.3408C23.2301 38.8157 23.6012 39.3808 23.8501 40.0025C24.0991 40.6242 24.2207 41.2898 24.2078 41.9596Z" fill="#F4D90F"/>
<path d="M47.1319 64.6386C47.1284 65.9522 46.6226 67.2144 45.7185 68.1651C44.8145 69.1158 43.5813 69.6825 42.2729 69.7485C41.6031 69.7999 40.9299 69.7159 40.2931 69.5014C39.6563 69.2868 39.069 68.9462 38.566 68.4998C38.0631 68.0533 37.6546 67.51 37.365 66.9023C37.0754 66.2945 36.9105 65.6346 36.8801 64.9616C36.8497 64.2887 36.9545 63.6166 37.1881 62.985C37.4217 62.3535 37.7795 61.7754 38.2402 61.2852C38.7008 60.7949 39.255 60.4025 39.8699 60.1311C40.4847 59.8598 41.1476 59.715 41.8193 59.7055C43.1743 59.6603 44.4923 60.153 45.4871 61.0767C46.4819 62.0004 47.0729 63.2804 47.1319 64.6386Z" fill="#F4D90F"/>
<path d="M42.0109 14.1758C42.6757 14.1603 43.337 14.2779 43.956 14.5216C44.5751 14.7653 45.1395 15.1303 45.6163 15.5952C46.0931 16.0601 46.4727 16.6157 46.7329 17.2294C46.9932 17.8431 47.1288 18.5026 47.132 19.1695C47.0878 20.5186 46.5247 21.7982 45.5607 22.7404C44.5967 23.6825 43.3066 24.2141 41.9605 24.2239C40.6603 24.1941 39.4218 23.6615 38.5041 22.7375C37.5863 21.8134 37.0603 20.5694 37.0359 19.2655C37.0037 18.5971 37.1096 17.9293 37.3469 17.3039C37.5841 16.6785 37.9477 16.109 38.4148 15.6311C38.8819 15.1532 39.4425 14.7773 40.0613 14.5268C40.6801 14.2764 41.3438 14.1569 42.0109 14.1758Z" fill="#F4D90F"/>
<path d="M69.9095 41.9293C69.9276 43.2698 69.4138 44.5626 68.4813 45.5232C67.5488 46.4839 66.2739 47.0338 64.9371 47.0519C63.6003 47.07 62.3111 46.5548 61.353 45.6197C60.395 44.6847 59.8466 43.4063 59.8286 42.0658C59.8196 41.402 59.9412 40.743 60.1862 40.1263C60.4313 39.5097 60.7951 38.9475 61.2568 38.4718C61.7185 37.9961 62.2692 37.6163 62.8773 37.354C63.4854 37.0917 64.1391 36.9521 64.801 36.9431C65.4629 36.9342 66.1201 37.056 66.7351 37.3018C67.3501 37.5475 67.9107 37.9123 68.3851 38.3753C68.8595 38.8383 69.2382 39.3905 69.4998 40.0003C69.7614 40.6101 69.9006 41.2655 69.9095 41.9293Z" fill="#F4D90F"/>
</svg>
