<svg width="85" height="85" viewBox="0 0 85 85" fill="none" xmlns="http://www.w3.org/2000/svg">
<path d="M39.0769 21.7151H36.3357V24.3481H39.0769V21.7151Z" fill="black"/>
<path d="M44.1985 21.7151H41.4573V24.3481H44.1985V21.7151Z" fill="black"/>
<path d="M49.2837 21.7151H46.5425V24.3481H49.2837V21.7151Z" fill="black"/>
<path d="M39.0769 26.4037H36.3357V29.0367H39.0769V26.4037Z" fill="black"/>
<path d="M44.1985 26.4037H41.4573V29.0367H44.1985V26.4037Z" fill="black"/>
<path d="M49.2837 26.4037H46.5425V29.0367H49.2837V26.4037Z" fill="black"/>
<path d="M39.0769 31.0928H36.3357V33.7257H39.0769V31.0928Z" fill="black"/>
<path d="M44.1985 31.0928H41.4573V33.7257H44.1985V31.0928Z" fill="black"/>
<path d="M49.2837 31.0928H46.5425V33.7257H49.2837V31.0928Z" fill="black"/>
<path d="M39.0769 35.7817H36.3357V38.4147H39.0769V35.7817Z" fill="black"/>
<path d="M44.1985 35.7817H41.4573V38.4147H44.1985V35.7817Z" fill="black"/>
<path d="M49.2837 35.7817H46.5425V38.4147H49.2837V35.7817Z" fill="black"/>
<path d="M39.0769 40.4703H36.3357V43.1033H39.0769V40.4703Z" fill="black"/>
<path d="M44.1985 40.4703H41.4573V43.1033H44.1985V40.4703Z" fill="black"/>
<path d="M49.2837 40.4703H46.5425V43.1033H49.2837V40.4703Z" fill="black"/>
<path d="M39.0769 45.1593H36.3357V47.7923H39.0769V45.1593Z" fill="black"/>
<path d="M44.1985 45.1593H41.4573V47.7923H44.1985V45.1593Z" fill="black"/>
<path d="M49.2837 45.1593H46.5425V47.7923H49.2837V45.1593Z" fill="black"/>
<path d="M39.0769 49.8479H36.3357V52.4809H39.0769V49.8479Z" fill="black"/>
<path d="M44.1985 49.8479H41.4573V52.4809H44.1985V49.8479Z" fill="black"/>
<path d="M49.2837 49.8479H46.5425V52.4809H49.2837V49.8479Z" fill="black"/>
<path d="M53.1793 18H32.4402V34.3749H18.0129V67.81H67.7869V34.3749H53.3596L53.1793 18ZM24.3249 63.5179H21.5837V60.921H24.3249V63.5179ZM24.3249 59.0455H21.5837V56.4125H24.3249V59.0455ZM24.3249 54.6091H21.5837V51.9761H24.3249V54.6091ZM24.3249 50.1366H21.5837V47.5037H24.3249V50.1366ZM24.3249 45.6642H21.5837V43.2476H24.3249V45.6642ZM24.3249 41.2278H21.5837V38.6309H24.3249V41.2278ZM29.4104 63.5179H26.6693V60.921H29.4104V63.5179ZM29.4104 59.0455H26.6693V56.4125H29.4104V59.0455ZM29.4104 54.6091H26.6693V51.9761H29.4104V54.6091ZM29.4104 50.1366H26.6693V47.5037H29.4104V50.1366ZM29.4104 45.6642H26.6693V43.2476H29.4104V45.6642ZM29.4104 41.2278H26.6693V38.6309H29.4104V41.2278ZM61.1504 38.5949H63.8915V41.2278H61.2225L61.1504 38.5949ZM61.1504 43.0673H63.8915V45.6642H61.2225L61.1504 43.0673ZM61.1504 47.5037H63.8915V50.1366H61.2225L61.1504 47.5037ZM61.1504 51.9761H63.8915V54.6091H61.2225L61.1504 51.9761ZM61.1504 56.4125H63.8915V59.0455H61.2225L61.1504 56.4125ZM61.1504 60.8849H63.8915V63.5179H61.2225L61.1504 60.8849ZM56.0648 38.5949H58.8059V41.2278H56.0648V38.5949ZM56.0648 43.0673H58.8059V45.6642H56.0648V43.0673ZM56.0648 47.5037H58.8059V50.1366H56.0648V47.5037ZM56.0648 51.9761H58.8059V54.6091H56.0648V51.9761ZM56.0648 56.4125H58.8059V59.0455H56.0648V56.4125ZM56.0648 60.8849H58.8059V63.5179H56.0648V60.8849ZM51.4841 66.2591H46.1821V57.9634H38.9685V66.2591H33.7026V19.587H51.4841V66.2591Z" fill="black"/>
</svg>
