<svg width="85" height="85" viewBox="0 0 85 85" fill="none" xmlns="http://www.w3.org/2000/svg">
<path d="M54.5827 20.0188C52.8386 18.2664 52.3108 17.7015 49.4557 16.3296C35.6448 9.6276 22.9717 22.8626 25.2722 34.4451C28.7584 34.2894 32.2427 34.2683 35.7289 34.007C35.4019 32.685 35.6429 31.0287 36.7214 29.0439C41.9498 21.7443 53.573 25.0203 49.2167 34.0243C47.4956 37.2388 43.2176 38.3936 39.9131 37.6155C38.3586 38.6152 36.9759 39.8618 35.8188 41.3066C32.6711 45.2878 31.8124 49.0942 33.6253 54.653L42.8715 52.9871C42.8715 52.9871 42.118 48.1834 44.0916 47.3342C57.2103 46.3158 64.0718 29.7779 54.5827 20.0188Z" fill="#1D1D1B"/>
<path d="M42.0248 66.717C44.3926 64.9386 45.1196 61.8943 43.6487 59.9173C42.1778 57.9403 39.066 57.7793 36.6983 59.5578C34.3306 61.3362 33.6035 64.3805 35.0744 66.3575C36.5453 68.3345 39.6571 68.4955 42.0248 66.717Z" fill="#1D1D1B"/>
</svg>
