<svg width="85" height="85" viewBox="0 0 85 85" fill="none" xmlns="http://www.w3.org/2000/svg">
<path fill-rule="evenodd" clip-rule="evenodd" d="M58.3632 23.6368H56.0448V19H51.408V23.6368H32.8609V19H28.2241V23.6368C24.9784 23.1731 21.2689 24.5641 21.2689 28.2736C21.9645 73.4822 13.1546 64.6723 58.3632 65.3678C60.9134 65.3678 63 63.2813 63 60.7311V28.2736C63 25.7233 60.9134 23.6368 58.3632 23.6368ZM58.3632 60.7311H25.9057V35.2287H58.3632V60.7311Z" fill="black"/>
<path fill-rule="evenodd" clip-rule="evenodd" d="M32.397 43.575H29.8468C29.3831 43.575 28.9194 43.1113 28.9194 42.6476V39.4018C28.9194 38.9382 29.3831 38.4745 29.8468 38.4745H32.397C32.8607 38.4745 33.3244 38.9382 33.3244 39.4018V42.6476C33.0925 43.1113 32.8607 43.575 32.397 43.575Z" fill="#86BAE5"/>
<path fill-rule="evenodd" clip-rule="evenodd" d="M40.2799 43.575H36.8024C36.3387 43.575 35.875 43.1113 35.875 42.6476V39.4018C35.875 38.9382 36.3387 38.4745 36.8024 38.4745H40.0481C40.5118 38.4745 40.9755 38.9382 40.9755 39.4018V42.6476C41.2073 43.1113 40.7436 43.575 40.2799 43.575Z" fill="black"/>
<path fill-rule="evenodd" clip-rule="evenodd" d="M47.467 43.575H43.9894C43.5257 43.575 43.062 43.1113 43.062 42.6476V39.4018C43.062 38.9382 43.5257 38.4745 43.9894 38.4745H47.2351C47.6988 38.4745 48.1625 38.9382 48.1625 39.4018V42.6476C48.1625 43.1113 47.9306 43.575 47.467 43.575Z" fill="black"/>
<path fill-rule="evenodd" clip-rule="evenodd" d="M54.4219 43.575H51.1761C50.7125 43.575 50.2488 43.1113 50.2488 42.6476V39.4018C50.2488 38.9382 50.7125 38.4745 51.1761 38.4745H54.4219C54.8856 38.4745 55.3492 38.9382 55.3492 39.4018V42.6476C55.3492 43.1113 54.8856 43.575 54.4219 43.575Z" fill="black"/>
<path fill-rule="evenodd" clip-rule="evenodd" d="M33.0925 50.762H29.8468C29.3831 50.762 28.9194 50.2983 28.9194 49.8346V46.5889C28.9194 46.1252 29.3831 45.6615 29.8468 45.6615H33.0925C33.5562 45.6615 34.0199 46.1252 34.0199 46.5889V49.8346C34.0199 50.5301 33.5562 50.762 33.0925 50.762Z" fill="black"/>
<path fill-rule="evenodd" clip-rule="evenodd" d="M40.2799 50.762H36.8024C36.3387 50.762 35.875 50.2983 35.875 49.8346V46.5889C35.875 46.1252 36.3387 45.6615 36.8024 45.6615H40.0481C40.5118 45.6615 40.9755 46.1252 40.9755 46.5889V49.8346C41.2073 50.5301 40.7436 50.762 40.2799 50.762Z" fill="#86BAE5"/>
<path fill-rule="evenodd" clip-rule="evenodd" d="M47.467 50.762H43.9894C43.5257 50.762 43.062 50.2983 43.062 49.8346V46.5889C43.062 46.1252 43.5257 45.6615 43.9894 45.6615H47.2351C47.6988 45.6615 48.1625 46.1252 48.1625 46.5889V49.8346C48.1625 50.5301 47.9306 50.762 47.467 50.762Z" fill="black"/>
<path fill-rule="evenodd" clip-rule="evenodd" d="M54.4219 50.762H51.1761C50.7125 50.762 50.2488 50.2983 50.2488 49.8346V46.5889C50.2488 46.1252 50.7125 45.6615 51.1761 45.6615H54.4219C54.8856 45.6615 55.3492 46.1252 55.3492 46.5889V49.8346C55.3492 50.5301 54.8856 50.762 54.4219 50.762Z" fill="black"/>
<path fill-rule="evenodd" clip-rule="evenodd" d="M33.0925 58.1807H29.8468C29.3831 58.1807 28.9194 57.717 28.9194 57.2533V53.7757C28.9194 53.3121 29.3831 52.8484 29.8468 52.8484H33.0925C33.5562 52.8484 34.0199 53.3121 34.0199 53.7757V57.0215C34.0199 57.717 33.5562 58.1807 33.0925 58.1807Z" fill="black"/>
<path fill-rule="evenodd" clip-rule="evenodd" d="M40.2799 58.1807H36.8024C36.3387 58.1807 35.875 57.717 35.875 57.2533V53.7757C35.875 53.3121 36.3387 52.8484 36.8024 52.8484H40.0481C40.5118 52.8484 40.9755 53.3121 40.9755 53.7757V57.0215C41.2073 57.717 40.7436 58.1807 40.2799 58.1807Z" fill="black"/>
<path fill-rule="evenodd" clip-rule="evenodd" d="M47.467 58.1807H43.9894C43.5257 58.1807 43.062 57.717 43.062 57.2533V53.7757C43.062 53.3121 43.5257 52.8484 43.9894 52.8484H47.2351C47.6988 52.8484 48.1625 53.3121 48.1625 53.7757V57.0215C48.1625 57.717 47.9306 58.1807 47.467 58.1807Z" fill="#86BAE5"/>
<path fill-rule="evenodd" clip-rule="evenodd" d="M54.4219 58.1807H51.1761C50.7125 58.1807 50.2488 57.717 50.2488 57.2533V53.7757C50.2488 53.3121 50.7125 52.8484 51.1761 52.8484H54.4219C54.8856 52.8484 55.3492 53.3121 55.3492 53.7757V57.0215C55.3492 57.717 54.8856 58.1807 54.4219 58.1807Z" fill="black"/>
</svg>
