<svg width="85" height="85" viewBox="0 0 85 85" fill="none" xmlns="http://www.w3.org/2000/svg">
<path d="M17.7189 78H11V20.0714H17.7189V78Z" fill="#E3000B"/>
<path d="M43.3087 77.9999H36.594L36.5898 29.9106H43.3046L43.3087 77.9999Z" fill="#E3000B"/>
<path d="M56.1051 65.7443H49.3862V23.1358H56.1051V65.7443Z" fill="#E3000B"/>
<path d="M47.72 12.532C47.152 12.532 47.1236 13.1985 47.1236 14.2025C47.1236 15.0921 47.1424 15.9428 47.7291 15.9428C48.1913 15.9428 48.2866 15.3489 48.2866 14.2741C48.2866 13.2904 48.249 12.532 47.72 12.532ZM48.3154 16.3321H48.2966C48.1808 16.7109 47.8638 17.151 47.1708 17.151C46.1228 17.151 45.5649 16.3525 45.5649 14.2834C45.5649 12.5639 45.7962 11.3243 47.0746 11.3243C47.5075 11.3243 47.9792 11.4776 48.2389 12.072H48.2582V9.03489H49.8164V17.0078H48.3154V16.3321Z" fill="#868786"/>
<path d="M24.8115 11.4677H26.4265L27.033 15.5537H27.0522L27.6674 11.4677H29.226L27.9376 17.0076H26.0903L24.8115 11.4677Z" fill="#868786"/>
<path d="M30.1841 11.4675H31.7423V17.0074H30.1841V11.4675Z" fill="#868786"/>
<path d="M33.1187 9.035H34.6764V17.0079H33.1187V9.035Z" fill="#868786"/>
<path d="M36.0518 9.035H37.61V17.0079H36.0518V9.035Z" fill="#868786"/>
<path d="M41.3081 13.5464C41.3081 12.7678 41.2106 12.3484 40.78 12.3484C40.2698 12.3484 40.1832 12.7987 40.1832 13.5464H41.3081ZM40.1832 14.5089V14.8475C40.1832 15.7074 40.2977 16.1273 40.7503 16.1273C41.1542 16.1273 41.2793 15.809 41.3182 15.113H42.7601C42.7312 16.4857 42.03 17.1512 40.7402 17.1512C38.7789 17.1512 38.625 15.6867 38.625 14.0383C38.625 12.4819 39.0478 11.3245 40.7402 11.3245C42.6735 11.3245 42.8087 12.6246 42.8087 14.5089H40.1832Z" fill="#868786"/>
<path d="M53.5141 13.5464C53.5141 12.7678 53.418 12.3484 52.9851 12.3484C52.4749 12.3484 52.3888 12.7987 52.3888 13.5464H53.5141ZM52.3888 14.5089V14.8475C52.3888 15.7074 52.5046 16.1273 52.9563 16.1273C53.3602 16.1273 53.4844 15.809 53.5233 15.113H54.9656C54.9368 16.4857 54.2346 17.1512 52.9466 17.1512C50.984 17.1512 50.8301 15.6867 50.8301 14.0383C50.8301 12.4819 51.2533 11.3245 52.9466 11.3245C54.8791 11.3245 55.0133 12.6246 55.0133 14.5089H52.3888Z" fill="#868786"/>
<path d="M23.7935 68.7496H30.5123V36.0385H23.7935V68.7496Z" fill="#E3000B"/>
<path d="M30.5123 23.1353H23.7935V29.9102H30.5123V23.1353Z" fill="#E3000B"/>
<path d="M72.9999 39.049V33.1774H62.1821V71.8723H72.9999V66.0003H68.7521V55.4608H72.9999V49.5889H68.7521V39.049H72.9999Z" fill="#E3000B"/>
<path d="M30.1841 9.03498H31.7423V10.5997H30.1841V9.03498Z" fill="#868786"/>
<path d="M63.5682 17.7958C63.8819 14.5915 68.2726 15.0076 68.2726 15.0076L66.6169 12.9409C66.6169 12.9409 64.6432 12.6716 63.7638 14.9379C63.7505 14.9721 63.7335 15.0169 63.7148 15.0695C63.7024 15.1042 63.6749 15.1268 63.6378 15.1162C63.6103 15.1083 63.5906 15.0848 63.5998 15.0386C63.6103 14.985 63.619 14.9564 63.6282 14.919C64.1774 12.6716 65.3449 10.9771 65.3449 10.9771L63.1578 7.99998L60.9707 10.9771C60.9707 10.9771 62.1387 12.6716 62.6874 14.919C62.6966 14.9564 62.7057 14.985 62.7158 15.0386C62.725 15.0848 62.7057 15.1083 62.6778 15.1162C62.6411 15.1268 62.6132 15.1042 62.6008 15.0695C62.5821 15.0169 62.5651 14.9721 62.5518 14.9379C61.6729 12.6716 59.6992 12.9409 59.6992 12.9409L58.043 15.0076C58.043 15.0076 62.4337 14.5915 62.7474 17.7958H63.5682Z" fill="#E3000B"/>
</svg>
