<svg width="85" height="85" viewBox="0 0 85 85" fill="none" xmlns="http://www.w3.org/2000/svg">
<g clip-path="url(#clip0_630_1224)">
<path d="M44.0509 48.9549L42.8477 48.3452L41.2071 47.4704L39.4571 46.5691C39.129 46.3836 38.7462 46.2775 38.7188 45.8269C38.6915 45.3763 39.0743 45.1642 39.4024 44.9786L41.5079 43.8122L44.4884 42.1687C45.5821 41.559 46.6485 40.9758 47.6876 40.3396C47.8983 40.2039 48.1456 40.1316 48.3985 40.1316C48.6514 40.1316 48.8987 40.2039 49.1094 40.3396L52.5274 42.1422L55.2618 43.6002C55.4501 43.7115 55.6064 43.867 55.7163 44.0523C55.8262 44.2376 55.8862 44.4468 55.8907 44.6605V53.9651C55.8668 54.6665 55.7473 55.3618 55.5352 56.0328C55.1053 57.416 54.2101 58.6198 52.9923 59.4524C52.279 59.9002 51.5395 60.3074 50.7774 60.6718L48.8907 61.7321L44.461 64.224L41.4259 65.894C41.2344 65.9853 41.0239 66.0327 40.8106 66.0327C40.5973 66.0327 40.3868 65.9853 40.1954 65.894L37.461 64.7541L33.7969 63.2166L29.3126 61.0694C28.9132 60.9144 28.5742 60.6416 28.3436 60.2896C28.113 59.9376 28.0023 59.5241 28.0274 59.1078C28.0274 55.7677 28.0274 52.4276 28.0274 49.114C28.0401 48.9166 28.102 48.7252 28.208 48.5562C28.314 48.3872 28.4608 48.2457 28.6357 48.144C28.8106 48.0422 29.0084 47.9832 29.2121 47.9721C29.4158 47.961 29.6192 47.9981 29.8048 48.0801C30.6251 48.4513 31.3907 48.9284 32.1837 49.3526L35.5196 51.2082C36.0391 51.4998 36.6133 51.7914 37.1055 52.136C37.2973 52.28 37.5329 52.3582 37.7755 52.3582C38.018 52.3582 38.2537 52.28 38.4454 52.136L40.004 51.2082L43.1485 49.4851C43.4766 49.3526 43.6954 49.167 44.0509 48.9549Z" fill="#E4221F"/>
<path d="M29.3397 41.3205C28.8202 41.1084 28.3006 40.9228 28.1092 40.3396C28.0964 40.2074 28.0964 40.0743 28.1092 39.942C28.1092 36.7079 28.1092 33.5004 28.1092 30.2928C28.161 29.3655 28.4224 28.4605 28.8749 27.6419C29.3766 26.6374 30.1519 25.785 31.1171 25.1766C31.9647 24.6465 32.8944 24.1958 33.8514 23.7187L35.5741 22.6848L38.6639 20.9883L41.6171 19.2917C41.9337 19.1088 42.3012 19.0258 42.6686 19.0543C43.036 19.0828 43.3852 19.2214 43.6678 19.4507C44.3514 19.8484 45.0897 20.193 45.8007 20.5906L48.535 22.2342L50.5311 23.321C51.3788 23.7982 52.2538 24.2223 53.0468 24.7525C53.497 25.0886 53.7925 25.5831 53.8692 26.1289C53.946 26.6747 53.7979 27.2278 53.4569 27.6685C52.9977 28.1683 52.4399 28.574 51.8163 28.8614L48.3983 30.823L45.3905 32.493L43.4764 33.6064L40.5233 35.2765C40.3319 35.2765 40.0585 35.2765 40.0311 35.6211L39.1288 36.0982L36.5311 37.5032L34.3983 38.7491L31.3358 40.4987C30.7431 40.9155 30.0606 41.1964 29.3397 41.3205V41.3205Z" fill="#137CC0"/>
<path d="M29.3398 41.3204C30.0321 41.1851 30.6854 40.9046 31.2539 40.4986L34.3164 38.749L36.4492 37.5031L39.0469 36.0981L39.9492 35.621L40.7422 36.1246L42.2734 36.8934C42.957 37.238 43.6406 37.6356 44.3516 37.9802C44.5352 38.0514 44.6861 38.1845 44.7765 38.355C44.867 38.5255 44.8908 38.7219 44.8437 38.9081C44.8286 39.0789 44.7604 39.2413 44.6481 39.3738C44.5358 39.5063 44.3848 39.6027 44.2148 39.6503L42.5469 40.5516C41.918 40.8962 41.2891 41.2408 40.6875 41.6119L39.1836 42.5132L37.7617 43.335L36.0391 44.3158C35.8945 44.4 35.7291 44.4444 35.5606 44.4444C35.392 44.4444 35.2266 44.4 35.082 44.3158L32.5117 42.9904L29.3398 41.3204Z" fill="#26B9DC"/>
</g>
<defs>
<clipPath id="clip0_630_1224">
<rect width="28" height="47" fill="white" transform="translate(28 19)"/>
</clipPath>
</defs>
</svg>
