<svg width="85" height="85" viewBox="0 0 85 85" fill="none" xmlns="http://www.w3.org/2000/svg">
<path d="M41.1566 43.5497C35.4602 43.6878 28.6191 39.9211 28.6191 30.8468C28.6191 22.0099 34.9914 17.9671 41.2656 18.0002C48.2865 18.0389 53.8412 22.9709 53.803 30.9351C53.7703 38.5404 48.0685 43.6713 41.1566 43.5497ZM47.2999 30.4049C47.2999 30.5044 47.2999 30.2613 47.2999 30.0183C47.1691 25.7656 42.9391 22.8108 38.6545 24.672C35.3566 26.108 34.6644 29.7532 35.1713 32.2828C35.6783 34.8123 37.0792 36.6183 39.5758 37.2535C40.7307 37.6101 41.9656 37.6008 43.1152 37.2267C44.2647 36.8526 45.274 36.1316 46.008 35.1603C47.0383 33.8568 47.3871 32.3435 47.2999 30.3773V30.4049Z" fill="#120104"/>
<path d="M27.981 42.8815H20.682L16.5992 35.8894H13.4103V42.887H7.37598V18.9999C7.5068 18.906 7.60492 18.779 7.70303 18.779C11.715 18.8066 15.7379 18.4034 19.7281 19.0054C21.5228 19.2786 23.169 20.1726 24.3872 21.5357C25.6054 22.8988 26.3204 24.6471 26.4111 26.4836C26.591 29.3832 25.7896 31.8686 23.582 33.8072C23.3056 33.9983 23.1108 34.2884 23.0369 34.619L25.5171 38.7116C26.2857 40.0427 27.0761 41.3682 27.981 42.8815ZM13.503 24.2523V30.2282C13.6978 30.28 13.8965 30.3151 14.0971 30.3332C15.2309 30.3332 16.3648 30.3608 17.4986 30.3332C19.2593 30.2945 20.2241 29.3059 20.2895 27.5054C20.3658 25.5558 19.51 24.3959 17.7275 24.2634C16.3702 24.1695 14.9966 24.2523 13.503 24.2523Z" fill="#120104"/>
<path d="M56.6153 18.7734H62.8349C63.3201 19.2042 63.1075 19.7897 63.1075 20.3033C63.1075 24.8653 63.1075 29.4274 63.1075 33.9894C63.1075 35.2707 62.9494 36.5963 64.1977 37.4468C64.8407 37.8987 65.5749 38.2001 66.347 38.329C67.1192 38.458 67.91 38.4113 68.6621 38.1924C70.7062 37.6401 71.3876 36.7178 71.3876 34.5472C71.3876 29.6833 71.3876 24.8175 71.3876 19.9498C71.3876 19.5964 71.4258 19.2429 71.4476 18.8121H77.7436C78.1033 19.4086 77.9398 20.0327 77.9452 20.6181C77.9452 25.1802 77.9452 29.7403 77.9452 34.2987C77.9452 39.4351 75.8248 42.2408 70.9079 43.6326C67.7103 44.5671 64.2837 44.2599 61.2977 42.771C58.2942 41.3184 56.479 38.9049 56.3918 35.5027C56.2991 30.1564 56.3918 24.8046 56.3918 19.4528C56.4428 19.2191 56.5177 18.9914 56.6153 18.7734Z" fill="#120104"/>
<path d="M7 67.7406V46.3941C7.35977 45.9578 7.80676 46.0903 8.20469 46.0903C10.783 46.0903 13.3614 46.0903 15.9397 46.0903C16.9597 46.0653 17.9729 46.2657 18.9087 46.6778C19.8444 47.0898 20.6803 47.7036 21.3581 48.4763C23.1515 50.5033 23.5821 54.4136 21.418 56.4571C21.4933 56.6128 21.5886 56.7576 21.7015 56.8879C23.8819 58.7988 24.378 60.8534 23.3968 63.7364C23.0075 64.9257 22.2669 65.9651 21.2754 66.7139C20.2838 67.4627 19.0891 67.8847 17.8531 67.9229C14.3753 67.9947 10.903 67.9229 7.42518 67.9229C7.33251 67.9174 7.21804 67.8511 7 67.7406ZM12.3911 63.0405C13.8738 63.0405 15.1875 63.0902 16.4957 63.0405C17.804 62.9908 18.4581 62.201 18.4145 61.1075C18.4059 60.6138 18.2052 60.1435 17.856 59.7991C17.5069 59.4546 17.0376 59.2638 16.5503 59.2683C15.1875 59.2075 13.8247 59.2683 12.3911 59.2683V63.0405ZM12.3911 54.651C13.5864 54.7029 14.7835 54.6937 15.9779 54.6234C17.0354 54.5185 17.4769 53.7839 17.3843 52.6959C17.3857 52.4831 17.3434 52.2724 17.2602 52.0771C17.177 51.8818 17.0547 51.7061 16.9009 51.5612C16.7472 51.4163 16.5654 51.3054 16.367 51.2355C16.1687 51.1655 15.9583 51.1381 15.7489 51.155C14.6587 51.1108 13.5249 51.155 12.3747 51.155L12.3911 54.651Z" fill="#120104"/>
<path d="M34.0427 45.8749H37.9675C41.2708 53.1101 44.6014 60.4005 47.992 67.8345H41.6142C40.9874 67.2104 40.9492 66.1224 40.197 65.3326H31.9768C31.2409 65.9236 31.1864 66.9895 30.5377 67.8621H24.04L34.0427 45.8749ZM35.9997 54.7946C35.1602 56.8768 34.2717 58.5448 33.732 60.4337H38.4417C37.7357 58.5112 36.9278 56.6288 36.0215 54.7946H35.9997Z" fill="#120104"/>
<path d="M57.8037 67.8511L64.672 57.0039L58.327 46.2008C59.4172 45.875 60.4366 46.0572 61.4123 46.0241C62.388 45.991 63.4401 46.0241 64.563 46.0241L71.1043 57.0094C68.8257 60.6178 66.5472 64.2335 64.2687 67.8566L57.8037 67.8511Z" fill="#E30B6B"/>
<path d="M50.2324 46.0793H55.6507C55.8579 47.5706 55.9124 65.2885 55.7107 67.8014C53.9772 67.9119 52.2056 67.8014 50.4504 67.8567C50.047 66.4759 49.8998 51.5471 50.2324 46.0793Z" fill="#120104"/>
<path d="M72.2981 59.2628C73.2411 60.3067 76.6862 65.9788 77.4821 67.8125H71.3115L69.251 64.3661L72.2981 59.2628Z" fill="#120104"/>
<path d="M69.3926 49.8571C70.2375 48.5537 71.0279 47.2999 71.8564 46.0683H77.8526L72.3688 54.8444L69.3926 49.8571Z" fill="#120104"/>
</svg>
