<svg width="85" height="85" viewBox="0 0 85 85" fill="none" xmlns="http://www.w3.org/2000/svg">
<path d="M56.5723 18.7898L24.9253 65.3499L25.4889 66.1302L58.6532 20.1771L56.5723 18.7898Z" fill="black"/>
<path d="M28.004 48.8766L33.293 49.1367L45.3882 33.0097L32.7728 19.7874L10.6199 40.8131H16.9493L17.5996 61.5354L17.7729 61.8822H23.6688L28.0474 56.0297L28.004 48.8766Z" fill="black"/>
<path d="M56.442 30.1046H56.0518L54.0576 32.619H56.442V30.1046Z" fill="black"/>
<path d="M51.6306 35.6538L50.5034 37.0411H51.6306V35.6538Z" fill="black"/>
<path d="M56.4429 34.5699H53.8418V37.041H56.4429V34.5699Z" fill="black"/>
<path d="M51.6304 38.9919H49.0293V41.463H51.6304V38.9919Z" fill="black"/>
<path d="M56.4429 38.9919H53.8418V41.463H56.4429V38.9919Z" fill="black"/>
<path d="M46.8189 43.4574H45.4316L44.2178 44.9747V45.9285H46.8189V43.4574Z" fill="black"/>
<path d="M51.6304 43.4574H49.0293V45.9285H51.6304V43.4574Z" fill="black"/>
<path d="M56.4429 43.4574H53.8418V45.9285H56.4429V43.4574Z" fill="black"/>
<path d="M46.8189 47.8794H44.2178V50.3505H46.8189V47.8794Z" fill="black"/>
<path d="M51.6304 47.8794H49.0293V50.3505H51.6304V47.8794Z" fill="black"/>
<path d="M56.4429 47.8794H53.8418V50.3505H56.4429V47.8794Z" fill="black"/>
<path d="M60.1275 33.2262V24.9026L58.6535 26.7234V63.3558H53.668V55.5525H46.9484V63.3992H41.963V47.7491L36.8908 54.1652H37.7145V56.6363H35.2434V56.3762L32.9891 59.194V60.8414H31.6885L28.4805 64.8732H74.0001V33.2262H60.1275ZM37.7145 60.8414H35.2434V58.3704H37.8445L37.7145 60.8414ZM65.5031 60.8414H62.9453V58.3704H65.5898L65.5031 60.8414ZM65.5031 56.5062H62.9453V54.0352H65.5898L65.5031 56.5062ZM65.5031 52.171H62.9453V49.7H65.5898L65.5031 52.171ZM65.5031 47.8358H62.9453V45.7116H65.5898L65.5031 47.8358ZM65.5031 43.5006H62.9453V41.5064H65.5898L65.5031 43.5006ZM65.5031 39.1654H62.9453V37.2579H65.5898L65.5031 39.1654ZM70.3152 60.2778H67.7574V57.8068H70.3152V60.2778ZM70.3152 55.9426H67.7574V53.4716H70.3152V55.9426ZM70.3152 51.6074H67.7574V49.1364H70.3152V51.6074ZM70.3152 47.2722H67.7574V45.7116H70.3152V47.2722ZM70.3152 42.937H67.7574V41.5064H70.3152V42.937ZM70.3152 38.6018H67.7574V37.2579H70.3152V38.6018Z" fill="black"/>
</svg>
