<svg width="85" height="85" viewBox="0 0 85 85" fill="none" xmlns="http://www.w3.org/2000/svg">
<path d="M70 58.4375L69.6094 61.1914L68.7891 63.8672L64.0234 68.0078L56.7578 70L54.707 69.8633L50.6055 68.8086L46.5234 67.3047L39.6875 64.0625L29.3555 55.6445L20.9375 45.3125L17.6953 38.4766L16.1914 34.3945L15.1367 30.293L15 28.2422L16.9922 20.9766L21.1328 16.2109L23.8086 15.3906L26.5625 15L27.3828 15.1172L34.7266 27.1289L35 28.2422L33.8867 30.1953L29.043 34.4141L27.9297 36.2109L28.125 37.0898L28.457 37.8906L29.4531 39.5703L36.25 48.75L45.4297 55.5469L47.1094 56.543L47.9102 56.875L48.7891 57.0703L50.5859 55.957L54.8047 51.1133L56.7578 50L57.8711 50.2734L69.8828 57.6172L70 58.4375Z" fill="#74B3E2"/>
</svg>
