<svg width="85" height="85" viewBox="0 0 85 85" fill="none" xmlns="http://www.w3.org/2000/svg">
<path fill-rule="evenodd" clip-rule="evenodd" d="M58.3632 23.6368H56.0448V19H51.408V23.6368H32.8609V19H28.2241V23.6368C24.9784 23.1731 21.2689 24.5641 21.2689 28.2736C21.9645 73.4822 13.1546 64.6723 58.3632 65.3678C60.9134 65.3678 63 63.2813 63 60.7311V28.2736C63 25.7233 60.9134 23.6368 58.3632 23.6368ZM58.3632 60.7311H25.9057V35.2287H58.3632V60.7311Z" fill="black"/>
<path d="M40.3411 51.9323C40.3611 51.9508 40.3812 51.9879 40.4012 51.9879H41.943C42.1432 51.9879 42.1432 51.821 42.1432 51.7283C42.1432 51.209 42.0631 50.7082 42.0631 50.1703C42.0631 48.7793 42.1632 47.2956 42.7639 45.9973C42.9641 45.682 43.8051 44.1798 43.9653 43.8459C45.5271 40.5817 43.1243 39.506 40.9819 39.8028C40.4613 39.8769 38.5991 40.4148 38.5991 41.0639V41.1381C39.0997 42.5106 39.1798 42.6218 39.2999 42.6218C39.9006 42.2138 40.5414 41.9356 41.2622 41.9356C44.566 41.9356 39.0196 45.0329 40.3411 51.9323ZM40.0608 54.8626C40.0608 55.4747 40.5614 55.6787 41.1621 55.6787C42.4035 55.6787 42.9441 54.9368 42.5236 54.0466C41.6226 52.1363 40.0608 52.9152 40.0608 54.8626Z" fill="black"/>
</svg>
