<svg width="85" height="85" viewBox="0 0 85 85" fill="none" xmlns="http://www.w3.org/2000/svg">
<path d="M59.6324 45.4646L48.3101 35.2777L38.8801 36.76L29.0086 27.5823L32.2886 23.7977V21.5L19 23.7977L14 40.5L20.8086 44.3607L37.8393 62.1799L37.8709 62.1484L40.1732 62.9999L43.9263 59.2784L43.8632 58.7422L45.787 59.2784L49.5086 55.5569L49.4455 54.9892L51.3693 55.5569L55.0909 51.8353L55.0593 51.2676L56.9832 51.8353L60.7047 48.0823L59.6324 45.4646Z" fill="black"/>
<path d="M60.7048 27.5823L49.5087 22L32.7302 27.5823V28.4969L37.3979 33.1646L37.8394 33.1331H37.871L49.5087 31.3038L61.0202 41.7746L64.3948 48.0823H68.1478V25.7215L60.7048 27.5823Z" fill="black"/>
</svg>
