<svg width="85" height="85" viewBox="0 0 85 85" fill="none" xmlns="http://www.w3.org/2000/svg">
<path d="M27.2968 34.6353C27.9969 34.6353 28.4636 34.402 28.6969 34.1686C29.1637 34.402 29.397 34.6353 29.8638 34.8687C30.3305 35.1021 30.7972 35.1021 31.2639 35.1021L43.3988 34.402C43.6322 34.402 43.8656 34.1686 44.0989 33.9352C44.3323 33.7019 44.3323 33.4685 44.3323 33.2352V22.9672H44.5656H44.799C44.799 22.9672 44.799 22.9672 45.0324 22.9672C45.0324 22.9672 45.0324 22.9672 45.0324 22.7338C45.0324 22.7338 45.0324 22.7338 45.0324 22.5004V21.1003V20.8669V20.6335H43.8656C43.6322 20.1668 42.9321 19.7001 42.4654 19.4667C41.9987 19.2334 41.2986 19 40.5985 19L28.4636 19.4667C28.2302 19.4667 27.9969 19.7001 27.7635 19.7001C27.5301 19.7001 27.5301 20.4002 27.5301 20.6335L27.7635 24.8341H26.1299H25.8966V25.0674V25.3008C25.8966 25.3008 25.8966 25.3008 26.1299 25.3008H27.7635V26.0009H26.1299V26.2343H26.3633H27.7635V27.6344C27.2968 27.8678 26.83 27.6344 26.5967 27.8678C25.1965 27.8678 24.4964 29.5013 24.7298 31.1349C24.7298 32.7684 24.7298 34.6353 27.2968 34.6353ZM40.5985 24.6007C40.8318 24.6007 40.8318 24.6007 41.0652 24.6007C41.0652 24.6007 41.0652 24.6007 41.0652 24.8341V27.4011H40.3651L40.5985 24.6007C40.5985 24.6007 40.3651 24.8341 40.5985 24.6007ZM37.3314 24.8341C37.3314 24.6007 37.3314 24.6007 37.3314 24.8341C37.5647 24.8341 37.5647 24.8341 37.7981 24.8341C37.7981 24.8341 37.7981 24.8341 37.7981 25.0674V28.1012H37.098L37.3314 24.8341Z" fill="#1E1E1C"/>
<path d="M61.3688 54.0045C60.9021 54.0045 60.6687 54.0045 60.4354 54.2379L61.1354 48.4038C61.1354 48.1704 61.1354 47.9371 60.9021 47.9371C60.9021 47.7037 60.6687 47.7037 60.4354 47.7037L60.9021 46.0702L59.7353 47.4703H58.8018L59.0352 46.0702C59.0352 46.0702 59.0352 46.0702 59.0352 45.8368C59.0352 45.8368 59.0352 45.8368 58.8018 45.8368H58.5684C58.5684 45.8368 58.5684 45.8368 58.5684 46.0702L58.3351 47.4703H57.635L57.8684 45.8368H57.635C57.635 45.8368 57.635 45.8368 57.635 46.0702L57.4016 47.237L49.4673 46.5369C48.7672 46.5369 48.0671 46.5369 47.6004 47.0036C47.1336 47.237 46.6669 47.7037 46.2002 48.4038L44.8 49.1039L44.5667 49.3372V49.5706L45.2667 50.5041C45.2667 50.5041 45.2667 50.5041 45.5001 50.5041C45.5001 50.5041 45.5001 50.5041 45.7335 50.5041C45.9668 50.5041 45.7335 50.5041 45.9668 50.5041L45.5001 57.505C45.5001 57.7383 45.5001 57.9717 45.7335 58.205C45.9668 58.4384 46.2002 58.4384 46.4336 58.4384L56.9349 59.6052C57.4016 59.6052 57.8684 59.6052 58.1017 59.6052C58.5684 59.3719 58.8018 59.3719 59.2685 59.1385C59.5019 59.3719 59.7353 59.6052 60.4354 59.6052C62.769 59.8386 62.769 58.4384 63.0023 57.0382C63.0023 55.4047 62.3023 54.0045 61.3688 54.0045ZM49.2339 53.0711H48.7672L49.0006 50.9708L49.2339 53.0711ZM52.0343 53.5378H51.5675L51.8009 51.2041C51.8009 51.2041 51.8009 51.2041 51.8009 50.9708C51.8009 50.9708 51.8009 50.9708 52.0343 50.9708H52.2676C52.2676 50.9708 52.2676 50.9708 52.2676 51.2041L52.0343 53.5378Z" fill="#1E1E1C"/>
<path d="M59.2686 71.7401C59.2686 71.5067 59.0352 71.5067 59.0352 71.5067C59.0352 71.5067 58.8019 71.5067 58.5685 71.5067H58.3352V67.3062C58.5685 67.3062 58.8019 67.0728 58.8019 67.0728C59.0353 66.8394 59.0352 66.8394 59.0352 66.6061L59.2686 62.4055C59.2686 61.9388 59.0353 61.7054 58.8019 61.4721C58.5685 61.2387 58.1018 61.0053 57.8684 61.0053L48.0672 59.8385C47.6005 59.8385 47.1337 59.8385 46.667 60.0719C46.2003 60.3053 45.7335 60.5386 45.7335 61.0053C45.0335 60.5386 44.3334 60.0719 43.8666 59.3718C43.3999 58.6717 43.1665 57.7383 43.3999 57.0382C43.6333 57.0382 43.6333 57.0382 43.8666 56.8048C44.1 56.8048 44.1 56.5714 44.1 56.5714L44.3334 56.1047V55.8713C44.3334 55.8713 44.3334 55.638 44.1 55.638C43.8666 55.638 43.8666 55.4046 43.8666 55.4046H43.6333H42.6998L43.1665 38.6025C43.1665 38.1357 42.9332 37.669 42.6998 37.4357C42.4665 37.2023 41.9997 36.7356 41.533 36.5022H30.0982C29.3981 36.5022 28.698 36.7356 27.9979 37.2023C27.5312 37.669 27.0645 38.3691 27.0645 38.8358C26.131 39.3026 25.4309 40.236 24.7308 40.9361C24.2641 41.8696 23.7974 42.803 23.7974 43.9698V53.071H23.564C23.3307 53.071 23.0973 53.071 23.0973 53.3044C23.0973 53.5377 22.8639 53.5377 22.8639 53.7711L22.3972 54.2378C22.3972 54.4712 22.3972 54.4712 22.3972 54.7045C22.3972 54.9379 22.3972 54.9379 22.6306 55.1713C22.8639 55.4046 22.8639 55.4046 22.8639 55.4046C22.8639 55.4046 23.0973 55.4046 23.3307 55.4046H25.1976C25.4309 55.4046 25.4309 55.4046 25.6643 55.4046C25.8977 55.4046 25.8977 55.1713 25.8977 55.1713C25.8977 54.9379 26.131 54.9379 26.131 54.7045C26.131 54.4712 26.131 54.4712 26.131 54.2378L25.8977 53.7711C25.8977 53.5377 25.6643 53.5377 25.6643 53.3044C25.4309 53.3044 25.4309 53.071 25.1976 53.071H24.7308V43.9698C24.7308 43.2697 24.9642 42.3363 25.4309 41.6362C25.8977 40.9361 26.3644 40.4694 27.0645 40.0026L26.131 59.6052C26.131 59.8385 26.131 59.8385 26.131 60.0719C26.131 60.3053 26.131 60.3053 26.3644 60.3053C26.5978 60.3053 26.5978 60.5386 26.5978 60.5386C26.8311 60.5386 26.8311 60.5386 27.0645 60.5386H28.698L28.2313 71.9734C27.0645 72.2068 26.131 72.6735 25.4309 73.3736C24.7308 74.0737 24.4975 75.0071 24.2641 76.174C24.2641 76.174 24.2641 76.174 24.2641 76.4073C24.2641 76.6407 24.2641 76.4073 24.2641 76.6407C24.2641 76.874 24.2641 76.6407 24.4975 76.6407C24.4975 76.6407 24.4975 76.6407 24.7308 76.6407H32.8986C32.8986 76.6407 32.8986 76.6407 33.1319 76.6407C33.1319 76.6407 33.1319 76.6407 33.3653 76.6407C33.3653 76.6407 33.3653 76.6407 33.3653 76.4073C33.3653 76.4073 33.3653 76.4073 33.3653 76.174C33.3653 75.2405 32.8986 74.0737 32.1985 73.3736C31.265 72.6735 30.3316 72.2068 29.3981 71.9734L29.8648 60.5386L36.8657 61.0053V72.9069C36.399 73.1402 35.9323 73.607 35.6989 74.307C35.4656 75.0071 35.2322 75.4739 35.2322 75.9406C35.2322 75.9406 35.2322 75.9406 35.2322 76.174C35.2322 76.174 35.2322 76.174 35.2322 76.4073C35.2322 76.4073 35.2322 76.4073 35.4656 76.4073C35.6989 76.4073 35.4656 76.4073 35.6989 76.4073H43.1665C43.1665 76.4073 43.1665 76.4073 43.3999 76.4073H50.6342C50.6342 76.4073 50.6342 76.4073 50.8675 76.4073C50.8675 75.7072 50.4008 74.7738 49.7007 74.307C49.0006 73.8403 48.3005 73.3736 47.3671 73.3736L47.8338 66.8394L53.9013 67.0728V74.0737C53.4345 74.307 53.2012 74.7738 52.7344 75.0071C52.5011 75.4739 52.2677 75.9406 52.2677 76.4073C52.2677 76.4073 52.2677 76.4073 52.5011 76.4073H59.2686C59.2686 76.4073 59.2686 76.4073 59.502 76.4073C59.7353 76.4073 59.502 76.4073 59.502 76.4073C59.502 75.9406 59.2686 75.4739 59.0352 75.0071C58.8019 74.5404 58.3352 74.307 57.8684 73.8403C57.4017 73.3736 56.935 73.3736 56.2349 73.3736C55.7682 73.3736 55.0681 73.3736 54.6013 73.607V67.3062L57.8684 67.5395V71.7401H57.4017C57.1683 71.7401 57.1683 71.7401 56.935 71.9734C56.7016 71.9734 56.7016 72.2068 56.7016 72.2068L56.4683 72.6735V72.9069C56.4683 72.9069 56.4683 73.1402 56.7016 73.1402C56.935 73.1402 56.935 73.3736 56.935 73.3736H57.1683H58.8019C59.0353 73.3736 59.0353 73.3736 59.2686 73.3736L59.502 73.1402C59.502 73.1402 59.502 72.9069 59.7353 72.9069C59.9687 72.9069 59.7353 72.6735 59.7353 72.6735L59.2686 71.7401ZM45.9669 73.1402C45.0335 73.1402 44.3334 73.607 43.6333 74.307C43.3999 74.307 43.1665 74.5404 43.1665 75.0071C42.9332 74.5404 42.4665 73.8403 41.9997 73.3736C41.2996 72.6735 40.1328 72.2068 39.1994 72.2068C38.7326 72.2068 38.2659 72.2068 37.7992 72.4401V61.2387L41.0663 61.4721C41.2996 61.4721 41.7664 61.4721 41.9997 61.2387C42.2331 61.0053 42.4665 60.772 42.4665 60.5386V58.6717C42.4665 59.1384 42.6998 59.6052 42.9332 60.0719C43.3999 61.0053 44.3334 61.4721 45.2668 61.9388L44.8001 65.6726V65.906C44.8001 65.906 44.8001 66.1393 45.0335 66.1393L45.2668 66.3727H45.5002H46.2003L45.9669 73.1402Z" fill="#1E1E1C"/>
</svg>
