<svg width="250" height="235" viewBox="0 0 250 235" fill="none" xmlns="http://www.w3.org/2000/svg">
<g clip-path="url(#clip0_124:2355)">
<path d="M21.3387 185.492C21.5304 185.431 24.0022 185.158 24.9304 185.097H25.1927C25.3945 185.097 25.5963 185.026 25.6569 185.299C25.9293 187.233 26.8575 191.565 29.6925 191.565C32.2855 191.565 35.4131 189.034 35.4131 186.433C35.4131 173.75 18.2615 171.948 18.2615 160.267C18.2615 154.193 22.9832 147.847 30.2373 147.847C30.7798 147.896 31.3147 148.008 31.8314 148.181C35.625 149.254 37.0879 149.922 38.8131 153.657C39.1998 154.401 39.4267 155.218 39.4791 156.056L34.9692 161.006C34.865 161.043 34.7565 161.067 34.6463 161.077C32.8403 161.077 31.9828 154.932 28.0581 154.932C26.2521 154.932 25.4652 156.198 25.4652 157.969C25.4652 167.241 41.7592 169.448 42.8186 183.994C43.3634 191.403 37.5722 198.944 29.521 198.944C24.0628 198.944 21.2681 196.211 19.4319 191.535L19.3007 191.201C18.7637 190.002 18.4459 188.716 18.3624 187.405C18.4028 186.099 20.2087 185.633 21.3387 185.492Z" fill="#86BAE5"/>
<path d="M46.3599 148.859C46.4305 148.191 46.6928 146.389 47.8227 146.389C50.3419 147.056 52.9492 147.326 55.5511 147.189L55.7428 147.462C55.7428 147.462 55.8134 147.988 55.8134 148.191C55.8134 148.393 55.7428 149.203 55.7428 149.325C54.5523 157.473 53.4222 170.956 55.0769 182.364C55.6116 185.775 57.2057 189.915 61.4028 189.915C61.9558 189.995 62.5193 189.959 63.0577 189.809C63.5961 189.659 64.0976 189.399 64.5304 189.045C67.2545 186.301 67.8498 180.228 67.8498 176.766C67.8498 172.292 67.7187 167.413 67.5875 162.939C67.5169 159.072 66.9922 155.266 66.9922 151.46C66.9922 151.126 67.2546 150.398 67.6581 150.327L73.7116 149.527C73.8953 149.422 74.0974 149.353 74.3069 149.325C74.5482 149.32 74.7843 149.396 74.9778 149.541C75.1714 149.686 75.3115 149.891 75.3763 150.124C75.3723 150.055 75.3939 149.986 75.4369 149.932C75.8405 149.932 78.8269 175.157 73.641 190.107C71.6232 195.786 68.0516 198.053 62.0687 198.053H61.1304C53.4222 198.053 48.2263 195.715 46.7634 187.374C45.7452 181.679 45.2555 175.902 45.3004 170.116C45.9663 151.521 46.2287 149.517 46.3599 148.859Z" fill="#86BAE5"/>
<path d="M88.0383 174.954C88.0383 174.813 87.8365 174.418 87.5036 174.418C86.4946 180.957 88.1594 191.97 88.23 199.309C88.23 199.511 88.3007 200.382 88.3007 200.584H80.8548L80.4512 200.25C80.4512 200.179 80.31 198.58 80.31 197.912C80.1889 194.774 80.1183 191.707 80.653 147.786L80.8548 145.579C80.8548 144.709 91.0953 145.377 93.8194 145.579C94.0918 145.579 94.2835 145.65 94.4247 145.65C99.8729 145.974 103.505 151.056 104.272 155.995C104.272 156.39 104.332 158.131 104.332 158.526C104.332 165.136 101.306 167.636 94.9494 169.276C95.2117 170.409 95.6153 171.614 95.7565 172.677L104.131 197.709V199.106C102.403 199.914 100.598 200.541 98.7429 200.979L88.0383 174.954ZM87.8365 164.204C92.3565 164.204 95.6153 163.192 95.6153 157.929C95.6153 154.457 92.296 152.786 89.1683 152.786H88.2704C87.2614 153.252 87.6045 157.19 87.0092 162.909V163.577C86.9689 164.204 87.0395 164.204 87.8365 164.204V164.204Z" fill="#86BAE5"/>
<path d="M100.922 217.863H20.37C15.7248 217.863 11.2698 216.012 7.98517 212.716C4.7005 209.421 2.85522 204.951 2.85522 200.291V156.957C2.85522 152.296 4.7005 147.827 7.98517 144.531C11.2698 141.236 15.7248 139.384 20.37 139.384L61.7357 135.872C62.7406 135.874 63.7255 135.59 64.5756 135.052C65.4258 134.514 66.1064 133.746 66.5382 132.835L79.5633 113.866C79.8798 113.315 80.375 112.889 80.9665 112.659C81.558 112.43 82.21 112.41 82.8139 112.604C83.4179 112.798 83.9374 113.194 84.2858 113.726C84.6343 114.258 84.7906 114.893 84.7289 115.526L85.8488 135.7C86.1892 136.775 86.8614 137.713 87.7683 138.379C88.6751 139.045 89.7696 139.404 90.8934 139.405H100.912C106.071 139.405 111.019 141.461 114.667 145.121C118.315 148.781 120.364 153.745 120.364 158.921V198.398C120.351 203.563 118.297 208.512 114.652 212.161C111.008 215.81 106.071 217.86 100.922 217.863V217.863Z" stroke="#86BAE5" stroke-width="5.66929" stroke-miterlimit="10"/>
<path d="M187.407 32.9684L198.152 35.0536L203.075 39.305L201.673 74.7331L208.19 75.6138L217.916 81.09C217.916 81.09 221.004 88.2566 221.266 88.6918C221.61 90.5974 221.852 92.52 221.992 94.4515L222.063 98.7534C222.063 98.7534 218.683 104.027 218.512 104.442C217.499 105.432 216.409 106.339 215.253 107.155L196.154 106.811C196.154 106.811 187.729 88.9449 186.852 86.4751C185.974 84.0052 175.32 53.1523 175.32 53.1523L187.407 32.9684Z" fill="white"/>
<path d="M191.089 111.68C190.617 111.556 190.115 111.623 189.692 111.867C189.269 112.112 188.959 112.513 188.829 112.985C188.097 115.53 187.204 118.025 186.156 120.456C185.631 121.721 184.329 122.308 182.18 122.237C180.031 122.166 117.479 114.615 113.957 114.139L113.473 114.079C108.671 113.411 95.9381 111.67 96.8663 85.7361C97.669 65.4173 101.73 45.3609 108.893 26.3383C109.225 25.4623 109.741 24.6682 110.406 24.0102C110.991 25.5386 111.596 26.9456 111.909 27.5732C112.109 28.0761 112.432 28.5205 112.848 28.8654C113.264 29.2104 113.76 29.4448 114.29 29.5471C114.798 29.6138 115.314 29.5403 115.784 29.3345L131.724 22.3299C132.178 22.1291 132.572 21.8154 132.871 21.4186C133.169 21.0217 133.362 20.5549 133.43 20.0624C134.438 20.1637 135.346 20.2851 136.194 20.4269C137.364 20.5989 164.444 27.5935 169.902 28.96L171.627 29.4155C182.947 32.4522 191.886 34.8107 193.823 35.1548C197.859 35.8634 200.886 38.2422 201.663 41.2282C202.322 44.3371 202.583 47.5175 202.44 50.6926C196.879 49.9391 191.233 50.1204 185.732 51.2291C185.264 51.3511 184.862 51.6504 184.609 52.064C184.357 52.4776 184.274 52.9732 184.379 53.4467C184.484 53.9201 184.767 54.3344 185.17 54.6024C185.573 54.8703 186.064 54.971 186.539 54.8833C191.719 53.8696 197.031 53.7259 202.258 54.4581C202.187 55.4704 202.096 56.4826 201.986 57.4948C196.142 56.7595 190.211 57.2595 184.572 58.9626C184.129 59.1377 183.769 59.476 183.567 59.9082C183.364 60.3404 183.334 60.8339 183.482 61.2878C183.631 61.7416 183.946 62.1215 184.364 62.3497C184.782 62.5779 185.272 62.6372 185.732 62.5155C190.846 61.0124 196.212 60.5715 201.501 61.2198C201.33 62.3535 201.128 63.548 200.906 64.7829C195.187 63.7994 189.326 64.0339 183.704 65.4712C183.293 65.5894 182.935 65.8455 182.69 66.1967C182.445 66.5479 182.327 66.9729 182.356 67.4007C182.386 67.8285 182.561 68.2332 182.852 68.5471C183.143 68.861 183.533 69.0652 183.956 69.1254C184.213 69.158 184.473 69.1408 184.723 69.0748C189.78 67.8148 195.04 67.6081 200.18 68.4674C200.099 68.8318 200.028 69.1861 199.947 69.5606C199.84 70.034 199.922 70.5307 200.174 70.9447C200.427 71.3588 200.831 71.6576 201.3 71.7774H201.36C201.843 71.8861 202.349 71.7979 202.767 71.5321C203.185 71.2664 203.481 70.8449 203.59 70.3603C203.66 70.0364 203.721 69.7327 203.781 69.4088C205.866 70.1277 207.819 71.1842 209.562 72.5366C209.954 72.8186 210.438 72.938 210.915 72.8699C211.392 72.8017 211.824 72.5513 212.121 72.1709C212.418 71.7905 212.557 71.3097 212.509 70.8289C212.461 70.3481 212.229 69.9045 211.863 69.591C209.659 67.8817 207.178 66.5668 204.528 65.704C204.76 64.4286 204.972 63.1937 205.143 62.0195C207.333 62.6765 209.385 63.7296 211.197 65.1271C211.588 65.4091 212.073 65.5285 212.549 65.4603C213.026 65.3922 213.459 65.1417 213.756 64.7613C214.053 64.381 214.192 63.9001 214.143 63.4193C214.095 62.9385 213.864 62.495 213.497 62.1815C211.172 60.3797 208.52 59.0492 205.688 58.2641C205.809 57.2519 205.9 56.2397 205.981 55.2983C208.521 56.0445 210.85 57.3795 212.781 59.1954C213.053 59.4727 213.407 59.6539 213.79 59.7116C214.079 59.7577 214.375 59.733 214.653 59.6396C214.93 59.5462 215.181 59.3868 215.384 59.1751C215.558 59.002 215.695 58.7962 215.789 58.5695C215.883 58.3428 215.932 58.0997 215.932 57.8542C215.932 57.6086 215.883 57.3655 215.789 57.1388C215.695 56.9121 215.558 56.7063 215.384 56.5332C212.794 54.0967 209.632 52.3558 206.193 51.472C206.395 47.7206 206.096 43.9589 205.305 40.2869C204.185 35.8128 200.048 32.4319 194.489 31.4501C192.693 31.1363 182.927 28.5348 172.586 25.7816L170.669 25.2755C167.208 24.4252 138 16.884 136.749 16.6917C136.184 16.6107 134.731 16.4083 132.713 16.2362L131.785 12.7541C131.676 12.344 131.478 11.9629 131.206 11.6376C130.934 11.3123 130.595 11.0508 130.211 10.8714C129.855 10.7011 129.468 10.606 129.074 10.5921C128.68 10.5782 128.288 10.6457 127.921 10.7904L110.769 15.7908C110.682 15.8105 110.597 15.8411 110.517 15.8819C109.978 16.1287 109.527 16.5337 109.222 17.0433C108.918 17.553 108.775 18.1434 108.812 18.7364V18.7364C108.867 19.2159 108.961 19.6899 109.094 20.1536C107.406 21.3552 106.111 23.0319 105.371 24.9718C98.0729 44.368 93.9371 64.8174 93.1232 85.5337C92.1143 113.724 106.623 116.781 112.293 117.601L112.928 117.692L113.382 117.753C117.418 118.33 180.849 125.851 182.039 125.922C187.084 126.084 188.89 123.442 189.556 121.873C190.665 119.301 191.608 116.66 192.381 113.967C192.508 113.492 192.444 112.986 192.202 112.558C191.961 112.13 191.561 111.814 191.089 111.68V111.68ZM128.355 14.5863L129.586 19.2021L115.057 25.5386C114.126 23.4684 113.324 21.342 112.656 19.1717L128.355 14.5863Z" fill="#1D2528"/>
<path d="M146.788 15.0215L158.824 19.6272C167.571 22.9372 167.733 22.8663 168.379 22.5728C168.811 22.3682 169.15 22.0064 169.327 21.5606L170.073 19.9005L171.617 16.4994L172.273 15.062C172.567 14.4009 172.603 13.653 172.373 12.9667C172.143 12.2804 171.664 11.7059 171.032 11.3573L151.63 0.769288C151.251 0.563251 150.831 0.445364 150.4 0.424345C149.97 0.403326 149.54 0.479725 149.143 0.647871C148.746 0.816018 148.391 1.07162 148.106 1.39576C147.82 1.71989 147.611 2.10426 147.494 2.52045L147.09 3.97806L146.081 7.64236L145.002 11.5799C144.807 12.2739 144.884 13.016 145.216 13.6554C145.547 14.2947 146.11 14.7832 146.788 15.0215V15.0215ZM150.823 4.57529L168.52 14.2927L166.593 18.5441C163.848 17.5319 157.512 15.1329 148.826 11.8128L150.823 4.57529Z" fill="#1D2528"/>
<path d="M222.588 88.5096C222.017 85.8529 220.902 83.3439 219.315 81.1415C217.728 78.9391 215.702 77.0913 213.366 75.715C209.645 73.5033 205.304 72.5754 201.007 73.0731C200.664 73.0731 200.321 73.1338 199.998 73.1946C199.756 73.2315 199.524 73.3162 199.315 73.4439C199.106 73.5716 198.924 73.7397 198.781 73.9385C198.637 74.1372 198.534 74.3626 198.478 74.6015C198.422 74.8405 198.414 75.0882 198.454 75.3303C198.518 75.7486 198.725 76.1315 199.04 76.4134C199.245 76.6037 199.49 76.7446 199.758 76.8253C200.025 76.906 200.308 76.9244 200.583 76.8791C204.343 76.2465 208.204 76.9633 211.49 78.9036C213.385 80.0199 215.029 81.5197 216.316 83.3076C217.603 85.0955 218.506 87.1325 218.966 89.289C219.923 93.8477 219.111 98.6008 216.696 102.58C215.522 104.526 213.942 106.194 212.064 107.47C210.187 108.745 208.057 109.598 205.82 109.969C201.411 110.829 197.415 109.969 195.418 108.825C188.799 104.898 185.54 98.7028 186.701 92.265C186.757 91.9543 186.734 91.6344 186.633 91.3351C186.533 91.0359 186.358 90.7672 186.125 90.5543C185.865 90.3151 185.544 90.1538 185.197 90.0887C184.712 90.0032 184.212 90.1137 183.808 90.3963C183.403 90.6789 183.127 91.1105 183.038 91.5969C181.716 98.8749 184.814 105.819 191.352 110.597C192.038 111.103 192.754 111.609 193.521 112.044C195.22 112.987 197.083 113.595 199.009 113.836C201.508 114.185 204.048 114.12 206.526 113.643C209.28 113.168 211.9 112.104 214.208 110.523C216.516 108.943 218.459 106.883 219.904 104.483C222.787 99.6933 223.747 93.9827 222.588 88.5096V88.5096Z" fill="#1D2528"/>
<path d="M140.795 76.545L144.235 76.8588C144.703 76.9067 145.172 76.7744 145.546 76.4888C145.921 76.2031 146.173 75.7855 146.253 75.3203L152.014 41.8457C152.091 41.3793 151.991 40.9007 151.733 40.505C151.475 40.1093 151.078 39.8255 150.621 39.7099L147.11 38.8495C146.862 38.789 146.604 38.7803 146.353 38.8238C146.101 38.8674 145.861 38.9622 145.647 39.1026C145.435 39.2467 145.253 39.4319 145.113 39.6474C144.972 39.863 144.876 40.1045 144.83 40.3577L139.14 74.3688C139.1 74.6237 139.111 74.8842 139.174 75.1346C139.236 75.385 139.348 75.6203 139.503 75.8264C139.799 76.2122 140.234 76.4665 140.714 76.5349L140.795 76.545Z" fill="#1D2528"/>
<path d="M118.356 71.0284L121.444 71.3017C121.913 71.3492 122.383 71.2156 122.758 70.9279C123.133 70.6402 123.384 70.2201 123.461 69.753L128.627 39.5378C128.706 39.0742 128.608 38.5979 128.354 38.2027C128.1 37.8074 127.708 37.5218 127.255 37.402L124.107 36.5922C123.857 36.5269 123.595 36.5148 123.34 36.5567C123.085 36.5986 122.841 36.6937 122.624 36.8357C122.408 36.9777 122.223 37.1636 122.082 37.3814C121.942 37.5992 121.848 37.8441 121.807 38.1004L116.671 68.8926C116.596 69.3878 116.719 69.8927 117.014 70.2969C117.309 70.701 117.752 70.9713 118.245 71.0486L118.356 71.0284Z" fill="#1D2528"/>
<path d="M105.947 80.3814C105.739 80.5798 105.581 80.8241 105.485 81.0948C105.388 81.3655 105.357 81.655 105.392 81.9403C107.319 98.136 114.976 104.847 121.06 107.681C123.301 108.716 125.68 109.419 128.123 109.767C135.387 110.779 142.086 108.704 145.274 106.578C156.756 98.9458 156.614 89.117 156.604 88.702C156.59 88.2632 156.423 87.8435 156.131 87.516C155.84 87.1885 155.443 86.9741 155.01 86.9103L107.48 79.8753C107.203 79.8361 106.92 79.8613 106.655 79.9491C106.389 80.0369 106.146 80.1848 105.947 80.3814V80.3814ZM143.004 91.4148C146.465 90.5847 149.381 92.6699 151.308 94.7045C149.445 98.2943 146.658 101.318 143.236 103.46C140.593 105.222 135.498 106.679 130.019 106.214C132.068 99.7151 137.818 92.6598 143.004 91.4148Z" fill="#1D2528"/>
<path d="M209.341 100.272C209.169 100.383 208.988 100.505 208.806 100.606C208.395 100.855 208.096 101.253 207.97 101.717C207.844 102.182 207.901 102.677 208.129 103.101C208.358 103.524 208.74 103.843 209.197 103.991C209.653 104.139 210.149 104.105 210.582 103.896C212.859 102.654 214.689 100.724 215.812 98.3801C216.934 96.0362 217.293 93.397 216.836 90.8371C216.379 88.2772 215.131 85.9267 213.267 84.1189C211.404 82.3112 209.021 81.1381 206.455 80.7661C205.973 80.7115 205.489 80.8472 205.105 81.1444C204.722 81.4416 204.468 81.877 204.399 82.3585C204.329 82.8399 204.449 83.3296 204.733 83.7239C205.017 84.1181 205.443 84.386 205.92 84.4708C206.132 84.4708 206.334 84.5518 206.536 84.5923C208.198 84.9533 209.717 85.8016 210.898 87.0296C212.079 88.2576 212.87 89.8101 213.171 91.4899C213.471 93.1697 213.268 94.9012 212.586 96.4647C211.904 98.0283 210.774 99.3533 209.341 100.272V100.272Z" fill="#1D2528"/>
<path d="M134.751 131.884L224.545 132.37C235.33 132.43 244.037 140.164 243.987 149.649L243.755 191.99C243.704 201.475 234.917 209.107 224.131 209.046L177.953 212.235C176.875 212.204 175.807 212.462 174.862 212.984C173.917 213.505 173.127 214.27 172.576 215.201L157.946 233.664C156.261 236.164 151.893 234.899 152.195 232.004L151.075 212.275C150.622 211.164 149.84 210.219 148.836 209.566C147.831 208.913 146.652 208.583 145.456 208.621L134.337 208.581C122.352 208.51 112.696 199.926 112.747 189.348L112.958 150.792C113.019 140.295 122.775 131.813 134.751 131.884Z" fill="#86BAE5"/>
<path d="M122.574 163.415C122.878 163.374 123.185 163.357 123.492 163.364C129.283 163.364 129.787 171.381 130.877 175.906C130.913 176.315 131.005 176.716 131.149 177.1C131.345 176.893 131.515 176.661 131.654 176.412C132.794 174.074 134.025 171.928 135.347 169.681C136.941 166.937 138.858 163.688 142.409 163.688C144.427 163.688 144.689 167.737 144.79 169.134C145.335 178.608 145.557 188.174 145.557 197.649V198.104C145.153 199.015 141.269 198.975 140.452 198.792L140.179 198.651V198.104C140.038 193.043 139.715 178.467 139.402 173.578C133.934 186.393 133.157 186.575 133.056 186.615L132.925 186.757L129.777 186.615C128.409 184.237 127.218 181.761 126.216 179.206C125.984 178.653 125.711 178.118 125.399 177.606C125.217 184.834 124.894 192.061 125.035 199.298C125.012 199.486 124.965 199.67 124.894 199.845C123.185 200.074 121.463 200.196 119.739 200.21C119.153 200.21 118.962 199.521 118.962 199.066C118.982 194.308 119.547 165.561 122.574 163.415Z" fill="white"/>
<path d="M148.331 164.974V164.042L159.056 163.223C159.278 163.223 160.418 163.081 160.559 163.496C160.65 164.913 161.013 166.239 161.013 167.616V168.253C160.691 168.8 154.859 168.851 153.759 169.174V169.579C153.759 169.994 153.901 180.886 154.99 180.886L161.377 179.975C161.377 179.975 161.558 179.924 161.609 179.924L162.618 184.773L154.96 185.735V186.312C154.96 188.65 155.141 191.16 155.363 193.397C155.363 193.853 155.454 194.49 156.009 194.49C156.776 194.49 162.063 193.579 163.354 193.529C163.808 193.529 163.899 193.994 163.939 194.359C164.231 195.654 164.417 196.971 164.494 198.296C164.494 198.388 164.585 198.752 164.353 198.792C161.982 198.843 159.883 199.39 152.811 199.805C152.451 199.877 152.087 199.924 151.721 199.946H151.489C150.672 199.946 150.672 198.165 150.622 197.75L148.331 164.974Z" fill="white"/>
<path d="M166.905 189.591C167.047 189.591 168.732 189.369 169.367 189.318H169.549C169.69 189.318 169.831 189.267 169.872 189.46C170.053 190.786 170.689 193.762 172.606 193.762C174.523 193.762 176.53 192.021 176.53 190.229C176.53 181.534 164.767 180.299 164.767 172.292C164.745 170.077 165.593 167.941 167.128 166.348C168.663 164.755 170.761 163.832 172.969 163.779C173.344 163.812 173.713 163.89 174.069 164.012C176.672 164.741 177.671 165.196 178.861 167.767C179.125 168.276 179.279 168.835 179.315 169.407L176.288 172.798C176.211 172.806 176.133 172.806 176.056 172.798C174.825 172.798 174.24 168.587 171.546 168.587C170.316 168.587 169.761 169.458 169.761 170.693C169.761 177.06 180.94 178.568 181.676 188.549C182.039 193.61 178.064 198.792 172.596 198.792C168.863 198.792 166.946 196.92 165.715 193.731L165.614 193.498C165.25 192.672 165.035 191.788 164.978 190.887C164.948 190.006 166.129 189.682 166.905 189.591Z" fill="white"/>
<path d="M184.118 164.468C184.118 164.012 184.35 162.777 185.127 162.777C186.853 163.233 188.64 163.418 190.423 163.324L190.565 163.506C190.565 163.506 190.565 163.87 190.565 164.012C190.565 164.154 190.565 164.7 190.565 164.792C189.737 170.369 188.96 179.621 190.101 187.445C190.464 189.773 191.563 192.608 194.439 192.608C194.816 192.662 195.201 192.638 195.569 192.537C195.937 192.436 196.28 192.26 196.578 192.021C198.454 190.138 198.858 185.947 198.858 183.599C198.858 180.562 198.767 177.191 198.676 174.124C198.676 171.472 198.273 168.861 198.273 166.249C198.273 166.026 198.454 165.52 198.727 165.47L202.873 164.923C203.002 164.855 203.143 164.811 203.287 164.792C203.452 164.786 203.614 164.838 203.746 164.937C203.878 165.036 203.972 165.178 204.013 165.338C203.997 165.292 203.997 165.242 204.013 165.196C204.286 165.196 206.334 182.495 202.783 192.749C201.41 196.636 198.949 198.195 194.842 198.195H194.207C188.91 198.195 185.359 196.596 184.35 190.877C183.652 186.965 183.314 182.997 183.341 179.024C183.795 166.3 183.976 164.923 184.118 164.468Z" fill="white"/>
<path d="M212.64 182.364C212.64 182.273 212.498 181.999 212.277 181.999C211.59 186.484 212.731 194.035 212.771 199.066C212.771 199.207 212.771 199.795 212.771 199.936H207.666L207.383 199.703C207.383 199.703 207.292 198.56 207.292 198.104C207.202 195.958 207.161 193.853 207.524 163.739L207.666 162.22C207.666 161.633 214.728 162.089 216.554 162.22C216.736 162.22 216.877 162.271 216.968 162.271C220.701 162.504 223.173 165.976 223.718 169.357C223.718 169.63 223.718 170.814 223.718 171.098C223.718 175.622 221.7 177.363 217.291 178.457C217.472 179.236 217.745 180.066 217.836 180.795L223.586 197.952V198.914C222.4 199.469 221.159 199.9 219.884 200.199L212.64 182.364ZM212.498 174.995C215.596 174.995 217.836 174.306 217.836 170.693C217.836 168.314 215.556 167.17 213.417 167.17H212.771C212.095 167.484 212.317 170.207 211.903 174.074V174.539C211.903 174.995 211.954 174.995 212.498 174.995V174.995Z" fill="white"/>
<path d="M225.14 164.974V164.042L248.033 162.808C248.265 162.808 249.405 162.676 249.536 163.091C249.627 164.508 250 165.834 250 167.201V167.848C249.677 168.395 231.668 168.861 230.568 169.174V169.579C230.568 169.994 230.709 180.886 231.809 180.886L247.851 179.874H248.083L249.092 184.722L231.769 185.735V186.312C231.789 188.679 231.927 191.044 232.182 193.397C232.182 193.853 232.273 194.49 232.818 194.49C233.595 194.49 246.489 193.579 247.811 193.539C248.265 193.539 248.355 193.994 248.406 194.359C248.689 195.655 248.872 196.972 248.951 198.296C248.951 198.388 249.042 198.752 248.809 198.803C246.438 198.803 236.702 199.39 229.64 199.815C229.281 199.887 228.916 199.935 228.55 199.956H228.318C227.501 199.956 227.501 198.175 227.451 197.76L225.14 164.974Z" fill="white"/>
<path d="M83.478 39.3556L69.9282 34.6791C61.6853 31.8347 53.4424 28.9701 45.1895 26.146C40.841 24.658 39.5799 22.3704 40.8309 18.0481C42.082 13.7259 43.3431 9.42389 44.6144 5.11178C46.1479 -0.0910959 49.6086 -1.44749 53.9974 1.59933C65.3511 9.49475 76.6711 17.434 87.9576 25.4172C90.5303 27.2291 91.6906 29.4661 90.3588 32.766C89.0875 35.8533 88.2703 39.2544 83.478 39.3556Z" fill="#86BAE5"/>
<path d="M82.701 57.2114C82.5194 63.7201 81.4702 64.6716 75.9312 64.5906C65.5495 64.4286 28.9661 62.1713 18.554 62.475C12.7628 62.637 11.8951 61.5336 11.542 55.7437C11.3301 52.211 11.0981 48.658 10.9266 45.1355C10.7551 41.6129 13.3984 39.386 16.8893 40.2666C28.8752 43.3033 67.0931 47.6053 79.0589 50.7027C83.0643 51.7352 82.9734 54.9035 82.701 57.2114Z" fill="#86BAE5"/>
<path d="M40.6796 110.617C39.5829 110.602 38.5275 110.195 37.7028 109.47C36.8781 108.744 36.3381 107.748 36.1798 106.659C35.3121 102.974 34.5353 99.2697 33.9299 95.5244C33.5264 93.0343 34.9388 91.3743 37.2391 90.777C45.3105 88.6615 69.5246 79.0756 77.6665 77.0512C78.1143 76.9004 78.59 76.852 79.0588 76.9095C84.1034 78.1748 83.0945 82.9828 84.4162 86.4346C84.6486 86.9241 84.7766 87.457 84.7921 87.999C84.8075 88.5411 84.71 89.0803 84.5059 89.5824C84.3017 90.0845 83.9953 90.5383 83.6064 90.9148C83.2174 91.2914 82.7545 91.5823 82.2471 91.769C74.1757 95.4333 50.0121 106.649 41.9407 110.273C41.5334 110.431 41.1108 110.546 40.6796 110.617V110.617Z" fill="#86BAE5"/>
</g>
<defs>
<clipPath id="clip0_124:2355">
<rect width="250" height="235" fill="white"/>
</clipPath>
</defs>
</svg>
