<svg width="85" height="85" viewBox="0 0 85 85" fill="none" xmlns="http://www.w3.org/2000/svg">
<g clip-path="url(#clip0_528:668)">
<path d="M51.1219 78.7548C50.4761 78.754 49.834 78.8535 49.2188 79.0498V67.3086L53.8348 67.5829V70.7867H53.362C53.0935 70.7866 52.8316 70.8702 52.6129 71.0256C52.3941 71.1811 52.2293 71.4007 52.1415 71.654L51.846 72.4889C51.7792 72.6829 51.7597 72.8901 51.7893 73.0932C51.8189 73.2962 51.8966 73.4893 52.0159 73.6564C52.1353 73.8235 52.2929 73.9597 52.4756 74.0537C52.6583 74.1477 52.8609 74.1968 53.0665 74.1969H55.7616C55.9752 74.1963 56.1853 74.1428 56.3731 74.0412C56.5609 73.9396 56.7206 73.793 56.8377 73.6147C56.9548 73.4364 57.0258 73.2318 57.0443 73.0194C57.0628 72.8069 57.0282 72.5932 56.9437 72.3974L56.5802 71.5655C56.4809 71.3346 56.316 71.1378 56.106 70.9994C55.8959 70.861 55.6498 70.787 55.3981 70.7867H55.0671V67.4148C55.3363 67.2768 55.5655 67.0723 55.7331 66.8208C55.9007 66.5693 56.0011 66.2792 56.0246 65.9781L56.9496 40.4277C56.9813 39.7407 56.7491 39.0674 56.3004 38.5454C55.8517 38.0235 55.2203 37.6922 54.5352 37.6193L37.6906 37.6635C36.6568 37.5557 35.6218 37.8558 34.8067 38.4996C33.9916 39.1435 33.4612 40.0801 33.3287 41.1092L33.1425 43.9294C31.3358 43.5389 29.7357 42.4997 28.6461 41.009C27.5565 39.5183 27.0533 37.68 27.2321 35.8434H27.6872C27.9554 35.8437 28.217 35.7602 28.4354 35.6047C28.6537 35.4491 28.8178 35.2293 28.9048 34.976L29.2003 34.1441C29.2677 33.9499 29.2875 33.7424 29.2582 33.5389C29.229 33.3355 29.1514 33.1419 29.0319 32.9745C28.9125 32.8071 28.7547 32.6706 28.5716 32.5764C28.3886 32.4822 28.1857 32.4331 27.9798 32.4331H25.2876C25.074 32.4337 24.8639 32.4873 24.676 32.5889C24.4882 32.6905 24.3286 32.837 24.2115 33.0153C24.0943 33.1937 24.0233 33.3982 24.0048 33.6107C23.9864 33.8231 24.0209 34.0368 24.1055 34.2326L24.466 35.0675C24.5658 35.2978 24.7308 35.494 24.9409 35.6319C25.1509 35.7697 25.3968 35.8432 25.6481 35.8434H25.9909C25.8119 37.9927 26.4322 40.1326 27.7334 41.8543C29.0346 43.5761 30.9255 44.759 33.045 45.1773C33.045 45.1242 33.0686 45.0652 33.0834 45.0121L31.7595 64.7597C31.7348 64.9525 31.7502 65.1483 31.8046 65.3349C31.8591 65.5215 31.9514 65.6949 32.0758 65.8443C32.2003 65.9938 32.3543 66.116 32.5281 66.2035C32.702 66.291 32.892 66.3418 33.0864 66.3528L35.5628 66.5003L34.892 78.4893C33.4225 78.7047 32.0688 79.4088 31.0499 80.4875C30.0309 81.5662 29.4063 82.9566 29.2771 84.4336C29.2714 84.506 29.2808 84.5787 29.3046 84.6473C29.3285 84.7158 29.3663 84.7787 29.4157 84.8319C29.4652 84.8851 29.5251 84.9276 29.5918 84.9565C29.6585 84.9854 29.7304 85.0002 29.8031 85H41.9017C41.9747 85.0006 42.0469 84.9861 42.114 84.9574C42.181 84.9286 42.2413 84.8863 42.2911 84.833C42.3408 84.7797 42.3789 84.7167 42.4029 84.648C42.427 84.5792 42.4364 84.5062 42.4307 84.4336C42.2995 82.9176 41.6464 81.4937 40.5823 80.4041C39.5183 79.3145 38.109 78.6264 36.5942 78.4568L37.2561 66.6035L47.5018 67.2142V79.9141C46.7654 80.4335 46.1504 81.1058 45.6989 81.885C45.2475 82.6641 44.9703 83.5315 44.8865 84.4277C44.8803 84.5007 44.8894 84.5741 44.9133 84.6434C44.9371 84.7127 44.9751 84.7762 45.0248 84.8301C45.0746 84.8839 45.135 84.9268 45.2022 84.956C45.2695 84.9853 45.3421 85.0003 45.4154 85H56.8107C56.884 85.0003 56.9567 84.9853 57.0239 84.956C57.0912 84.9268 57.1516 84.8839 57.2013 84.8301C57.2511 84.7762 57.2891 84.7127 57.3129 84.6434C57.3367 84.5741 57.3458 84.5007 57.3397 84.4277C57.1976 82.8788 56.4813 81.4387 55.3312 80.3893C54.1811 79.34 52.68 78.7571 51.1219 78.7548Z" fill="#1D1D1B"/>
<path d="M60.7024 15.7299L58.294 14.2106C57.823 13.1882 57.0445 12.3379 56.0667 11.7779C55.0889 11.2179 53.9605 10.9763 52.8387 11.0865L39.4398 12.4023L39.165 9.34896C39.1473 9.24509 39.0911 9.15165 39.0076 9.08728C38.9241 9.02291 38.8193 8.99233 38.7142 9.00164C38.609 9.01094 38.5113 9.05945 38.4404 9.13748C38.3695 9.21552 38.3306 9.31736 38.3316 9.42271L38.6035 12.4849L37.5485 12.5881L37.1702 9.82096C37.1499 9.71583 37.0901 9.62245 37.003 9.55998C36.9159 9.49751 36.8082 9.4707 36.7019 9.48504C36.5956 9.49939 36.4989 9.55381 36.4315 9.63713C36.3642 9.72045 36.3314 9.82634 36.3398 9.93306L36.7121 12.6707L35.3202 12.8064L34.676 9.81801C34.6529 9.70926 34.5874 9.61413 34.494 9.55355C34.4007 9.49297 34.287 9.4719 34.1781 9.49498C34.0691 9.51806 33.9738 9.5834 33.9131 9.67662C33.8524 9.76985 33.8313 9.88331 33.8545 9.99207L34.4869 12.9421C34.1592 13.0657 33.8814 13.2936 33.6965 13.5906C33.5117 13.8877 33.4301 14.2373 33.4644 14.5853L34.546 25.5831C33.9853 25.3509 33.3787 25.2499 32.7729 25.2881C30.8845 25.4149 29.8177 27.8192 30.2373 30.4035C30.6569 32.9877 30.8815 35.6398 34.676 35.2592C35.6128 35.1619 36.2157 34.8285 36.5939 34.3742C37.107 34.858 37.72 35.2236 38.3899 35.4453C39.0598 35.667 39.7702 35.7394 40.4712 35.6575L58.1491 33.5925C58.578 33.5435 58.972 33.3331 59.251 33.0043C59.5299 32.6754 59.6727 32.2528 59.6504 31.8224L58.8968 18.5472C58.9697 18.5952 59.0514 18.6281 59.1372 18.6441C59.223 18.6602 59.3112 18.6589 59.3965 18.6405C59.4818 18.6221 59.5626 18.5869 59.6341 18.5369C59.7056 18.487 59.7664 18.4233 59.8129 18.3495L60.8916 16.6385C60.9391 16.5665 60.9719 16.4859 60.9881 16.4012C61.0043 16.3165 61.0036 16.2294 60.986 16.145C60.9685 16.0606 60.9344 15.9805 60.8857 15.9092C60.837 15.838 60.7748 15.7771 60.7024 15.7299ZM48.6571 24.524L48.2699 20.214C48.2602 20.1555 48.2626 20.0956 48.2771 20.0381C48.2916 19.9806 48.3178 19.9267 48.3542 19.8797C48.3905 19.8328 48.4362 19.7939 48.4883 19.7654C48.5404 19.7369 48.5978 19.7195 48.657 19.7142C48.7162 19.7089 48.7758 19.7159 48.8321 19.7346C48.8885 19.7534 48.9403 19.7836 48.9845 19.8233C49.0286 19.8631 49.064 19.9114 49.0885 19.9655C49.113 20.0195 49.1261 20.078 49.1269 20.1373L49.5141 24.4502L48.6571 24.524ZM53.3854 23.6714L53.0278 19.7036C53.0181 19.6453 53.0206 19.5855 53.035 19.5282C53.0494 19.4708 53.0756 19.417 53.1117 19.3702C53.1479 19.3233 53.1934 19.2844 53.2453 19.2559C53.2972 19.2274 53.3544 19.2098 53.4134 19.2043C53.4724 19.1988 53.5319 19.2055 53.5882 19.224C53.6445 19.2425 53.6964 19.2724 53.7406 19.3117C53.7848 19.3511 53.8205 19.3991 53.8453 19.4529C53.8701 19.5066 53.8835 19.5648 53.8848 19.624L54.2424 23.5918L53.3854 23.6714Z" fill="#1D1D1B"/>
</g>
<defs>
<clipPath id="clip0_528:668">
<rect width="85" height="85" fill="white"/>
</clipPath>
</defs>
</svg>
