<svg width="85" height="85" viewBox="0 0 85 85" fill="none" xmlns="http://www.w3.org/2000/svg">
<g clip-path="url(#clip0_528:641)">
<path d="M57.4238 47.4666C56.8278 47.4348 56.2314 47.5242 55.6791 47.7282L56.7463 37.9758C56.7791 37.6673 56.6981 37.3578 56.5157 37.0949C56.3333 36.8321 56.0598 36.6306 55.7373 36.5217L56.3595 33.9064C56.375 33.8575 56.3791 33.8064 56.3717 33.7561C56.3643 33.7057 56.3455 33.6573 56.3165 33.6138C56.2875 33.5703 56.2488 33.5325 56.2029 33.503C56.1571 33.4734 56.1049 33.4526 56.0498 33.4418C55.9946 33.4311 55.9376 33.4306 55.8822 33.4405C55.8269 33.4503 55.7743 33.4703 55.7279 33.4991C55.6814 33.5279 55.642 33.565 55.6122 33.6081C55.5823 33.6511 55.5625 33.6992 55.5541 33.7494L54.926 36.4014L53.5535 36.281L53.9199 33.8541C53.9282 33.7594 53.8959 33.6656 53.8296 33.5917C53.7634 33.5178 53.6682 33.4696 53.5636 33.4569C53.4591 33.4442 53.353 33.4679 53.2673 33.5233C53.1817 33.5787 53.1228 33.6615 53.1028 33.7547L52.7335 36.2078L51.6926 36.1163L51.9601 33.4016C51.9653 33.3533 51.9597 33.3045 51.9438 33.2581C51.9278 33.2118 51.9017 33.1687 51.8671 33.1315C51.8325 33.0942 51.7899 33.0636 51.742 33.0412C51.6941 33.0189 51.6417 33.0054 51.5879 33.0015C51.4792 32.9927 51.3711 33.023 51.2872 33.0858C51.2033 33.1485 51.1504 33.2385 51.1401 33.3362L50.8726 36.0431L37.6509 34.8636C36.5477 34.765 35.4378 34.9786 34.476 35.4746C33.5143 35.9707 32.7487 36.7244 32.2861 37.6305L29.9134 38.98C29.7695 39.0628 29.6677 39.1932 29.6301 39.3431C29.5926 39.4929 29.6222 39.65 29.7127 39.7803L30.777 41.2972C30.823 41.3623 30.883 41.4185 30.9534 41.4626C31.0237 41.5067 31.1032 41.5377 31.187 41.554C31.2708 41.5703 31.3574 41.5715 31.4418 41.5575C31.5261 41.5435 31.6065 41.5146 31.6784 41.4724L30.9631 53.2595C30.9405 53.6378 31.0779 54.0098 31.3475 54.3008C31.6172 54.5918 31.9992 54.7804 32.4169 54.8287L49.8141 56.6594C50.5075 56.7323 51.2102 56.6667 51.8721 56.4674C52.5341 56.268 53.139 55.9398 53.6437 55.506C54.0188 55.9062 54.612 56.2017 55.5308 56.2906C59.276 56.6332 59.5057 54.2978 59.9128 52.0068C60.3199 49.7158 59.2702 47.5817 57.4238 47.4666ZM37.1275 46.0204L36.2843 45.9524L36.6361 42.4348C36.6369 42.3822 36.6498 42.3304 36.6739 42.2825C36.698 42.2346 36.7329 42.1917 36.7763 42.1565C36.8197 42.1213 36.8707 42.0945 36.9262 42.0779C36.9816 42.0612 37.0403 42.055 37.0985 42.0597C37.1567 42.0644 37.2133 42.0799 37.2645 42.1052C37.3158 42.1304 37.3607 42.1649 37.3965 42.2065C37.4322 42.2481 37.4581 42.2959 37.4723 42.3469C37.4866 42.3979 37.489 42.451 37.4794 42.5028L37.1275 46.0204ZM41.78 46.7762L40.9367 46.7082L41.3205 42.882C41.3381 42.7868 41.3951 42.7011 41.4801 42.6421C41.5651 42.5832 41.6718 42.5554 41.7787 42.5643C41.8856 42.5733 41.9847 42.6183 42.0562 42.6903C42.1276 42.7624 42.1661 42.8561 42.1638 42.9526L41.78 46.7762Z" fill="#1D1D1B"/>
<path d="M54.0333 76.9749C53.9356 76.7702 53.7733 76.5957 53.5666 76.473C53.3599 76.3503 53.1178 76.2848 52.8702 76.2845H52.5503V69.3958C52.8912 69.3068 53.1937 69.1265 53.4177 68.8788C53.6416 68.6311 53.7762 68.3279 53.8035 68.0097L54.1234 61.1733C54.1528 60.5644 53.9223 59.9685 53.479 59.5075C53.0357 59.0466 52.4132 58.7555 51.739 58.694L35.1647 57.1745C34.3728 57.099 33.5741 57.2426 32.8753 57.5861C32.1765 57.9295 31.6108 58.4566 31.2538 59.0968C29.9079 58.4953 28.7975 57.5396 28.0703 56.3567C27.3431 55.1738 27.0336 53.8198 27.1829 52.4749H27.6278C27.892 52.4749 28.1496 52.4009 28.3649 52.2631C28.5801 52.1252 28.7422 51.9305 28.8287 51.706L29.1195 50.9658C29.1858 50.7937 29.2053 50.6097 29.1765 50.4293C29.1477 50.2489 29.0713 50.0774 28.9538 49.9289C28.8363 49.7805 28.681 49.6595 28.5009 49.576C28.3208 49.4925 28.1212 49.4489 27.9186 49.449H25.2667C25.0564 49.45 24.8496 49.4979 24.6649 49.5883C24.4802 49.6787 24.3232 49.8088 24.208 49.967C24.0928 50.1253 24.023 50.3067 24.0048 50.4952C23.9866 50.6836 24.0205 50.8732 24.1036 51.0469L24.4612 51.7844C24.5589 51.9891 24.7211 52.1636 24.9278 52.2863C25.1345 52.409 25.3767 52.4745 25.6243 52.4749H25.9616C25.8134 54.0526 26.2056 55.6333 27.0857 57.0045C27.9657 58.3758 29.2914 59.4719 30.8845 60.1455C30.8845 60.1717 30.8845 60.1952 30.8845 60.2187L29.9162 66.9322C29.892 67.1032 29.9071 67.2769 29.9606 67.4425C30.0141 67.6081 30.1049 67.762 30.2274 67.8946C30.3498 68.0273 30.5012 68.1359 30.6723 68.2138C30.8434 68.2916 31.0304 68.337 31.2218 68.3471L32.4256 68.4124L31.751 79.2868C30.3051 79.4778 28.9731 80.102 27.9706 81.0583C26.968 82.0146 26.3534 83.2472 26.2262 84.5566C26.2206 84.6207 26.2298 84.6852 26.2533 84.746C26.2768 84.8068 26.314 84.8625 26.3627 84.9097C26.4113 84.9569 26.4703 84.9945 26.5359 85.0202C26.6015 85.0458 26.6723 85.059 26.7438 85.0588H38.657C38.7287 85.0593 38.7999 85.0464 38.8658 85.021C38.9318 84.9955 38.9911 84.9579 39.0401 84.9107C39.089 84.8635 39.1265 84.8076 39.1501 84.7466C39.1738 84.6857 39.1831 84.621 39.1775 84.5566C39.0478 83.2128 38.405 81.9508 37.3581 80.9849C36.3113 80.019 34.9249 79.4088 33.4346 79.258L34.1005 68.5014L44.1672 69.0401V80.5474C43.4426 81.0078 42.8374 81.6039 42.3932 82.2946C41.949 82.9853 41.6763 83.7543 41.5938 84.5488C41.5878 84.6135 41.5967 84.6786 41.6202 84.74C41.6436 84.8014 41.681 84.8577 41.7299 84.9054C41.7789 84.9532 41.8383 84.9912 41.9045 85.0171C41.9707 85.0431 42.0421 85.0564 42.1143 85.0561H53.3267C53.3986 85.056 53.4697 85.0425 53.5356 85.0164C53.6014 84.9903 53.6605 84.9522 53.7091 84.9045C53.7577 84.8568 53.7949 84.8006 53.8181 84.7394C53.8414 84.6781 53.8503 84.6132 53.8443 84.5488C53.7606 83.7242 53.4721 82.9271 53 82.2164C52.5278 81.5056 51.8841 80.8993 51.1165 80.4424C50.3488 79.9854 49.4768 79.6895 48.5649 79.5764C47.6529 79.4633 46.7244 79.5359 45.8479 79.7889V69.1316L51.3174 69.4245V76.274H50.8522C50.588 76.274 50.3303 76.348 50.1151 76.4858C49.8998 76.6236 49.7377 76.8183 49.6512 77.0429L49.3605 77.783C49.2942 77.9552 49.2746 78.1392 49.3034 78.3195C49.3322 78.4999 49.4086 78.6715 49.5261 78.8199C49.6436 78.9684 49.7989 79.0894 49.979 79.1729C50.1591 79.2564 50.3588 79.2999 50.5614 79.2999H53.2133C53.4236 79.2989 53.6303 79.251 53.815 79.1606C53.9998 79.0702 54.1567 78.9401 54.2719 78.7818C54.3871 78.6236 54.4569 78.4421 54.4751 78.2537C54.4934 78.0653 54.4594 77.8757 54.3764 77.7019L54.0333 76.9749Z" fill="#1D1D1B"/>
</g>
<defs>
<clipPath id="clip0_528:641">
<rect width="85" height="85" fill="white"/>
</clipPath>
</defs>
</svg>
