<svg width="85" height="85" viewBox="0 0 85 85" fill="none" xmlns="http://www.w3.org/2000/svg">
<path d="M49.7852 78.7775C49.137 78.7769 48.4927 78.8761 47.8752 79.0714V62.3761L52.831 62.6701C53.2984 62.6992 53.7584 62.5446 54.1115 62.2398C54.4646 61.935 54.6823 61.5045 54.7172 61.0417L55.6544 28.8239C55.683 28.1395 55.4469 27.4701 54.9944 26.9523C54.5419 26.4345 53.9071 26.1073 53.2195 26.0375L36.3146 26.0816C35.2775 25.9715 34.2381 26.2677 33.4185 26.907C32.5988 27.5463 32.064 28.478 31.9282 29.5029C30.5353 30.195 29.351 31.2386 28.4945 32.5286C27.638 33.8186 27.1396 35.3095 27.0495 36.8512H27.0703V50.3338H26.5898C26.3207 50.3335 26.0581 50.4166 25.839 50.5716C25.6199 50.7266 25.4552 50.9456 25.3679 51.1979L25.0714 52.0298C25.0037 52.2233 24.9838 52.43 25.0132 52.6328C25.0426 52.8355 25.1204 53.0283 25.2403 53.1951C25.3602 53.362 25.5185 53.498 25.7022 53.5918C25.8859 53.6856 26.0896 53.7346 26.2962 53.7346H28.998C29.2128 53.7341 29.4241 53.6808 29.6129 53.5794C29.8017 53.478 29.9622 53.3317 30.0798 53.1536C30.1975 52.9756 30.2686 52.7713 30.2868 52.5592C30.3051 52.3471 30.2699 52.1339 30.1843 51.9386L29.8522 51.1068C29.7522 50.877 29.5867 50.6811 29.3759 50.5433C29.1652 50.4054 28.9184 50.3316 28.6659 50.3308H28.3367V36.7395C28.4317 35.5702 28.8012 34.439 29.4154 33.4363C30.0297 32.4335 30.8719 31.5868 31.8748 30.9637L30.3534 59.8366C30.3287 60.0286 30.3441 60.2237 30.3987 60.4096C30.4533 60.5955 30.546 60.7683 30.6709 60.9172C30.7958 61.0661 30.9503 61.1879 31.1248 61.2751C31.2993 61.3622 31.49 61.4128 31.685 61.4238L34.0932 61.5678L33.4823 78.5159C32.0121 78.7348 30.6591 79.4378 29.6412 80.5117C28.6233 81.5855 27.9997 82.9678 27.871 84.4356C27.8653 84.508 27.8748 84.5807 27.8989 84.6492C27.923 84.7177 27.9613 84.7805 28.0112 84.8336C28.0611 84.8866 28.1216 84.9288 28.1889 84.9575C28.2562 84.9861 28.3287 85.0006 28.4019 85H40.5438C40.6168 85.0002 40.689 84.9854 40.7559 84.9566C40.8228 84.9278 40.883 84.8855 40.9326 84.8325C40.9822 84.7794 41.0202 84.7168 41.0441 84.6485C41.068 84.5802 41.0774 84.5077 41.0717 84.4356C40.94 82.9203 40.2816 81.4974 39.209 80.4097C38.1364 79.322 36.7161 78.637 35.1906 78.4718L35.7837 61.6619L46.1639 62.2762V79.9267C45.4249 80.4439 44.8078 81.1138 44.3552 81.8902C43.9026 82.6666 43.6252 83.531 43.5422 84.4239C43.5361 84.4963 43.5451 84.5693 43.5688 84.6381C43.5926 84.7069 43.6304 84.7701 43.68 84.8237C43.7296 84.8773 43.7899 84.9201 43.8571 84.9494C43.9242 84.9787 43.9967 84.994 44.0701 84.9941H55.5061C55.5798 84.9944 55.6526 84.9794 55.7201 84.9503C55.7876 84.9211 55.8483 84.8784 55.8982 84.8247C55.9481 84.7711 55.9862 84.7078 56.0101 84.6388C56.034 84.5698 56.0432 84.4966 56.037 84.4239C55.8928 82.8797 55.1717 81.4445 54.0151 80.4C52.8586 79.3554 51.3499 78.7767 49.7852 78.7775Z" fill="#1D1D1B"/>
<path d="M58.4216 2.49658L56.7608 2.35549C56.2428 1.60058 55.5396 0.988661 54.7172 0.577307C53.8949 0.165952 52.9805 -0.0313219 52.06 0.00403948L34.0044 0.680077C33.579 0.695401 33.1772 0.8773 32.8869 1.18587C32.5967 1.49444 32.4418 1.90449 32.4562 2.32609L32.6935 8.55743L30.1429 8.63091C30.0377 8.63968 29.9397 8.6873 29.8682 8.76433C29.7968 8.84136 29.7571 8.94218 29.7571 9.04681C29.7571 9.15145 29.7968 9.25228 29.8682 9.32931C29.9397 9.40634 30.0377 9.45396 30.1429 9.46273L32.7024 9.39219L32.7439 10.4709L30.4721 10.6414C30.4172 10.6451 30.3635 10.6596 30.3142 10.6839C30.2649 10.7083 30.2209 10.742 30.1848 10.7833C30.1487 10.8245 30.1212 10.8724 30.1038 10.9242C30.0865 10.9761 30.0796 11.0308 30.0836 11.0852C30.0918 11.1905 30.1397 11.2889 30.2177 11.3608C30.2958 11.4326 30.3982 11.4728 30.5048 11.4732H30.5344L32.7736 11.3086L32.8507 13.3338C32.2956 13.0701 31.6868 12.9364 31.0712 12.9429C29.1702 12.9576 27.9601 15.2943 28.2182 17.878C28.4762 20.4616 28.5503 23.1099 32.3851 22.9512C33.3282 22.913 33.954 22.6161 34.3603 22.1899C34.8442 22.7025 35.4359 23.1035 36.0934 23.3645C36.7509 23.6256 37.4582 23.7404 38.1654 23.7007L56.0015 22.7161C56.4341 22.6928 56.8414 22.5068 57.1401 22.1959C57.4389 21.8851 57.6066 21.4729 57.609 21.0436L57.6713 5.7592L58.1043 5.8033C58.1908 5.81222 58.2783 5.80405 58.3616 5.77927C58.445 5.7545 58.5225 5.7136 58.5898 5.65893C58.6571 5.60427 58.7128 5.53693 58.7537 5.4608C58.7945 5.38468 58.8198 5.30129 58.8279 5.21544L58.997 3.20494C59.0137 3.03573 58.9628 2.86678 58.8552 2.73434C58.7477 2.6019 58.592 2.51654 58.4216 2.49658ZM47.0538 13.1192L46.9263 8.80433C46.9313 8.69633 46.9772 8.59417 47.0549 8.5183C47.1327 8.44242 47.2364 8.39842 47.3454 8.39508C47.4545 8.39174 47.5608 8.42931 47.6431 8.50028C47.7253 8.57125 47.7776 8.67039 47.7893 8.77787L47.9168 13.0928L47.0538 13.1192ZM51.8524 12.5549L51.7338 8.58975C51.7388 8.48175 51.7847 8.37961 51.8625 8.30373C51.9402 8.22786 52.0439 8.18385 52.153 8.1805C52.262 8.17716 52.3683 8.21474 52.4506 8.28571C52.5329 8.35668 52.5851 8.45581 52.5968 8.5633L52.7155 12.5314L51.8524 12.5549Z" fill="#1D1D1B"/>
</svg>
